<svg xmlns:xlink="http://www.w3.org/1999/xlink" xmlns="http://www.w3.org/2000/svg" role="img" class="footer-list__item-img" width="100"  height="60" ><defs><symbol viewBox="0 0 76 51" id="svgsprite-logos-sx">
    <path d="M2.77504 42.7979C3.22145 42.7979 3.57857 42.8872 3.77499 42.9586C4.04283 43.0658 4.18569 43.2266 4.1589 43.6463C4.14997 43.816 4.07855 44.2894 4.06069 44.5394C4.05177 44.6377 3.94462 44.6019 3.94462 44.5394C3.88213 43.7892 3.48929 43.0926 2.65005 43.0926C1.9358 43.0926 1.42691 43.5302 1.42691 44.3965C1.42691 45.2539 1.96259 45.7451 2.62327 46.1202C3.97141 46.8794 4.52495 47.5135 4.48924 48.6566C4.45353 49.8623 3.5518 50.6304 2.33758 50.6304C1.77511 50.6304 1.38226 50.5054 1.11442 50.3803C0.873359 50.2642 0.694798 50.0231 0.668013 49.7284C0.632301 49.3354 0.68587 48.7906 0.766223 48.4423C0.784079 48.3619 0.882293 48.3708 0.882293 48.4423C0.935861 49.6123 1.45369 50.3446 2.39114 50.3446C3.32859 50.3446 3.85535 49.7284 3.85535 48.9335C3.85535 47.9332 3.28395 47.5135 2.29293 46.9419C1.50726 46.4953 0.819793 45.8434 0.837649 44.6555C0.855505 43.5481 1.58761 42.7979 2.77504 42.7979ZM73.9409 42.7979C74.3873 42.7979 74.7444 42.8872 74.9409 42.9586C75.2087 43.0658 75.3516 43.2266 75.3248 43.6463C75.3159 43.816 75.2534 44.2894 75.2266 44.5394C75.2176 44.6377 75.1105 44.6019 75.1105 44.5394C75.048 43.7892 74.6552 43.0926 73.8159 43.0926C73.1017 43.0926 72.5928 43.5302 72.5928 44.3965C72.5928 45.2539 73.1285 45.7451 73.7891 46.1202C75.1373 46.8794 75.6908 47.5135 75.6551 48.6566C75.6194 49.8623 74.7177 50.6304 73.5034 50.6304C72.941 50.6304 72.5481 50.5054 72.2803 50.3803C72.0392 50.2642 71.8607 50.0231 71.8339 49.7284C71.7982 49.3354 71.8517 48.7906 71.9321 48.4423C71.95 48.3619 72.0482 48.3708 72.0482 48.4423C72.1017 49.6123 72.6196 50.3446 73.557 50.3446C74.4945 50.3446 75.0212 49.7284 75.0212 48.9335C75.0212 47.9332 74.4498 47.5135 73.4588 46.9419C72.6731 46.4953 71.9857 45.8434 72.0035 44.6555C72.0214 43.5481 72.7535 42.7979 73.9409 42.7979ZM57.6561 42.7979C58.156 42.7979 58.5667 42.8872 58.781 42.9586C59.0846 43.0658 59.2453 43.2266 59.2096 43.6463C59.2006 43.816 59.1203 44.2894 59.1024 44.5394C59.0935 44.6377 58.9685 44.6019 58.9685 44.5394C58.8971 43.7892 58.4507 43.0926 57.5043 43.0926C56.6918 43.0926 56.1204 43.5302 56.1204 44.3965C56.1204 45.2539 56.7186 45.7451 57.4686 46.1202C58.9864 46.8794 59.6113 47.5135 59.5756 48.6566C59.5399 49.8623 58.5221 50.6304 57.1472 50.6304C56.5133 50.6304 56.0669 50.5054 55.7633 50.3803C55.4955 50.2642 55.2901 50.0231 55.2633 49.7284C55.2276 49.3354 55.2901 48.7906 55.3705 48.4423C55.3973 48.3619 55.5044 48.3708 55.5044 48.4423C55.5669 49.6123 56.1562 50.3446 57.2097 50.3446C58.2632 50.3446 58.8614 49.7284 58.8614 48.9335C58.8614 47.9332 58.2096 47.5135 57.0936 46.9419C56.2097 46.4953 55.424 45.8434 55.4508 44.6555C55.4865 43.5481 56.3258 42.7979 57.6561 42.7979ZM30.1218 42.7979C30.6218 42.7979 31.0325 42.8872 31.2468 42.9586C31.5503 43.0658 31.711 43.2266 31.6753 43.6463C31.6664 43.816 31.586 44.2894 31.5682 44.5394C31.5592 44.6377 31.4342 44.6019 31.4342 44.5394C31.3628 43.7892 30.9164 43.0926 29.979 43.0926C29.1665 43.0926 28.5951 43.5302 28.5951 44.3965C28.5951 45.2539 29.1933 45.7451 29.9433 46.1202C31.461 46.8794 32.086 47.5135 32.0503 48.6566C32.0146 49.8623 30.9968 50.6304 29.6218 50.6304C28.988 50.6304 28.5415 50.5054 28.238 50.3803C27.9701 50.2642 27.7559 50.0231 27.738 49.7284C27.7023 49.3354 27.7648 48.7906 27.8451 48.4423C27.8719 48.3619 27.9791 48.3708 27.9791 48.4423C28.0416 49.6123 28.6308 50.3446 29.6843 50.3446C30.7379 50.3446 31.336 49.7284 31.336 48.9335C31.336 47.9332 30.6843 47.5135 29.5683 46.9419C28.6844 46.4953 27.8987 45.8434 27.9255 44.6555C27.9523 43.5481 28.7826 42.7979 30.1218 42.7979ZM44.7818 43.0747C45.6924 44.0661 46.6834 45.1021 47.9066 46.2988C48.969 47.3438 49.8708 48.2547 50.5315 48.8531C50.5315 47.4331 50.5582 45.8791 50.4689 44.2C50.4243 43.3248 50.3261 43.1908 49.6386 43.0926C49.5494 43.0926 49.5404 42.9586 49.6386 42.9586C49.969 42.9676 50.5315 42.9944 50.7547 42.9944C50.9421 42.9944 51.3439 42.9676 51.6742 42.9586C51.7725 42.9586 51.7457 43.0926 51.6742 43.0926C51.21 43.164 51.085 43.4856 51.0582 44.0393C50.9868 45.8969 50.9332 47.6653 50.9332 50.3C50.9332 50.5143 50.9243 50.55 50.8975 50.5679C50.835 50.5947 50.7993 50.559 50.6297 50.3625C49.844 49.4872 49.0226 48.6031 47.5316 47.1205C46.3531 45.9505 45.4067 44.986 44.8978 44.5216C44.9067 45.4504 44.9246 47.7457 45.005 49.4336C45.0317 49.9159 45.2371 50.2285 45.9871 50.3C46.0763 50.3 46.0942 50.4339 45.9871 50.4339C45.496 50.425 44.9246 50.3982 44.6925 50.3982C44.4871 50.3982 44.0586 50.425 43.7282 50.4339C43.63 50.4339 43.639 50.3 43.7282 50.3C44.1657 50.2196 44.3264 50.1035 44.38 49.4962C44.4693 48.228 44.4961 46.4328 44.505 45.4147V44.6734C44.505 44.1643 44.505 43.6195 44.496 43.1194C44.496 42.9408 44.4961 42.8872 44.5496 42.8782C44.5586 42.8693 44.6032 42.8961 44.7818 43.0747ZM67.4145 43.2712C67.3877 43.5838 67.3431 44.0214 67.2806 44.4233C67.2716 44.5037 67.1199 44.5037 67.1377 44.4233C67.1288 43.8249 66.9324 43.423 66.3074 43.3784C65.7092 43.3337 65.3074 43.3337 64.62 43.3427C64.6111 44.3429 64.6111 45.2539 64.6111 46.3524C65.111 46.3792 65.9146 46.3882 66.6556 46.3435C67.0127 46.3167 66.9949 46.2095 67.0841 46.2274C67.1288 46.2363 67.0931 46.2899 67.0752 46.531C67.0484 46.8168 66.9859 47.1473 66.9502 47.2634C66.9234 47.3527 66.8074 47.3527 66.8074 47.2634C66.8074 46.7811 66.5038 46.7811 65.9949 46.7543C65.7717 46.7454 65.0039 46.7454 64.6111 46.7543C64.6021 47.3438 64.6111 48.5227 64.6378 49.2818C64.6646 50.0052 64.8075 50.041 65.4503 50.0499C65.9681 50.0588 66.1735 50.0588 66.477 50.0499C67.5038 50.0231 67.7002 49.389 67.852 48.6298C67.8609 48.5405 68.0037 48.5316 68.0037 48.6298C68.0037 49.0853 68.0037 49.7998 67.9412 50.1035C67.8877 50.3714 67.6823 50.4607 67.2181 50.4607C66.6377 50.4607 65.6199 50.4161 64.5307 50.4161H64.3254C64.0575 50.4161 63.3611 50.4428 62.9415 50.4518C62.8433 50.4518 62.8611 50.3178 62.9415 50.3178C63.5933 50.2464 63.7272 50.1392 63.754 49.1032C63.7807 48.2637 63.7807 47.4152 63.7807 46.5578C63.7807 45.8255 63.7807 45.1735 63.754 44.4144C63.7272 43.4141 63.7183 43.1998 62.9058 43.1015C62.8254 43.1015 62.7987 42.9676 62.9058 42.9676C63.3076 42.9765 63.9325 43.0033 64.3432 43.0033C65.111 43.0033 66.2717 42.9765 66.9145 42.9676C67.2448 42.9676 67.4413 42.9765 67.4145 43.2712ZM39.8802 43.2712C39.8534 43.5838 39.8088 44.0214 39.7463 44.4233C39.7374 44.5037 39.5856 44.5037 39.5945 44.4233C39.5856 43.8249 39.3892 43.423 38.7642 43.3784C38.166 43.3337 37.7553 43.3337 37.0768 43.3427C37.0679 44.3429 37.0679 45.2539 37.0679 46.3524C37.5679 46.3792 38.3714 46.3882 39.1124 46.3435C39.4695 46.3167 39.4517 46.2095 39.541 46.2274C39.5856 46.2363 39.5499 46.2899 39.532 46.531C39.5052 46.8168 39.4427 47.1473 39.407 47.2634C39.3802 47.3527 39.2642 47.3527 39.2642 47.2634C39.2642 46.7811 38.9606 46.7811 38.4517 46.7543C38.2285 46.7454 37.4607 46.7454 37.0679 46.7543C37.0589 47.3438 37.0679 48.5227 37.0947 49.2818C37.1214 50.0052 37.2643 50.041 37.9071 50.0499C38.4249 50.0588 38.6303 50.0588 38.9338 50.0499C39.9606 50.0231 40.157 49.389 40.3088 48.6298C40.3177 48.5405 40.4516 48.5316 40.4516 48.6298V48.8799C40.4516 49.3175 40.4427 49.8534 40.3891 50.1035C40.3356 50.3714 40.1302 50.4607 39.666 50.4607C39.0856 50.4607 38.0678 50.4161 36.9786 50.4161H36.7732C36.5054 50.4161 35.809 50.4428 35.3894 50.4518C35.2912 50.4518 35.3001 50.3178 35.3894 50.3178C36.0411 50.2464 36.1751 50.1392 36.2019 49.1032C36.2197 48.4691 36.2286 47.835 36.2286 47.2009V46.5578C36.2286 45.8255 36.2286 45.1735 36.2019 44.4144C36.1751 43.4141 36.1661 43.1998 35.3537 43.1015C35.2644 43.1015 35.2465 42.9676 35.3537 42.9676C35.7554 42.9765 36.3804 43.0033 36.7911 43.0033C37.5589 43.0033 38.7196 42.9765 39.3624 42.9676C39.7017 42.9676 39.8981 42.9765 39.8802 43.2712ZM19.7295 42.9676C19.8277 42.9676 19.8277 43.1015 19.7295 43.1015C19.3724 43.1462 19.1402 43.173 18.7028 43.7981C18.051 44.7091 17.4171 45.629 16.9529 46.3792C17.5689 47.3438 18.5242 48.8531 19.0956 49.648C19.4527 50.1392 19.6849 50.291 20.0866 50.3267C20.1759 50.3267 20.1848 50.4607 20.0866 50.4607C19.6938 50.4518 19.2385 50.425 18.9349 50.425C18.5689 50.425 18.2117 50.4518 17.7743 50.4607C17.676 50.4607 17.685 50.3267 17.7743 50.3267C18.2564 50.2821 18.2385 50.0856 18.0153 49.7016C17.6939 49.1389 16.9886 48.0404 16.4261 47.1026C15.9351 47.8528 15.2833 48.9603 14.944 49.5855C14.6762 50.0767 14.6584 50.2642 15.3101 50.3357C15.3994 50.3357 15.4172 50.4696 15.3101 50.4696C14.9441 50.4607 14.4887 50.4339 14.2209 50.4339C13.962 50.4339 13.4977 50.4607 13.0691 50.4696C12.9799 50.4696 12.9799 50.3535 13.0691 50.3357C13.4977 50.3 13.8012 50.2017 14.2119 49.639C14.8369 48.7817 15.5869 47.6831 16.194 46.7365C15.5601 45.7272 14.8369 44.593 14.2923 43.7981C13.953 43.2891 13.7923 43.173 13.3102 43.1283C13.2209 43.1283 13.2031 42.9944 13.3102 42.9944C13.6941 43.0033 14.1584 43.0301 14.4619 43.0301C14.828 43.0301 15.2744 43.0033 15.7119 42.9944C15.819 42.9944 15.8011 43.1283 15.7119 43.1283C15.1583 43.1908 15.1583 43.3694 15.3726 43.7535C15.7565 44.4412 16.2029 45.236 16.7118 46.0666C17.1671 45.3432 17.5957 44.6109 17.935 43.9321C18.2921 43.2176 18.2028 43.1998 17.7653 43.1283C17.6761 43.1283 17.6582 42.9944 17.7653 42.9944C18.0332 43.0033 18.6581 43.0301 18.8188 43.0301C18.9706 43.0033 19.3813 42.9765 19.7295 42.9676ZM10.2122 42.9676C10.3104 42.9676 10.3014 43.0837 10.2122 43.1015C9.6854 43.1998 9.54255 43.2087 9.51576 44.4233C9.50683 44.6645 9.50684 45.3254 9.50684 45.9773V46.9151C9.50684 47.3348 9.53362 48.6834 9.54255 49.0943C9.57826 50.1213 9.67647 50.2464 10.3996 50.3089C10.4979 50.3089 10.4979 50.4429 10.3996 50.4429C9.96217 50.4339 9.45326 50.4071 9.09614 50.4071C8.75687 50.4071 8.22118 50.4339 7.83728 50.4429C7.73907 50.4429 7.74799 50.3089 7.83728 50.3089C8.43546 50.2196 8.59617 50.1481 8.62295 49.0943C8.63188 48.7102 8.64974 47.5045 8.64974 47.0133V46.924C8.64974 45.9863 8.64081 44.8252 8.62295 44.4144C8.58724 43.164 8.39082 43.164 7.83728 43.0926C7.74799 43.0926 7.73014 42.9586 7.83728 42.9586C8.16761 42.9676 8.74794 42.9944 9.09614 42.9944C9.28363 43.0033 9.83717 42.9765 10.2122 42.9676ZM57.0579 34.4295H57.1115C57.1115 34.4384 57.1204 34.4473 57.1293 34.4473C57.3704 34.4563 57.299 34.5366 57.4686 34.5724C56.9865 34.5545 57.6025 34.6259 57.2543 34.6885C57.3525 34.7063 57.4329 34.7153 57.5132 34.7153C57.4329 34.7242 57.3525 34.751 57.2632 34.7599L57.2811 34.751C57.3079 34.7331 57.3079 34.7331 57.2811 34.7331C57.2722 34.7153 57.2543 34.7063 57.2543 34.6974C57.165 34.5991 56.9329 34.5456 57.0757 34.4384L57.0579 34.4562L57.04 34.4473C57.0222 34.4473 57.0043 34.4473 56.9865 34.4473H56.9329C56.9597 34.4384 56.9865 34.4384 57.0132 34.4384H57.0043L57.0579 34.4295ZM18.3367 26.2575L18.3724 26.2665C17.2564 27.0435 16.8011 28.526 16.7297 28.794L16.7207 28.8386L16.8189 28.8654C17.676 26.8916 20.0063 26.5969 21.3187 26.5969C21.533 26.5969 21.7115 26.6058 21.8633 26.6148C21.9258 26.6594 21.9972 26.7041 22.0776 26.7488C22.0419 26.7398 21.9883 26.7845 22.0954 26.8381C22.1312 26.7041 22.3187 26.9095 22.4526 26.8917C22.399 26.8917 22.4615 26.9452 22.524 26.9988C22.5865 27.0524 22.6311 27.106 22.5508 27.0971C22.6401 27.1507 22.5865 27.0613 22.6668 27.0881C22.8186 27.2757 23.0865 27.4186 23.265 27.6597C23.2561 27.6776 23.2025 27.6508 23.2204 27.7133C23.274 27.7401 23.3365 27.758 23.39 27.7848C23.4168 27.8383 23.3365 27.883 23.4525 27.9366C23.4347 27.9277 23.3989 27.9277 23.4168 27.9634C23.6222 28.1777 23.7472 28.4367 23.8454 28.7136C23.9525 28.9815 24.0328 29.2584 24.1578 29.5263C24.1132 29.4549 24.1132 29.5084 24.1221 29.562C24.1043 29.5263 24.0775 29.571 24.0507 29.562C24.0864 29.6335 24.1221 29.7139 24.1489 29.7942C24.0864 29.8389 24.1668 30.0532 24.0953 30.08L24.1043 30.0086C24.0596 30.0622 24.0061 30.0175 23.9525 29.9639C23.9614 30.0443 23.9614 30.1158 23.9614 30.1961C23.9614 31.3393 23.4436 32.3664 22.6133 33.0898C22.6311 33.0809 22.6311 33.0719 22.649 33.0719L22.6579 33.0898C22.6133 33.1255 22.5686 33.1434 22.6044 33.0987C22.5686 33.1345 22.524 33.1702 22.4883 33.197C22.5597 33.1702 22.6044 33.2506 22.6133 33.3399L22.6758 33.2863H22.6668L22.6936 33.2684C22.6668 33.3042 22.6579 33.3309 22.6311 33.3845L22.6847 33.4024C22.6579 33.4024 22.6401 33.4024 22.6133 33.4113H22.5597H22.5508H22.5419L22.5329 33.4203V33.4113C22.524 33.4202 22.5061 33.4202 22.4883 33.4292C22.5061 33.3935 22.6222 33.2595 22.5329 33.2774C22.4169 33.3399 22.4615 33.3488 22.4258 33.4024C22.4347 33.3399 22.2919 33.4113 22.2383 33.3756C22.1401 33.447 22.033 33.5096 21.9258 33.5721L21.8633 33.6078C21.8723 33.5989 21.8723 33.5989 21.8812 33.5899C21.774 33.6525 21.6669 33.6971 21.5598 33.7507C21.5687 33.7507 21.5776 33.7596 21.5687 33.7686L21.4973 33.7864C21.4526 33.8489 21.649 33.7864 21.5776 33.84C21.6758 33.8311 21.8008 33.8221 21.9169 33.7328L21.908 33.6703C21.9169 33.6882 21.8455 33.7418 21.8008 33.7418C21.8633 33.7418 21.9437 33.5721 22.0419 33.6078L21.9794 33.6882C22.033 33.6793 22.1044 33.6703 22.1758 33.6435C22.1579 33.6078 22.2204 33.5899 22.274 33.5542C22.274 33.5542 22.2651 33.5542 22.2651 33.5631C22.2829 33.5721 22.2829 33.581 22.2829 33.5989L22.3187 33.5721C22.3097 33.6525 22.2919 33.581 22.2562 33.6882C22.274 33.5721 21.9794 33.8579 22.033 33.715C21.9972 33.8222 21.9169 33.8222 21.8365 33.9383C21.8276 33.9204 21.8544 33.8847 21.7651 33.9383C21.7562 33.9383 21.7473 33.9293 21.7383 33.9293H21.7294C21.7205 33.9293 21.7205 33.9293 21.7294 33.9293C21.7473 33.9115 21.7651 33.8936 21.7651 33.8847C21.6937 33.8668 21.5419 33.9383 21.4794 33.9383C21.4258 33.9651 21.5151 33.9472 21.4883 33.9829C21.4526 33.9829 21.4258 33.9829 21.3901 33.9829C21.3991 34.0276 21.2651 34.1079 21.4169 34.0811C21.3723 34.099 21.3366 34.1079 21.2919 34.1258C21.2294 34.1705 21.1223 34.2151 21.0509 34.2151C20.9884 34.2419 20.8812 34.2151 20.9437 34.233C20.8723 34.2419 20.8009 34.2508 20.7295 34.2598V34.2687C20.5241 34.3223 20.3009 34.2776 20.0688 34.3669C19.9973 34.3669 19.9259 34.3491 19.8099 34.3669L19.792 34.4027C19.7027 34.3937 19.5152 34.4384 19.4795 34.3937C19.426 34.4384 19.3099 34.4384 19.1938 34.4205C19.0778 34.4027 18.9528 34.367 18.8724 34.358L18.8813 34.3134C18.7742 34.2955 18.676 34.2598 18.551 34.2062L18.5689 34.1705C18.4706 34.1079 18.2742 34.1169 18.1046 34.0544C18.1135 34.0722 18.1582 34.0812 18.1939 34.0901C18.0689 34.099 17.9707 34.0365 17.8725 33.974C17.7743 33.9115 17.6939 33.84 17.5868 33.8222C17.551 33.7864 17.5153 33.7775 17.4796 33.7686L17.4885 33.7775C17.4885 33.7775 17.4796 33.7686 17.4707 33.7686C17.4439 33.7686 17.4261 33.7596 17.3993 33.7507C17.4261 33.7507 17.4439 33.7507 17.4618 33.7596C17.4261 33.7418 17.3814 33.706 17.3457 33.6703L17.3011 33.6971L17.2921 33.6882C17.2386 33.6703 17.2653 33.6435 17.31 33.6346C17.2921 33.6167 17.2743 33.5899 17.2653 33.5721C17.185 33.6078 17.1582 33.4649 17.06 33.5006C17.0511 33.447 16.8547 33.3041 16.8993 33.2238C16.8904 33.2327 16.8725 33.2238 16.8993 33.2416C16.8457 33.2148 16.7922 33.1791 16.7743 33.1255L16.7118 33.1523C16.7029 33.0987 16.685 33.0541 16.6761 33.0094C16.5957 32.9826 16.5511 32.9648 16.569 33.0541C16.4886 32.8665 16.4797 32.9201 16.4261 32.7594L16.3993 32.7861C16.3636 32.7415 16.3458 32.6432 16.3011 32.6343C16.2297 32.6075 16.1315 32.4736 16.0243 32.3217C15.9172 32.1699 15.819 31.9824 15.7208 31.8395C15.8547 31.8573 15.6047 31.7144 15.6851 31.6698C15.6494 31.6608 15.6226 31.6251 15.6137 31.6787C15.5779 31.509 15.4797 31.4465 15.5244 31.3125C15.4887 31.3036 15.4976 31.3572 15.4708 31.3482C15.4708 31.3304 15.4797 31.2857 15.4619 31.2768C15.444 31.2679 15.444 31.3036 15.444 31.3393C15.3994 31.1696 15.4797 31.1339 15.5601 31.0982C15.4976 31.0267 15.4976 30.9821 15.5422 30.9106C15.5065 30.8838 15.4708 30.8392 15.4797 30.9463C15.4619 30.8928 15.3815 30.5891 15.4529 30.5802C15.4351 30.5623 15.444 30.4998 15.444 30.4819C15.4262 30.348 15.4262 30.339 15.4262 30.2051L15.4351 30.2408C15.5154 30.1872 15.4529 30.1336 15.4708 30.0264H15.4619C15.4172 29.7853 15.4887 29.9282 15.4529 29.6871L15.4976 29.7049C15.6047 29.696 15.4619 29.4906 15.5333 29.3566L15.5512 29.4102C15.6047 29.3477 15.453 29.178 15.4619 29.0976C15.453 29.0798 15.4351 29.1155 15.4262 29.1423C15.4262 28.9279 15.4976 29.1333 15.5512 28.9904C15.5244 28.9547 15.4529 28.9994 15.4797 28.9011C15.4708 28.8386 15.694 28.66 15.6851 28.5082C15.694 28.5439 15.7119 28.5796 15.7565 28.526C15.8101 28.4367 15.8011 28.2224 15.9261 28.1777C15.9261 28.1599 15.9261 28.1509 15.9172 28.1509C15.9797 28.0884 16.0958 27.9455 16.1583 27.9276C16.1047 27.8562 16.2029 27.758 16.3011 27.6776C16.3904 27.5972 16.4886 27.5347 16.4261 27.49C16.4886 27.4275 16.5511 27.365 16.6136 27.3114L16.5957 27.3025C16.7118 27.1774 16.7832 27.1685 16.8547 27.1596C16.8725 27.1328 16.8457 27.1328 16.8368 27.1328C16.9975 26.9542 17.0332 26.9452 17.2386 26.8917L17.2296 26.8381C17.2921 26.8291 17.4886 26.5791 17.7296 26.5255C17.7207 26.5165 17.7207 26.5165 17.6939 26.5165C17.8278 26.4808 17.9617 26.3826 18.0867 26.3201C18.185 26.2665 18.2831 26.2307 18.3546 26.2575H18.3367ZM56.1204 26.3022C54.933 27.1685 54.5223 28.8118 54.5134 28.8386L54.6116 28.8654C55.4687 26.8916 57.7989 26.5969 59.1114 26.5969C59.3167 26.5969 59.4953 26.6058 59.6381 26.6148C59.656 26.6326 59.6738 26.6416 59.6917 26.6594C59.4863 26.5701 59.6827 26.7398 59.5845 26.722C59.656 26.7666 59.8077 26.7845 59.7185 26.722H59.7006C59.7095 26.6237 59.9595 26.8381 59.9863 26.7845C60.3613 27.0256 60.7363 27.2846 61.013 27.5972L60.9238 27.6061C60.9595 27.6419 60.9952 27.6776 61.022 27.7133C61.0577 27.7312 61.1023 27.7222 61.0309 27.6419C61.1023 27.6597 61.1112 27.8026 61.1023 27.8116C61.2541 27.9544 61.1291 27.6954 61.1648 27.749L61.2094 27.8205L61.1916 27.8116C61.2005 27.883 61.1827 27.9009 61.2541 28.008C61.3077 28.0616 61.3166 28.017 61.3344 28.0438C61.3434 28.0438 61.3523 28.0527 61.3612 28.0795C61.3969 28.1331 61.4326 28.1777 61.4594 28.2313L61.3702 28.1956C61.388 28.276 61.4594 28.3385 61.3523 28.3027C61.4237 28.3295 61.513 28.4724 61.5844 28.6243C61.6469 28.7672 61.6916 28.919 61.7184 28.9547C61.7094 29.0708 61.7451 29.178 61.7808 29.303C61.763 29.2762 61.6916 29.2673 61.7184 29.3745C61.8523 29.303 61.8255 29.571 61.9326 29.6513C61.8969 29.6156 61.9058 29.696 61.9058 29.7764C61.9058 29.8568 61.8969 29.9282 61.8523 29.8657C61.8701 29.9639 61.9058 29.8657 61.9416 29.9371C61.9058 30.1693 61.9862 30.4462 61.9326 30.7409C61.9148 30.7409 61.888 30.6963 61.8523 30.7499C61.8791 30.8034 61.8969 30.857 61.9148 30.9106C61.8969 30.9642 61.7987 30.9463 61.8433 31.0535C61.8344 31.0357 61.8166 31.0089 61.7987 31.0446C61.7808 31.3215 61.6737 31.5983 61.5398 31.8573C61.4059 32.1163 61.2541 32.3664 61.147 32.6432C61.1648 32.5629 61.1291 32.5986 61.0934 32.6522C61.1112 32.6165 61.0577 32.6254 61.0398 32.6075C61.0041 32.679 60.9773 32.7594 60.9327 32.8308C60.8523 32.8219 60.7541 33.0184 60.6827 33.0005L60.7452 32.9558C60.6738 32.9648 60.6738 32.9023 60.6738 32.8308C60.6202 32.8844 60.5666 32.9469 60.5131 33.0005C59.5667 33.8936 58.281 34.2598 57.049 34.1258C57.0847 34.1526 57.1561 34.1615 57.2275 34.1437C57.3168 34.1794 57.2543 34.3044 57.1561 34.3669C57.1561 34.3491 57.1561 34.3312 57.0579 34.3044C57.0936 34.2866 57.2811 34.2776 57.2007 34.233C57.0757 34.2062 57.0936 34.2419 57.0311 34.2508C57.0847 34.2151 56.924 34.1705 56.915 34.1079C56.79 34.0901 56.674 34.0633 56.549 34.0365L56.4776 34.0186H56.5044C56.3883 33.9918 56.2722 33.9561 56.1562 33.9204C56.1651 33.9293 56.1651 33.9383 56.1472 33.9472L56.0847 33.9115C56.0044 33.9293 56.1919 34.0097 56.1026 34.0008C56.1829 34.0633 56.2811 34.1347 56.424 34.1526L56.4686 34.099C56.4597 34.1169 56.3704 34.1079 56.3347 34.0811C56.3794 34.1258 56.5579 34.0544 56.6026 34.1437L56.4954 34.1615C56.5847 34.2151 56.7008 34.3044 56.8258 34.3044C56.7543 34.3491 56.799 34.2955 56.6918 34.3491C56.79 34.2776 56.3704 34.2866 56.5133 34.224L56.4686 34.2419C56.3972 34.2598 56.3526 34.233 56.2633 34.2419L56.2097 34.2508C56.2187 34.233 56.2633 34.233 56.1562 34.2062C56.1562 34.1972 56.1472 34.1883 56.1383 34.1794H56.1294H56.1383C56.1294 34.1705 56.1294 34.1705 56.1383 34.1794C56.1651 34.1794 56.1919 34.1705 56.2008 34.1705C56.1651 34.1079 56.0044 34.0633 55.9597 34.0186C55.8972 34.0008 55.9776 34.0544 55.933 34.0544C55.9151 34.0365 55.8883 34.0097 55.8704 33.9918C55.8437 34.0276 55.683 34.0008 55.8169 34.0811C55.7722 34.0633 55.7365 34.0454 55.6919 34.0276C55.6026 34.0186 55.5044 33.9829 55.4508 33.9383C55.3883 33.9204 55.3348 33.8221 55.3616 33.8757L55.2812 33.8132L55.2008 33.7507L55.1919 33.7596C55.0134 33.6525 54.8794 33.4738 54.6473 33.3935C54.6027 33.3399 54.558 33.2863 54.4598 33.2148L54.4152 33.2238C54.3616 33.1523 54.192 33.063 54.2009 33.0094C54.1295 33.0094 54.0491 32.929 53.9777 32.8397C53.9063 32.7415 53.8438 32.6433 53.7902 32.5807L53.8348 32.545C53.7724 32.4646 53.7277 32.3753 53.6741 32.2503L53.7188 32.2413C53.692 32.1252 53.5492 32.0091 53.4777 31.8484C53.4688 31.8573 53.4777 31.8662 53.4866 31.8841C53.4242 31.8127 53.3974 31.7234 53.3795 31.634C53.3617 31.5269 53.3527 31.4197 53.2902 31.3393C53.2902 31.2947 53.2813 31.2589 53.2545 31.2321V31.2411C53.2545 31.2411 53.2545 31.2321 53.2456 31.2232C53.2277 31.2053 53.2188 31.1875 53.2009 31.1696C53.2188 31.1875 53.2277 31.2054 53.2367 31.2143C53.2277 31.1786 53.2188 31.125 53.2188 31.0714L53.1652 31.0625V31.0535C53.1385 31.0089 53.1831 31.0089 53.2188 31.0267C53.2188 30.9999 53.2277 30.9731 53.2367 30.9553C53.1474 30.9285 53.2367 30.8124 53.1474 30.7677C53.1831 30.732 53.1474 30.4998 53.2367 30.4641C53.2277 30.4641 53.2188 30.4462 53.2188 30.473C53.2009 30.4194 53.192 30.3569 53.2188 30.3033L53.1563 30.2854C53.1831 30.2408 53.2099 30.1961 53.2367 30.1604C53.201 30.08 53.1831 30.0532 53.1295 30.1247C53.2099 29.9371 53.1652 29.9729 53.2545 29.821H53.2099C53.2188 29.7675 53.2813 29.6781 53.2545 29.6424C53.2188 29.571 53.2456 29.4191 53.2902 29.2405C53.3349 29.0619 53.3974 28.8654 53.4331 28.6957C53.5224 28.794 53.442 28.535 53.5402 28.5528C53.5224 28.526 53.5313 28.4724 53.4777 28.5171C53.5759 28.3742 53.5491 28.267 53.6831 28.1956C53.6652 28.1688 53.6295 28.2045 53.6206 28.1867C53.6295 28.1777 53.6652 28.1509 53.6652 28.1241C53.6563 28.1063 53.6295 28.1331 53.6027 28.1509C53.7009 27.9991 53.7902 28.0259 53.8616 28.0616C53.8795 27.9723 53.9063 27.9366 53.9866 27.9098C53.9777 27.8741 53.9866 27.8115 53.9152 27.9009C53.942 27.8473 54.1116 27.5793 54.1741 27.624C54.1741 27.5972 54.2277 27.5525 54.2455 27.5525C54.3348 27.4543 54.3437 27.4364 54.4419 27.3471L54.4241 27.3829C54.5223 27.4007 54.5134 27.3203 54.6027 27.2489H54.5937C54.7455 27.0435 54.6919 27.1953 54.8437 26.9988L54.8705 27.0435C54.9509 27.1149 55.0044 26.8738 55.1562 26.8291L55.1294 26.8738C55.2098 26.8649 55.2365 26.6416 55.308 26.5969C55.3169 26.5791 55.2723 26.5969 55.2455 26.6059C55.4062 26.454 55.308 26.6416 55.4508 26.588C55.4598 26.5433 55.3705 26.5255 55.4687 26.4808C55.5044 26.4272 55.799 26.4451 55.9151 26.3379C55.8972 26.3736 55.8704 26.4094 55.9508 26.4004C56.0222 26.3647 56.0669 26.3379 56.1204 26.3022ZM21.1669 33.9383C21.0419 33.9561 20.9884 34.0276 20.908 34.0454C20.9437 34.0276 20.9705 34.0097 21.0062 33.9918C20.9616 33.9829 20.8723 33.9918 20.8366 34.0186C20.8455 34.0097 20.8723 33.9918 20.908 33.9829C20.7027 34.0365 20.4973 34.0812 20.283 34.099C20.3455 34.1437 20.4616 34.1794 20.5955 34.1794C20.7562 34.1705 20.6491 34.1169 20.6848 34.1169C20.8277 34.0812 20.8991 34.099 20.9616 34.1169C21.0241 34.1258 21.0866 34.1437 21.1937 34.0722C21.2651 34.0008 21.158 33.9829 21.1669 33.9383ZM17.81 33.6882C17.8367 33.7686 17.8814 33.8579 17.9528 33.9115L17.9975 33.8936C18.0332 33.9204 18.0778 33.9561 18.1135 33.9829C18.0867 33.9382 18.051 33.8579 18.0064 33.7775C17.9528 33.7507 17.8814 33.715 17.81 33.6882ZM22.9258 33.4024C22.5776 33.6971 23.0686 33.3577 22.8722 33.6167C22.9526 33.5721 23.015 33.5096 23.0775 33.4649C23.024 33.5274 22.9793 33.5899 22.9347 33.6614L22.9436 33.6435L22.8186 33.7418C22.7293 33.8043 22.6401 33.8668 22.5508 33.9204C22.6222 33.8489 22.7115 33.7686 22.8811 33.6257C22.7472 33.6078 22.5419 33.7239 22.5686 33.5631C22.774 33.3845 22.7651 33.4917 22.9258 33.4024ZM41.032 33.2416C41.023 33.322 41.0052 33.2506 40.9695 33.3577V33.3399C40.9427 33.2952 40.7463 33.4828 40.7463 33.4203L40.7552 33.3935L40.7373 33.4381C40.7016 33.4917 40.657 33.5096 40.6034 33.5631L40.5677 33.6078C40.5588 33.5899 40.5855 33.5542 40.4963 33.6078C40.4873 33.6078 40.4784 33.6078 40.4695 33.5989C40.4606 33.5989 40.4695 33.5989 40.4695 33.5989C40.4873 33.581 40.5052 33.5632 40.5052 33.5453C40.4338 33.5274 40.282 33.5989 40.2195 33.5989C40.1659 33.6346 40.2552 33.6078 40.2284 33.6435C40.2016 33.6435 40.1659 33.6435 40.1391 33.6435C40.1481 33.6882 40.0141 33.7686 40.157 33.7418C40.1124 33.7596 40.0766 33.7775 40.032 33.7864C39.9695 33.8311 39.8624 33.8757 39.791 33.8757C39.7552 33.8936 39.7195 33.8847 39.6927 33.8847C39.8892 33.7686 40.0766 33.6257 40.2374 33.4738C40.2731 33.4828 40.3534 33.456 40.2998 33.5006C40.3534 33.4917 40.407 33.4917 40.4695 33.4738H40.4606C40.4963 33.447 40.532 33.4202 40.5677 33.4024C40.5677 33.4113 40.5855 33.4113 40.6123 33.4024L40.6302 33.3756V33.4024L40.6213 33.3399V33.3488C40.6123 33.3667 40.5766 33.3935 40.5409 33.4113L40.5141 33.4203C40.5855 33.4203 40.657 33.2506 40.7552 33.2863L40.6927 33.3667C40.7998 33.3399 40.9427 33.322 41.032 33.2416ZM54.9687 33.2952C54.9776 33.3667 55.0312 33.4649 55.1294 33.5631C55.2544 33.6703 55.2187 33.5542 55.2366 33.581C55.3705 33.6525 55.4062 33.706 55.4419 33.7686C55.4776 33.8222 55.5133 33.8668 55.6383 33.8936C55.7544 33.8847 55.6919 33.8043 55.7276 33.7775C55.6205 33.706 55.5312 33.7239 55.4598 33.6792C55.4955 33.6882 55.5312 33.6971 55.5669 33.706C55.5401 33.6703 55.4687 33.6257 55.424 33.6167C55.4419 33.6167 55.4776 33.6257 55.5133 33.6435L55.3794 33.5721C55.2901 33.5185 55.2008 33.4649 55.1116 33.4024L54.9687 33.2952ZM38.7731 25.7127L38.9606 25.7217L38.8981 25.7842C38.9517 25.7842 38.9963 25.7931 39.0499 25.7931C39.0946 25.7842 39.1124 25.7395 39.0053 25.7306C39.0678 25.6949 39.1838 25.7842 39.1838 25.8021C39.3981 25.811 39.1213 25.7038 39.1838 25.7127L39.2731 25.7306L39.2553 25.7395C39.3178 25.7842 39.3178 25.811 39.4428 25.8289C39.5231 25.8289 39.4963 25.7931 39.5231 25.8021C39.5231 25.8021 39.532 25.8021 39.5677 25.811C39.6302 25.8199 39.6927 25.8378 39.7552 25.8556L39.666 25.8914C39.7374 25.936 39.8356 25.936 39.7374 25.9717C39.8088 25.9449 39.9874 25.9807 40.1391 26.0432C40.2999 26.1057 40.4427 26.1772 40.4784 26.1861C40.5677 26.2754 40.6659 26.329 40.782 26.3915C40.7463 26.3826 40.6927 26.4272 40.7998 26.4808C40.8445 26.3469 41.023 26.5523 41.1569 26.5344C41.0945 26.5344 41.1748 26.588 41.2284 26.6416C41.2909 26.6952 41.3355 26.7487 41.2552 26.7398C41.3444 26.7934 41.2909 26.7041 41.3801 26.7309C41.523 26.9184 41.7998 27.0613 41.9783 27.3025C41.9694 27.3203 41.9158 27.2935 41.9337 27.3561C41.9873 27.3739 42.0498 27.4007 42.1033 27.4275C42.1301 27.4811 42.0497 27.5257 42.1658 27.5793C42.148 27.5704 42.1123 27.5704 42.1301 27.6061C42.3265 27.8205 42.4604 28.0884 42.5587 28.3563C42.6569 28.6243 42.7372 28.9011 42.8711 29.1691C42.8265 29.0976 42.8265 29.1512 42.8354 29.2048C42.8176 29.1691 42.7908 29.2137 42.764 29.2048C42.7997 29.2762 42.8354 29.3566 42.8622 29.437C42.7997 29.4817 42.8801 29.696 42.8086 29.7228L42.8176 29.6513C42.7729 29.7049 42.7283 29.6603 42.6658 29.6067C42.6747 29.6871 42.6747 29.7585 42.6747 29.8389C42.6747 31.0982 42.0498 32.2146 41.0677 32.938L41.1659 32.8665L41.1569 32.8755V32.8665L41.0677 32.938C41.1034 32.929 41.148 32.9112 41.1837 32.8665L41.2016 32.8308C41.2909 32.7951 41.3355 32.929 41.3176 33.0362C41.2998 33.0273 41.2909 33.0094 41.2016 33.0541C41.2194 33.0184 41.3355 32.8844 41.2552 32.9023C41.1391 32.9648 41.1837 32.9737 41.148 33.0362C41.1569 32.9737 41.0141 33.0541 40.9695 33.0094C40.8712 33.0809 40.7641 33.1434 40.657 33.2059L40.5945 33.2416C40.6034 33.2327 40.6034 33.2327 40.6123 33.2238C40.5231 33.2684 40.4427 33.3131 40.3445 33.3577C41.2105 32.4646 41.523 31.2054 41.5319 31.1875L41.4337 31.1607C40.5677 33.1345 38.2464 33.4292 36.934 33.4292C36.8625 33.4292 36.8 33.4292 36.7375 33.4292C36.7375 33.4202 36.7286 33.4202 36.7286 33.4113C36.6572 33.3845 36.5858 33.3488 36.5233 33.322C36.5322 33.3577 36.55 33.3935 36.5679 33.4203C36.4072 33.4113 36.2822 33.4024 36.184 33.3935C36.1483 33.3756 36.1126 33.3399 36.0679 33.3041L36.0233 33.3309L36.0144 33.322C35.9608 33.3041 35.9876 33.2774 36.0322 33.2684C36.0144 33.2506 35.9965 33.2238 35.9876 33.2059C35.9072 33.2416 35.8804 33.1077 35.7822 33.1345C35.7733 33.0809 35.5769 32.9469 35.6126 32.8576C35.6037 32.8665 35.5858 32.8576 35.6126 32.8755C35.559 32.8397 35.5055 32.8129 35.4876 32.7594L35.4251 32.7861C35.4073 32.7326 35.3983 32.6879 35.3894 32.6343C35.309 32.6075 35.2644 32.5986 35.2823 32.679C35.2019 32.4914 35.193 32.545 35.1394 32.3842L35.1126 32.411C35.0769 32.3664 35.0591 32.2681 35.0144 32.2592C34.943 32.2324 34.8359 32.1074 34.7376 31.9466C34.6305 31.7948 34.5323 31.6072 34.4252 31.4733C34.568 31.4911 34.3091 31.3482 34.3984 31.3036C34.3627 31.2947 34.3269 31.2589 34.3269 31.3125C34.2912 31.1428 34.193 31.0803 34.2377 30.9463C34.202 30.9374 34.2109 30.991 34.1841 30.9821C34.1841 30.9642 34.193 30.9196 34.1752 30.9106C34.1573 30.9017 34.1573 30.9374 34.1573 30.9731C34.1127 30.8034 34.202 30.7677 34.2734 30.7409C34.2109 30.6606 34.2109 30.6159 34.2555 30.5534C34.2198 30.5266 34.1841 30.4819 34.193 30.5891L34.1841 30.5623C34.1573 30.4819 34.1127 30.2765 34.1484 30.2319L34.1662 30.2229C34.1484 30.2051 34.1573 30.1426 34.1573 30.1247C34.1484 29.9907 34.1395 29.9818 34.1395 29.8478L34.1484 29.8835C34.2287 29.83 34.1662 29.7764 34.1752 29.6692H34.1662C34.1216 29.4281 34.193 29.571 34.1573 29.3298L34.202 29.3477C34.3091 29.3388 34.1662 29.1333 34.2377 28.9994L34.2555 29.053C34.3091 28.9904 34.1573 28.8208 34.1662 28.7404C34.1573 28.7225 34.1395 28.7582 34.1305 28.785C34.1305 28.5707 34.202 28.7761 34.2555 28.6332C34.2287 28.5975 34.1573 28.6421 34.1841 28.5439C34.1752 28.4814 34.3894 28.2938 34.3894 28.1509C34.3984 28.1866 34.4162 28.2224 34.4609 28.1688C34.5144 28.0795 34.4966 27.8651 34.6305 27.8205C34.6305 27.8026 34.6216 27.7937 34.6216 27.7937C34.6841 27.7312 34.8001 27.5883 34.8626 27.5704C34.8091 27.499 34.9073 27.4007 35.0055 27.3203C35.0948 27.24 35.193 27.1774 35.1305 27.1239C35.193 27.0613 35.2555 26.9988 35.318 26.9452L35.3001 26.9363C35.4073 26.8113 35.4876 26.8023 35.5501 26.7934C35.5769 26.7577 35.5412 26.7755 35.5322 26.7666C35.6929 26.588 35.7287 26.5791 35.934 26.5255L35.9251 26.4719C35.9876 26.463 36.1751 26.2129 36.4251 26.1593C36.4251 26.1593 36.4072 26.1504 36.3893 26.1504C36.5233 26.1146 36.6572 26.0164 36.7911 25.9539C36.9161 25.8914 37.0322 25.8467 37.1125 25.9182C37.175 25.9092 37.2375 25.9092 37.3 25.9092C37.0857 25.9807 37.3536 25.9718 37.2732 26.0253C37.3625 26.0075 37.4786 25.9182 37.3714 25.936L37.3536 25.9449C37.2911 25.8646 37.6214 25.8467 37.6036 25.7931C38.05 25.7127 38.5053 25.6502 38.9428 25.686L38.7731 25.7127ZM53.5581 31.3661C53.5134 31.4465 53.4777 31.5358 53.4956 31.6251L53.5402 31.643C53.5491 31.6876 53.5491 31.7323 53.5581 31.7769C53.5759 31.7323 53.6116 31.6519 53.6384 31.5626C53.6027 31.5001 53.5759 31.4286 53.5581 31.3661ZM45.5049 13.8434C44.3621 14.7186 43.9604 16.3173 43.9514 16.3351L44.0496 16.3619C44.9157 14.3882 47.237 14.0934 48.5494 14.0934C48.603 14.0934 48.6655 14.0934 48.719 14.0934C48.7815 14.1202 48.844 14.147 48.9065 14.1738C48.8976 14.156 48.8976 14.1381 48.8708 14.1113C48.8351 14.1024 48.8619 14.1292 48.853 14.147C48.8351 14.1202 48.7994 14.0577 48.8708 14.0845L48.8797 14.1024C48.9244 14.1292 48.9869 14.1381 49.0226 14.1381H49.0315L49.0137 14.147C48.9958 14.156 48.978 14.1649 48.9601 14.1649H48.9244C49.3797 14.3882 49.7904 14.6829 50.1386 15.0401C50.1297 15.0312 50.1208 15.0223 50.1118 15.0133L50.1297 15.0044C50.1654 15.0491 50.1833 15.0848 50.1386 15.0491C50.1743 15.0848 50.21 15.1205 50.2457 15.1562C50.21 15.0759 50.3529 15.0312 50.4689 15.0491C50.46 15.0669 50.4422 15.0759 50.4868 15.1652C50.4511 15.1473 50.3082 15.0312 50.335 15.1205C50.3975 15.2277 50.4154 15.192 50.4689 15.2277C50.4065 15.2187 50.4779 15.3527 50.4422 15.3974C50.5136 15.4956 50.585 15.5939 50.6475 15.6921L50.6922 15.7546C50.6832 15.7457 50.6832 15.7457 50.6743 15.7368C50.7368 15.835 50.7904 15.9332 50.8439 16.0404C50.8439 16.0315 50.8529 16.0225 50.8707 16.0315L50.8886 16.094C50.96 16.1386 50.8886 15.9511 50.9421 16.0225C50.9332 15.9243 50.9243 15.8082 50.835 15.701L50.7725 15.71C50.7904 15.701 50.8439 15.7725 50.8529 15.8082C50.8439 15.7457 50.6743 15.6742 50.71 15.5849L50.7993 15.6385C50.7725 15.5403 50.7636 15.4063 50.6743 15.317C50.7636 15.3259 50.6832 15.3438 50.7993 15.3795C50.6832 15.3617 50.9689 15.6385 50.8261 15.5849C50.9511 15.6207 50.9332 15.701 51.0582 15.7725C51.0403 15.7814 51.0046 15.7546 51.0582 15.8439C51.0493 15.8529 51.0493 15.8618 51.0493 15.8707V15.8797C51.0493 15.8797 51.0493 15.8886 51.0493 15.8797C51.0314 15.8529 51.0136 15.8439 50.9957 15.8439C50.9779 15.9064 51.0493 16.0493 51.0493 16.1119C51.0761 16.1654 51.0582 16.0761 51.0939 16.1029C51.0939 16.1297 51.0939 16.1565 51.0939 16.1922C51.1386 16.1833 51.2278 16.3173 51.2011 16.1744C51.2189 16.2101 51.2368 16.2548 51.2546 16.2905C51.3082 16.353 51.3528 16.4512 51.3528 16.5138C51.3796 16.5673 51.3439 16.6745 51.3618 16.612C51.3707 16.6834 51.3796 16.746 51.3885 16.8174H51.3975C51.451 17.0139 51.3975 17.2193 51.4957 17.4426C51.4868 17.514 51.4778 17.5766 51.4868 17.6927L51.5314 17.7105C51.5225 17.7909 51.5582 17.9695 51.5135 18.0052C51.5671 18.0588 51.5671 18.166 51.5403 18.2732C51.5135 18.3803 51.4778 18.4964 51.4689 18.5768H51.4153C51.3975 18.6751 51.3528 18.7733 51.2993 18.8894L51.2546 18.8715C51.1921 18.9609 51.2011 19.1484 51.1207 19.3092C51.1475 19.3002 51.1564 19.2645 51.1564 19.2288V19.2824C51.1475 19.3538 51.1118 19.4164 51.0671 19.4789L51.0314 19.5235C50.96 19.6128 50.8886 19.6843 50.8707 19.7914C50.8261 19.8272 50.8172 19.854 50.8082 19.8897L50.8171 19.8808C50.8171 19.8897 50.8082 19.8897 50.8082 19.8986C50.7993 19.9165 50.7993 19.9433 50.7904 19.9701C50.7904 19.9433 50.7904 19.9254 50.7993 19.9076C50.7814 19.9343 50.7368 19.979 50.7011 20.0147L50.7279 20.0594L50.7189 20.0683C50.7011 20.1219 50.6743 20.0951 50.6564 20.0505C50.6297 20.0683 50.6118 20.0862 50.585 20.0862C50.6207 20.1666 50.4779 20.1844 50.5047 20.2737C50.4511 20.2827 50.2993 20.4613 50.21 20.4256H50.2279L50.2011 20.4613C50.1832 20.4881 50.1654 20.5059 50.1386 20.5238L50.1029 20.5417L50.1297 20.6042C50.0761 20.6131 50.0225 20.622 49.969 20.631C49.9333 20.7113 49.9243 20.7471 50.0225 20.7292C49.8261 20.8007 49.8797 20.8096 49.7011 20.8632L49.7369 20.89C49.6922 20.9257 49.5761 20.9346 49.5672 20.9793C49.5404 21.0507 49.3976 21.14 49.2369 21.2383C49.0672 21.3365 48.8708 21.4258 48.728 21.5241C48.7458 21.399 48.5941 21.6312 48.5494 21.5509C48.5405 21.5866 48.5048 21.6134 48.5583 21.6134C48.3798 21.6491 48.3084 21.7384 48.1744 21.6938C48.1655 21.7206 48.2191 21.7206 48.2101 21.7384C48.1923 21.7384 48.1476 21.7295 48.1298 21.7474C48.1209 21.7563 48.1387 21.7652 48.1566 21.7652H48.1923C48.0048 21.8099 47.9691 21.7295 47.9423 21.6581C47.8619 21.7116 47.8173 21.7116 47.737 21.6759C47.7102 21.7027 47.6655 21.7384 47.7727 21.7295C47.7102 21.7473 47.3888 21.8188 47.3798 21.7563C47.362 21.7742 47.2905 21.7652 47.2727 21.7652C47.1298 21.7741 47.1209 21.7831 46.9781 21.7741L47.0138 21.7652C46.9602 21.6848 46.8977 21.7473 46.7906 21.7295V21.7384C46.5317 21.7742 46.6834 21.7116 46.4245 21.7474L46.4424 21.7027C46.4335 21.6045 46.2102 21.7295 46.0763 21.667L46.1299 21.6491C46.0674 21.6045 45.8799 21.7384 45.7996 21.7295C45.7817 21.7295 45.7996 21.7384 45.8085 21.7474L45.8442 21.7652C45.621 21.7652 45.8353 21.7027 45.6835 21.6402C45.6478 21.667 45.6924 21.7295 45.5853 21.7027C45.5228 21.7116 45.3264 21.4973 45.1746 21.4973C45.2192 21.4884 45.2549 21.4794 45.2014 21.4258C45.1032 21.3722 44.88 21.3812 44.8353 21.2651C44.8175 21.2651 44.8085 21.2651 44.8085 21.274C44.746 21.2204 44.5853 21.1043 44.5764 21.0418C44.4961 21.0865 44.3978 20.9971 44.3175 20.9078C44.2371 20.8185 44.1657 20.7292 44.1121 20.7917C44.0496 20.7292 43.9871 20.6756 43.9247 20.6131L43.9157 20.631C43.7907 20.5238 43.7729 20.4523 43.764 20.3898C43.7282 20.372 43.7372 20.3988 43.7372 20.4077C43.5497 20.2559 43.5408 20.2201 43.4872 20.0237L43.4336 20.0326C43.4247 19.979 43.1658 19.7915 43.1033 19.5592C43.1033 19.5592 43.0943 19.5682 43.0943 19.595C43.0586 19.4699 42.9604 19.336 42.889 19.2199C42.8176 19.1038 42.7819 18.9877 42.8533 18.9162C42.8444 18.8537 42.8444 18.8001 42.8444 18.7465C42.9158 18.9519 42.9158 18.6929 42.9693 18.7733C42.9604 18.6929 42.8622 18.5768 42.8801 18.6751L42.889 18.684C42.7997 18.7465 42.7908 18.4339 42.7283 18.4518C42.6479 18.0231 42.5854 17.6033 42.639 17.1925L42.7104 17.2461C42.7104 17.2014 42.7194 17.1479 42.7283 17.1032C42.7194 17.0675 42.6747 17.0407 42.6658 17.1479C42.6301 17.0853 42.7283 16.9871 42.7461 16.9871C42.7551 16.7906 42.639 17.0496 42.6569 16.9871L42.6747 16.9067L42.6836 16.9246C42.7283 16.8621 42.764 16.8621 42.7908 16.746C42.7908 16.6656 42.7551 16.6924 42.764 16.6656C42.7551 16.6656 42.7551 16.6567 42.7729 16.6209C42.7819 16.5584 42.7997 16.5048 42.8176 16.4512L42.8533 16.5316C42.9068 16.4602 42.9069 16.3709 42.9426 16.4691C42.9158 16.3976 42.9604 16.2369 43.0318 16.0851C43.0943 15.9422 43.1836 15.8082 43.1836 15.7635C43.2729 15.6832 43.3354 15.5938 43.4068 15.4777C43.3979 15.5135 43.4425 15.5581 43.505 15.4599C43.3622 15.4242 43.5854 15.2545 43.5675 15.1294V15.1473C43.5765 15.1652 43.6122 15.1294 43.6568 15.0848L43.6747 15.0669C43.7282 15.0133 43.7907 14.9687 43.7818 15.0491C43.8354 14.9687 43.7461 15.0133 43.7729 14.933C43.9782 14.799 44.13 14.54 44.3889 14.3792C44.4068 14.3882 44.38 14.4417 44.4514 14.4239C44.4782 14.3703 44.505 14.3167 44.5318 14.2631C44.5853 14.2363 44.6389 14.3167 44.6925 14.2095C44.6925 14.2274 44.6835 14.2631 44.7192 14.2453C44.9514 14.0577 45.2371 13.9416 45.5228 13.8523C45.4871 13.8523 45.496 13.8434 45.5049 13.8434ZM30.6754 13.4057C30.6754 13.4236 30.6754 13.4415 30.7736 13.4683C30.7379 13.4861 30.5504 13.4951 30.6307 13.5397C30.6843 13.5486 30.7111 13.5576 30.7289 13.5486V13.5397L30.7379 13.5486C30.7468 13.5486 30.7468 13.5486 30.7557 13.5397V13.5308C30.7646 13.5308 30.7825 13.5218 30.8003 13.5129C30.7468 13.5486 30.9075 13.5933 30.9164 13.6469C31.0414 13.6648 31.1664 13.6826 31.2825 13.7183L31.3539 13.7362C31.345 13.7362 31.336 13.7362 31.336 13.7362C31.4521 13.763 31.5682 13.7987 31.6842 13.8344L31.5503 13.7898L31.5414 13.7808C31.5146 13.7808 31.5324 13.7451 31.5235 13.7362H31.5146C31.5057 13.6915 31.5949 13.7808 31.5949 13.8076L31.6842 13.8344C31.6753 13.8255 31.6753 13.8166 31.6932 13.8076L31.7557 13.8344C31.836 13.8166 31.6485 13.7362 31.7378 13.7451C31.6574 13.6826 31.5592 13.6112 31.4164 13.5933L31.3717 13.6469C31.3807 13.629 31.47 13.6379 31.5057 13.6647C31.461 13.6201 31.2825 13.6915 31.2378 13.6022L31.345 13.5844C31.2557 13.5308 31.1485 13.4415 31.0146 13.4415C31.0861 13.3968 31.0414 13.4504 31.1485 13.3968C31.0503 13.4683 31.47 13.4593 31.3271 13.5219C31.4342 13.4683 31.4878 13.5219 31.6307 13.4951C31.6217 13.5129 31.5771 13.5218 31.6842 13.5397C31.6842 13.5486 31.6932 13.5576 31.7021 13.5665H31.711H31.7021C31.7021 13.5754 31.7021 13.5754 31.7021 13.5665C31.6753 13.5665 31.6485 13.5754 31.6396 13.5754C31.6753 13.638 31.836 13.6826 31.8807 13.7273C31.9432 13.7362 31.8628 13.7005 31.9074 13.6915C31.9253 13.7094 31.9521 13.7362 31.9699 13.7541C31.9967 13.7183 32.1574 13.7541 32.0235 13.6737C32.0681 13.6915 32.1039 13.7094 32.1485 13.7273C32.2289 13.7362 32.336 13.7719 32.3895 13.8166C32.452 13.8344 32.5056 13.9327 32.4788 13.8791L32.5681 13.9416L32.6485 14.0041L32.6574 13.9952C32.8449 14.0934 32.9699 14.281 33.202 14.3614C33.2467 14.4149 33.2913 14.4685 33.3895 14.54L33.4341 14.5311C33.4877 14.6025 33.6573 14.6918 33.6484 14.7454C33.7198 14.7454 33.8002 14.8258 33.8716 14.9151C33.943 15.0044 34.0055 15.1116 34.0591 15.1741L34.0145 15.2098C34.077 15.2902 34.1216 15.3884 34.1752 15.5045L34.1305 15.5135C34.1573 15.6296 34.3002 15.7457 34.3716 15.9064C34.3805 15.8886 34.3627 15.8529 34.3359 15.8261C34.4341 15.8975 34.4609 16.0136 34.4787 16.1208C34.4966 16.228 34.5055 16.3351 34.568 16.4155C34.568 16.4691 34.5769 16.4959 34.6037 16.5227C34.6037 16.5138 34.6037 16.5138 34.6037 16.5138C34.6037 16.5138 34.6037 16.5227 34.6126 16.5316C34.6305 16.5495 34.6394 16.5673 34.6573 16.5941L34.6394 16.5673L34.6216 16.5405C34.6305 16.5763 34.6394 16.6299 34.6394 16.6834L34.693 16.6924V16.7013C34.7198 16.746 34.6751 16.746 34.6394 16.7281C34.6394 16.7549 34.6305 16.7817 34.6216 16.7996C34.7109 16.8263 34.6216 16.9424 34.7109 16.9871C34.6751 17.0228 34.7109 17.255 34.6216 17.2908L34.6394 17.2818L34.6484 17.3265C34.6573 17.3533 34.6573 17.3801 34.6573 17.4158L34.6484 17.4604L34.7109 17.4872C34.6841 17.5319 34.6573 17.5766 34.6216 17.6123C34.6573 17.6927 34.6752 17.7284 34.7287 17.648C34.6484 17.8356 34.693 17.7998 34.6037 17.9517H34.6484C34.6394 18.0052 34.5769 18.0945 34.6037 18.1303C34.6305 18.2017 34.6126 18.3536 34.568 18.5322C34.5234 18.7108 34.4609 18.9073 34.4252 19.077C34.3359 18.9787 34.4162 19.2377 34.318 19.2199C34.3359 19.2467 34.327 19.2913 34.3805 19.2556C34.2823 19.3985 34.3002 19.5057 34.1752 19.5771C34.193 19.6039 34.2287 19.5592 34.2377 19.586C34.2287 19.595 34.1841 19.6218 34.193 19.6486C34.202 19.6754 34.2287 19.6396 34.2555 19.6218C34.1573 19.7736 34.068 19.7468 33.9966 19.7111C33.9788 19.8004 33.952 19.8361 33.8716 19.854C33.8805 19.8897 33.8716 19.9522 33.943 19.8718C33.9163 19.9254 33.7466 20.1844 33.6841 20.1487C33.6841 20.1755 33.6306 20.2201 33.6127 20.2201C33.5234 20.3184 33.5145 20.3362 33.4163 20.4256L33.4341 20.3988C33.3538 20.3898 33.3449 20.4434 33.2824 20.497L33.2467 20.5238L33.2556 20.5327C33.1038 20.7381 33.1574 20.5863 33.0056 20.7828L32.9877 20.7382C32.9074 20.6756 32.8538 20.9168 32.702 20.9614L32.7288 20.9078C32.6395 20.9168 32.6217 21.1401 32.5503 21.1847C32.5413 21.2026 32.586 21.1847 32.6128 21.1758C32.452 21.3276 32.5592 21.14 32.4074 21.1936C32.3985 21.2383 32.4878 21.2472 32.3895 21.3008C32.3538 21.3544 32.0592 21.3365 31.9431 21.4437C31.961 21.408 31.9789 21.3722 31.9074 21.3812C31.8717 21.3901 31.8181 21.4258 31.7735 21.4526L31.8807 21.3722C32.952 20.5149 33.3538 19.0323 33.3806 18.9251V18.9162L33.2824 18.8894C32.4253 20.8632 30.095 21.1579 28.7826 21.1579C28.5773 21.1579 28.3987 21.149 28.2558 21.14C28.238 21.1222 28.2201 21.1133 28.2023 21.0954C28.4165 21.1847 28.2112 21.015 28.3094 21.0329C28.238 20.9882 28.0773 20.9703 28.1755 21.0329H28.1933C28.1755 21.1311 27.9344 20.9257 27.8987 20.9704C27.5237 20.7292 27.1488 20.4702 26.872 20.1576L26.9613 20.1487C26.9255 20.113 26.8988 20.0772 26.8631 20.0415C26.8273 20.0237 26.7827 20.0326 26.8541 20.113C26.7827 20.0951 26.7738 19.9611 26.7827 19.9433C26.6309 19.8004 26.7559 20.0505 26.7202 20.0058L26.6756 19.9343L26.6934 19.9433C26.6756 19.8718 26.7024 19.854 26.6309 19.7468C26.5774 19.6932 26.5684 19.7379 26.5506 19.7111C26.5416 19.7111 26.5416 19.7021 26.5238 19.6754C26.4881 19.6218 26.4524 19.5771 26.4256 19.5235L26.5149 19.5592C26.497 19.4789 26.4256 19.4164 26.5238 19.4521C26.4524 19.4253 26.3542 19.2824 26.2917 19.1306C26.2292 18.9877 26.1845 18.8358 26.1577 18.8001C26.1667 18.684 26.1309 18.5768 26.0952 18.4518C26.1131 18.4786 26.1845 18.4875 26.1488 18.3803C26.0238 18.4429 26.0506 18.1839 25.9345 18.1035L25.9435 18.1124C25.9613 18.1213 25.9613 18.0678 25.9613 18.0142V17.9606C25.9613 17.8981 25.9702 17.8445 26.0149 17.8981C25.997 17.7998 25.9613 17.8981 25.9256 17.8266C25.9613 17.5944 25.881 17.3086 25.9345 17.0228C25.9524 17.0228 25.9702 17.0675 26.006 17.0139C25.9792 16.9603 25.9613 16.9067 25.9435 16.8531C25.9613 16.7995 26.0595 16.8174 26.0149 16.7102C26.0238 16.7281 26.0417 16.7549 26.0595 16.7192C26.0774 16.4334 26.1845 16.1654 26.3184 15.9064C26.4524 15.6474 26.5952 15.3974 26.7113 15.1205L26.7024 15.1473C26.6934 15.183 26.7202 15.1652 26.747 15.1294L26.7648 15.1116C26.747 15.1473 26.8006 15.1384 26.8184 15.1562C26.8452 15.0848 26.8809 15.0044 26.9166 14.933C26.997 14.9419 27.1041 14.7454 27.1666 14.7633L27.1041 14.8079C27.1755 14.7901 27.1755 14.8615 27.1755 14.933C27.2291 14.8794 27.2827 14.8169 27.3363 14.7633C27.3988 14.7097 27.4612 14.6561 27.5237 14.6025C27.5059 14.6025 27.497 14.5846 27.497 14.5846C27.5327 14.5578 27.5416 14.5757 27.5505 14.5846C28.0237 14.1917 28.5683 13.9237 29.1487 13.763H29.1397H29.1487C29.3272 13.7183 29.4969 13.6826 29.6754 13.6558L29.6218 13.6379C29.6397 13.6469 29.6576 13.6558 29.6843 13.6558C29.7825 13.638 29.8808 13.629 29.9879 13.6201C29.9879 13.5933 30.0593 13.5665 30.0057 13.5576C30.0861 13.5576 30.1665 13.5844 30.229 13.6112C30.1754 13.6022 30.1307 13.6022 30.0683 13.6201C30.1218 13.6201 30.1754 13.6112 30.2379 13.6112L30.2647 13.6022C30.2915 13.5754 30.3361 13.5397 30.345 13.5665C30.3182 13.5844 30.2825 13.6022 30.2468 13.6201L30.2915 13.6022C30.3361 13.5933 30.3807 13.5754 30.4164 13.5576L30.4075 13.5665L30.5325 13.5844C30.5504 13.5844 30.5771 13.5933 30.595 13.5933C30.5414 13.5576 30.6039 13.4593 30.6754 13.4057ZM51.0046 19.2913C50.9511 19.3092 50.8707 19.3538 50.7814 19.3896C50.7457 19.4521 50.7189 19.5146 50.6832 19.5771C50.7725 19.5503 50.8618 19.5146 50.9243 19.4431L50.9064 19.3985C50.9421 19.3717 50.9779 19.336 51.0046 19.2913ZM51.1564 16.4155C51.0671 16.3441 51.0493 16.4423 51.0046 16.4334C51.0225 16.5495 51.0939 16.6031 51.1207 16.6834C51.1029 16.6566 51.085 16.6209 51.0671 16.5941C51.0582 16.6388 51.0671 16.7192 51.0939 16.7549C51.085 16.746 51.0671 16.7192 51.0582 16.6924L51.1028 16.8799C51.1207 16.9424 51.1296 17.0139 51.1386 17.0764L51.1653 17.2729C51.2189 17.2104 51.2546 17.1121 51.2546 16.9782C51.2457 16.8263 51.1832 16.9246 51.1921 16.8978C51.1564 16.7638 51.1743 16.6924 51.1921 16.6299C51.21 16.5673 51.2278 16.5227 51.1564 16.4155ZM34.3002 15.9779C34.2823 16.0226 34.2466 16.1029 34.2198 16.1922C34.2466 16.2637 34.2734 16.3262 34.2912 16.3977C34.3359 16.3173 34.3716 16.228 34.3537 16.1386L34.3091 16.1208C34.3091 16.0672 34.3002 16.0226 34.3002 15.9779ZM32.2021 13.8702C32.086 13.8791 32.1485 13.9595 32.1128 13.9863C32.2199 14.0577 32.3092 14.0398 32.3806 14.0845C32.3449 14.0756 32.3092 14.0666 32.2735 14.0577C32.3003 14.0934 32.3717 14.1381 32.4163 14.147C32.3985 14.147 32.3628 14.1381 32.3271 14.1202C32.5145 14.2185 32.6931 14.3346 32.8627 14.4596C32.8538 14.3882 32.8002 14.2899 32.702 14.1917C32.577 14.0934 32.6128 14.2006 32.5949 14.1738C32.461 14.1024 32.4253 14.0488 32.3895 13.9863C32.3717 13.9416 32.336 13.888 32.2021 13.8702ZM37.2822 1.03622C37.2107 1.08981 37.1393 1.1434 37.0768 1.19699C37.0411 1.19699 37.0143 1.20591 36.9786 1.20591C36.9964 1.21484 37.0143 1.21485 37.0322 1.22378C35.9876 2.11689 35.6126 3.59944 35.6126 3.6173L35.7108 3.64409C36.5679 1.67033 38.8981 1.37561 40.2106 1.37561C40.5409 1.37561 40.8087 1.39346 40.9695 1.41132C40.9784 1.45598 40.9605 1.49171 40.9427 1.52743C41.0409 1.54529 41.0766 1.57209 41.1034 1.65247C41.1391 1.64354 41.2016 1.65247 41.1123 1.58102C41.1659 1.60781 41.4516 1.76857 41.4159 1.82216C41.4426 1.82216 41.4873 1.87575 41.4962 1.88468C41.6033 1.97399 41.6212 1.97399 41.7105 2.07223L41.6748 2.05436C41.6569 2.14367 41.7462 2.14367 41.8176 2.22405V2.21513C42.0319 2.35803 41.8712 2.30443 42.0855 2.44733L42.0319 2.4652C41.9694 2.54558 42.2194 2.59023 42.273 2.73313L42.2194 2.70634C42.2283 2.78672 42.4605 2.80458 42.514 2.87603C42.5319 2.88496 42.514 2.8403 42.5051 2.82243C42.6658 2.96533 42.4694 2.87603 42.5319 3.00999C42.5765 3.01892 42.5944 2.93855 42.6479 3.02786C42.7015 3.06358 42.6837 3.34045 42.7997 3.44762C42.764 3.42976 42.7283 3.41189 42.7372 3.48334C42.7729 3.58158 42.9426 3.72447 42.8801 3.84057C42.889 3.8495 42.8979 3.85844 42.9068 3.84951C42.9158 3.92989 42.9426 4.11745 42.9068 4.17103C42.9961 4.18889 43.0051 4.32286 42.9961 4.43897C42.9872 4.55507 42.9693 4.66223 43.0497 4.6533C43.0497 4.73368 43.0497 4.82299 43.0497 4.90337L43.0676 4.89445C43.0765 5.05521 43.0408 5.10879 42.9961 5.16238C43.0051 5.1981 43.0229 5.17131 43.0318 5.17131C43.0408 5.40351 43.0318 5.43031 42.9247 5.60893L42.9693 5.63573C42.9336 5.68038 42.9783 5.98403 42.8444 6.18945C42.8533 6.18945 42.8622 6.18944 42.8711 6.17158C42.7997 6.28768 42.7819 6.43952 42.7461 6.57349C42.7104 6.70746 42.6569 6.81462 42.5497 6.81462C42.5051 6.85927 42.4694 6.90393 42.4247 6.93965C42.5229 6.74317 42.3355 6.93072 42.3533 6.84141C42.2997 6.90393 42.2819 7.05576 42.3533 6.96644V6.94859C42.4604 6.96645 42.2373 7.18973 42.2908 7.22545C42.0319 7.5827 41.7641 7.92208 41.4248 8.19001L41.4159 8.10069C41.3801 8.12749 41.3444 8.16322 41.2998 8.19001C41.2819 8.22573 41.2909 8.26145 41.3712 8.19894C41.3534 8.26145 41.2016 8.27039 41.1927 8.26146C41.0409 8.39543 41.3087 8.28825 41.2552 8.31504L41.1837 8.3597L41.1927 8.34184C41.1123 8.35077 41.0944 8.3329 40.9873 8.40435C40.9248 8.45793 40.9784 8.45794 40.9516 8.48474C40.9516 8.48474 40.9516 8.49367 40.907 8.51153C40.8534 8.54725 40.7998 8.57404 40.7373 8.60083L40.782 8.52045C40.6927 8.53832 40.6302 8.60084 40.6748 8.51153C40.6391 8.58298 40.4873 8.66335 40.3356 8.72587C40.1749 8.78838 40.0231 8.83304 39.9874 8.8509C39.8624 8.84197 39.7552 8.8777 39.6124 8.91342C39.6481 8.89556 39.6481 8.83305 39.532 8.85984C39.6035 8.97594 39.3267 8.95808 39.2374 9.05632C39.282 9.0206 39.1928 9.02953 39.1124 9.02953H39.0856C39.0142 9.02953 38.9696 9.02059 39.0231 8.97593C38.916 8.9938 39.0231 9.02953 38.9428 9.06525C38.6928 9.02953 38.3982 9.10991 38.0946 9.05632C38.0946 9.03846 38.1482 9.0206 38.0857 8.98487C38.0321 9.00274 37.9696 9.02952 37.916 9.04738C37.8535 9.02952 37.8803 8.94021 37.7553 8.97593C37.7732 8.967 37.8 8.94915 37.7643 8.93129C37.4607 8.91343 37.175 8.80625 36.8982 8.69015C36.6215 8.56511 36.3626 8.43114 36.059 8.32397C36.1483 8.34183 36.1036 8.31504 36.0501 8.27039C36.0858 8.28825 36.0769 8.23466 36.0947 8.22573C36.0144 8.19893 35.934 8.16321 35.8537 8.12749C35.8626 8.04711 35.6483 7.9578 35.6751 7.89528L35.7287 7.95779C35.7108 7.88634 35.7822 7.88634 35.8626 7.88634C35.8001 7.83276 35.7376 7.7881 35.684 7.73452C35.4251 7.49338 35.2019 7.21652 35.0233 6.93073C35.0501 7.00218 35.0591 7.10935 35.1037 7.17187L35.1215 7.1808L35.1037 7.27011C35.0591 7.13615 35.0144 6.93966 34.9698 6.85035C34.9698 6.85035 34.9698 6.85035 34.9787 6.85035C34.9162 6.75211 34.8626 6.65386 34.818 6.54668C34.8091 6.57348 34.7912 6.52883 34.7644 6.41272L34.7733 6.43952C34.693 6.25196 34.6305 6.06441 34.5769 5.86793C34.4609 5.41244 34.4341 4.9391 34.4877 4.47469C34.4609 4.51041 34.443 4.57292 34.4698 4.63544C34.4341 4.72475 34.3002 4.65331 34.2377 4.57293C34.2555 4.57293 34.2734 4.57292 34.3091 4.48361C34.327 4.51934 34.3359 4.69797 34.3805 4.61759C34.4162 4.49255 34.3805 4.51934 34.3627 4.45682C34.4073 4.51041 34.4519 4.35858 34.5144 4.34965C34.5323 4.23355 34.5591 4.11744 34.5859 4.00134L34.6037 3.93882V3.94776V3.95668C34.6305 3.84058 34.6662 3.73341 34.7109 3.62624C34.7019 3.63517 34.693 3.63516 34.6841 3.6173L34.7198 3.55479C34.7019 3.48334 34.6126 3.65302 34.6216 3.56371C34.5591 3.64409 34.4787 3.72447 34.4609 3.85844L34.5144 3.9031C34.4966 3.89417 34.5055 3.81379 34.5323 3.77806C34.4877 3.82272 34.5591 3.99241 34.4609 4.02813L34.443 3.92989C34.3894 4.01027 34.2912 4.11745 34.2912 4.24248C34.2377 4.17997 34.3002 4.21569 34.2466 4.11745C34.318 4.20676 34.318 3.81379 34.3805 3.94776C34.318 3.84058 34.3894 3.79592 34.3537 3.66196C34.3716 3.67089 34.3805 3.71554 34.3984 3.60837C34.4073 3.60837 34.4162 3.59944 34.4252 3.59051C34.4341 3.59051 34.4252 3.59051 34.4252 3.59051C34.4252 3.6173 34.4341 3.63516 34.443 3.64409C34.5055 3.60837 34.5591 3.46547 34.6037 3.42081C34.6127 3.36723 34.568 3.43868 34.5591 3.39402C34.5769 3.37616 34.6037 3.3583 34.6216 3.33151C34.5769 3.30472 34.6127 3.15289 34.5323 3.27793C34.5502 3.2422 34.568 3.19754 34.5859 3.16182C34.5948 3.08144 34.6394 2.9832 34.6841 2.93854C34.7019 2.87602 34.8091 2.83137 34.7466 2.85817C34.7912 2.80458 34.8359 2.75099 34.8805 2.6974L34.8716 2.68847C34.9787 2.51878 35.1751 2.39374 35.2644 2.1794C35.318 2.13474 35.3805 2.0901 35.4519 2.00972L35.443 1.96506C35.5144 1.91147 35.6126 1.75965 35.6662 1.75965C35.6662 1.6882 35.7465 1.61675 35.8447 1.5453C35.9429 1.48278 36.0501 1.42026 36.1126 1.37561L36.1483 1.41132C36.2376 1.34881 36.3358 1.31309 36.4608 1.26844L36.4786 1.3131C36.5947 1.29523 36.7286 1.15234 36.8982 1.08982C36.8804 1.08089 36.8357 1.09874 36.8179 1.12554C36.8982 1.03623 37.0143 1.00944 37.1304 0.991577C37.1929 1.05409 37.2375 1.04515 37.2822 1.03622ZM35.3626 2.54557C35.2823 2.5545 35.1841 2.60809 35.0769 2.6974L35.1126 2.67061L35.1037 2.67955C35.0858 2.69741 35.068 2.7242 35.0591 2.71527C34.9876 2.80458 35.0858 2.77778 35.0591 2.79564C34.9876 2.92068 34.9251 2.95641 34.8626 2.9832C34.8091 3.01892 34.7555 3.04571 34.7287 3.17074C34.7376 3.27792 34.8269 3.21541 34.8537 3.25113C34.9251 3.15289 34.9073 3.07251 34.9608 3.00107C34.9519 3.03679 34.943 3.07251 34.9341 3.09931C34.9698 3.07251 35.0233 3.00999 35.0323 2.96533C35.0323 2.9832 35.0144 3.01892 35.0055 3.04571C35.1126 2.87602 35.2287 2.70633 35.3626 2.54557ZM37.7553 1.1702V1.42026H37.4339V1.4024V1.1702H37.7553Z" fill="#6D2158"></path>
  </symbol></defs>
                                        <use xlink:href="#svgsprite-logos-sx">
                                            <title id="title-logos-sx">Selecting will load the Six Senses website in a new browser window.</title>
                                            <desc id="desc-logos-sx">Selecting will load the Six Senses website in a new browser window.</desc>
                                        </use>
                                    </svg>