<svg xmlns:xlink="http://www.w3.org/1999/xlink" xmlns="http://www.w3.org/2000/svg" role="img" class="footer-list__item-img" width="106"  height="31" ><defs><symbol viewBox="0 0 106 31" id="svgsprite-logos-cp">
    <path d="M19.7102 25.6953C19.7102 28.7949 20.8408 29.7751 21.8457 29.7751C22.7083 29.7751 24.0063 29.1132 24.0063 25.645C24.0063 24.3633 23.8807 21.4899 21.9043 21.4899C20.5979 21.4899 19.7018 22.7633 19.7018 25.6786V25.6953H19.7102ZM17.8678 25.645C17.8678 22.1936 19.7939 20.5097 21.9462 20.5097C23.7132 20.5097 25.8403 21.6491 25.8403 25.5194C25.8403 28.9373 24.0901 30.7971 21.7871 30.7971C19.6348 30.7971 17.8594 29.1049 17.8594 25.6618V25.645H17.8678ZM27.5739 20.6354L30.0528 30.6379H31.1331L32.9001 23.3329L34.6085 30.6379H35.6888L38.1677 20.6354H36.9701L35.3455 27.7142L33.6873 20.6354H32.6237L30.907 27.7394L29.2906 20.6354H27.5739ZM40.7722 20.6354V30.6379H41.9865V23.5507L46.5757 30.6379H47.6812V20.6354H46.4668V27.731L41.8776 20.6354H40.7722ZM50.9137 20.6354V30.6379H56.2232V29.5321H52.5886V25.9801H55.9301V24.9413H52.5886V21.6909H56.1646V20.6354H50.9137ZM6.7213 21.0375L6.6459 21.004C5.89219 20.6186 5.11335 20.5097 4.43501 20.5097C1.60442 20.5097 0.088623 22.8973 0.088623 25.6953C0.088623 28.4514 1.48721 30.7971 4.20893 30.7971C5.33112 30.7971 6.13508 30.4034 6.67105 30.1269L6.74639 30.085L6.25232 29.1468L6.17693 29.1886C5.78333 29.4148 5.1971 29.7415 4.49364 29.7415C3.22908 29.7415 1.9478 28.552 1.9478 25.6618C1.9478 23.0648 3.0867 21.5653 4.58575 21.5653C5.25571 21.5653 5.81681 21.7915 6.21041 21.9758L6.29419 22.0177L6.7213 21.0375ZM11.1933 21.6658V25.2262H11.6958C12.4914 25.2262 13.8313 25.2262 13.8313 23.2994C13.8313 22.4533 13.5465 22.0595 13.178 21.8669C12.9854 21.7663 12.7593 21.7161 12.5248 21.6909C12.282 21.6658 12.0391 21.6658 11.8046 21.6658H11.1933ZM11.8968 20.6354C12.9519 20.6354 13.6386 20.6438 14.3924 21.0543C15.3219 21.5653 15.548 22.5119 15.548 23.1067C15.548 24.2209 14.9786 25.4607 13.2032 25.8964L16.4776 30.6379H14.518L11.6706 26.1477H11.1933V30.6379H9.53513V20.6354H11.8968ZM99.8043 26.3906H101.931L100.876 23.0313L99.8043 26.3906ZM101.663 20.6354L105.089 30.6379H103.305L102.241 27.3708H99.4944L98.456 30.6379H97.2082L100.6 20.6354H101.663ZM65.3179 21.6658V25.2094H66.214C67.1855 25.2094 68.2155 25.0419 68.2155 23.2659C68.2155 22.4198 67.9308 22.0344 67.5539 21.8501C67.3613 21.7496 67.1436 21.7077 66.9091 21.6826C66.6746 21.6574 66.4401 21.6658 66.214 21.6658H65.3179ZM66.3061 20.6354C67.4618 20.6354 68.2574 20.6605 68.9776 21.1297C69.8653 21.7077 69.9909 22.713 69.9909 23.2491C69.9909 24.7487 69.0111 26.2566 66.5322 26.2566H65.3095V30.6379H63.6346V20.6354H66.3061ZM72.1851 20.6354V30.6379H77.3689V29.5405H73.86V20.6354H72.1851ZM81.6148 26.3906H83.7419L82.6867 23.0313L81.6148 26.3906ZM83.4739 20.6354L86.8991 30.6379H85.1237L84.0602 27.3708H81.3133L80.2748 30.6379H79.0271L82.4187 20.6354H83.4739ZM88.8504 20.6354V21.6909H93.381L88.5573 29.7834V30.6379H95.5835V29.5321H90.5253L95.3155 21.4815V20.627H88.8504V20.6354ZM53.895 5.08711C53.3172 6.74582 50.1182 5.18765 48.4767 4.41693C47.2624 3.84728 46.425 3.37815 45.9644 3.11007L47.1619 4.64311H45.5289C45.9979 4.91119 46.827 5.38032 48.0162 5.93322C49.6659 6.70394 52.8566 8.26211 53.4345 6.6034C54.431 3.75511 60.2262 7.28197 60.7957 7.63382L61.2479 6.11753C60.6366 5.73217 54.8832 2.2472 53.895 5.08711ZM53.0744 7.81812C52.4965 9.47683 49.2975 7.91863 47.6561 7.14792C46.4417 6.57826 45.6043 6.10913 45.1353 5.84106L46.3412 7.37412H44.7082C45.1772 7.6422 46.0062 8.11131 47.1954 8.66421C48.8368 9.43492 52.0359 10.9931 52.6138 9.33441C53.6187 6.47775 59.4558 10.0381 59.9834 10.3732L60.4272 8.8569C59.8661 8.49667 54.0709 4.97821 53.0744 7.81812ZM52.2621 10.5575C51.6842 12.2162 48.4851 10.658 46.8437 9.88732C45.6294 9.31766 44.7919 8.84853 44.323 8.58046L45.5205 10.1135H43.8875C44.3565 10.3816 45.1855 10.8507 46.3747 11.4036C48.0161 12.1743 51.2152 13.7325 51.7931 12.0738C52.798 9.20037 58.6853 12.8194 59.1711 13.1126L59.6149 11.5963C59.0957 11.2612 53.2586 7.70083 52.2621 10.5575ZM52.5719 0.630371C42.9077 0.630371 35.0691 3.98969 35.0691 8.13646C35.0691 12.2832 42.9077 15.6425 52.5719 15.6425C62.2361 15.6425 70.0663 12.2832 70.0663 8.13646C70.0663 3.98969 62.2361 0.630371 52.5719 0.630371ZM52.5719 15.0058C43.9461 15.0058 36.9618 11.9314 36.9618 8.14482C36.9618 4.35828 43.9545 1.2838 52.5719 1.2838C61.1977 1.2838 68.182 4.35828 68.182 8.14482C68.182 11.9314 61.1893 15.0058 52.5719 15.0058Z" fill="#A00062"></path>
  </symbol></defs>
                                        <use xlink:href="#svgsprite-logos-cp">
                                            <title id="title-logos-cp">Selecting will reload the Crowne Plaza Hotels &amp; Resorts website in this browser window.</title>
                                            <desc id="desc-logos-cp">Selecting will reload the Crowne Plaza Hotels &amp; Resorts website in this browser window.</desc>
                                        </use>
                                    </svg>