<svg xmlns:xlink="http://www.w3.org/1999/xlink" xmlns="http://www.w3.org/2000/svg" role="img" class="footer-list__item-img" width="90"  height="60" ><defs><symbol viewBox="0 0 81 31" id="svgsprite-logos-in">
    <path d="M24.0193 9.07133V5.26584H20.3257V9.07133H18.6406V1.06873H20.3257V4.65287H24.0193L24.0278 1.07723H25.7044V9.07984H24.0193V9.07133Z" fill="#0B2265"></path>
    <path d="M42.5558 1.77533V9.07134H40.8452V1.77533H38.5898V1.06873H44.811V1.77533H42.5558Z" fill="#0B2265"></path>
    <path d="M47.7388 9.07134V1.06873H52.879V1.77533H49.5771V4.65287H52.3429V5.26584H49.5771V8.27108H52.9386V9.07134H47.7388Z" fill="#0B2265"></path>
    <path d="M56.4785 9.07134V1.06873H58.3253V8.27108H61.8997V9.07134H56.4785Z" fill="#0B2265"></path>
    <path d="M32.6403 9.2332C30.0276 9.2332 28.3936 7.60712 28.3936 5.0616C28.3936 2.51608 30.0276 0.890015 32.6403 0.890015C35.3211 0.890015 36.8956 2.48203 36.8956 5.0616C36.8956 7.57307 35.2616 9.2332 32.6403 9.2332ZM32.6403 1.3838C31.0659 1.3838 30.1637 2.64379 30.1637 5.07012C30.1637 7.43686 31.0744 8.74793 32.6403 8.74793C34.2063 8.74793 35.1339 7.44538 35.1339 5.07012C35.1339 2.7119 34.2148 1.3838 32.6403 1.3838Z" fill="#0B2265"></path>
    <path d="M18.4623 26.4644V16.674H19.6964V30.653H18.2241L9.5007 20.6412C9.37304 20.488 9.21134 20.3092 9.02411 20.0793H8.90495V30.653H7.6709V16.674H9.83262L17.8496 25.8429C17.9858 25.9962 18.156 26.1835 18.3432 26.4644H18.4623Z" fill="#0B2265"></path>
    <path d="M29.6283 30.653H24.0879V16.674H29.6283C34.5729 16.674 37.2792 18.5384 37.2792 23.374C37.2792 28.6183 33.2623 30.653 29.6283 30.653ZM29.2793 17.4827C28.5048 17.4827 26.9474 17.4827 26.9474 17.4827V29.8272C26.9474 29.8272 28.1729 29.8272 28.9048 29.8272C31.5261 29.8272 34.1558 28.4651 34.1558 23.3825C34.1643 18.9045 31.9346 17.4827 29.2793 17.4827Z" fill="#0B2265"></path>
    <path d="M3.20247 16.674H0.342773V30.653H3.20247V16.674Z" fill="#0B2265"></path>
    <path d="M44.113 16.674H41.2534V30.653H44.113V16.674Z" fill="#0B2265"></path>
    <path d="M72.9132 30.9595C68.3516 30.9595 65.5005 28.1245 65.5005 23.6719C65.5005 19.2194 68.3516 16.3844 72.9132 16.3844C77.5941 16.3844 80.343 19.1598 80.343 23.6719C80.343 28.0649 77.4919 30.9595 72.9132 30.9595ZM72.9132 17.2443C70.1643 17.2443 68.5813 19.4493 68.5813 23.6805C68.5813 27.8095 70.1643 30.0996 72.9132 30.0996C75.6621 30.0996 77.2622 27.8265 77.2622 23.6805C77.2622 19.5684 75.6536 17.2443 72.9132 17.2443Z" fill="#0B2265"></path>
    <path d="M59.0405 24.6596V29.4867C58.7937 29.6399 57.9341 30.0996 56.4277 30.1082C52.9724 30.1252 51.2362 27.5456 51.2447 23.655C51.2617 19.6962 53.8064 17.2954 56.3766 17.2784C58.1724 17.2614 59.866 17.8148 61.0234 19.3727H61.0915C61.2192 18.5299 61.5937 17.6104 61.5937 17.6104C61.5937 17.6104 59.8234 16.393 56.3681 16.393C51.5085 16.393 48.1128 19.6537 48.1128 23.6805C48.1128 28.7886 51.7724 30.968 56.4362 30.968C59.066 30.968 61.9 30.0741 61.9 30.0741V24.6681H59.0405V24.6596Z" fill="#0B2265"></path>
  </symbol></defs>
                                        <use xlink:href="#svgsprite-logos-in">
                                            <title id="title-logos-in">Selecting will reload the Hotel Indigo website in this browser window.</title>
                                            <desc id="desc-logos-in">Selecting will reload the Hotel Indigo website in this browser window.</desc>
                                        </use>
                                    </svg>