<svg xmlns="http://www.w3.org/2000/svg" viewBox="0 0 75.96 25.84"><g id="Layer_2" data-name="Layer 2"><g id="Brand_Bar" data-name="Brand Bar"><path d="M4.78,12.12v2.45H8.39v5.81a2.68,2.68,0,0,1-2.9,2.7,2.47,2.47,0,0,1-2.64-2.54V5A2.64,2.64,0,0,1,5.62,2.5,2.61,2.61,0,0,1,8.39,5V8.89h2.85V5.29A5.26,5.26,0,0,0,5.62,0,5.37,5.37,0,0,0,0,5.29V20.54a5.05,5.05,0,0,0,5.24,5.29A4.14,4.14,0,0,0,9,23.18l.49,2.32h1.72V12.11H4.78Z" style="fill:#000000"/><path d="M60.32,20.19c0,.61.1,3.19-2.43,3.19s-2.43-2.71-2.43-3.19V14.57h7.72V8.08c0-3.56-2.06-5.58-5.28-5.58s-5.28,2-5.28,5.54V20.29c0,3.37,1.77,5.55,5.28,5.55s5.28-2.41,5.28-5.55V19.5H60.33v.69ZM55.46,8c0-1.16.29-3.08,2.43-3.08S60.32,7,60.32,8v4.09H55.46Z" style="fill:#000000"/><path d="M19.26,2.5a4.91,4.91,0,0,0-5.05,5.21V8.89h2.85V7.75c0-1.82.82-2.74,2.15-2.74s2.16.87,2.16,2.74v4.11c-1.13.26-2.54.59-3.3.81a5.7,5.7,0,0,0-4,4.11,11,11,0,0,0,0,5.55,4.61,4.61,0,0,0,4.51,3.5,3.67,3.67,0,0,0,3.44-2.65l.45,2.32h1.72V7.71c0-2.8-1.56-5.21-5-5.21Zm-.51,20.58a2,2,0,0,1-1.92-1.58,8.36,8.36,0,0,1,0-4.07A4,4,0,0,1,19,14.89,18.06,18.06,0,0,1,21.36,14v6.33c0,2.05-1.22,2.83-2.62,2.74Z" style="fill:#000000"/><path d="M33.46,5.08c.82.29,1,1.19,1,2V8.9h2.85V6.69c0-3-1.41-4-3.07-4.16A3.73,3.73,0,0,0,31,3.88a9.19,9.19,0,0,0-1.21,1.77l-.11-2.87H27.28V25.52h2.85V9.34a4.53,4.53,0,0,1,1.24-3.57,2.15,2.15,0,0,1,2.1-.68Z" style="fill:#000000"/><path d="M72.11,5.08c.82.29,1,1.19,1,2V8.9H76V6.69c0-3-1.41-4-3.07-4.16a3.73,3.73,0,0,0-3.26,1.35,9.19,9.19,0,0,0-1.21,1.77l-.11-2.87H65.93V25.52h2.85V9.34A4.53,4.53,0,0,1,70,5.77a2.15,2.15,0,0,1,2.1-.68Z" style="fill:#000000"/><path d="M45.91,5.08c.82.29,1,1.19,1,2V25.51h2.85V6.68c0-3-1.41-4-3.07-4.16a3.73,3.73,0,0,0-3.26,1.35,9.19,9.19,0,0,0-1.21,1.77l-.11-2.87H39.73V25.51h2.85V9.33a4.53,4.53,0,0,1,1.24-3.57,2.15,2.15,0,0,1,2.1-.68Z" style="fill:#000000"/></g></g></svg>
