<svg xmlns:xlink="http://www.w3.org/1999/xlink" xmlns="http://www.w3.org/2000/svg" role="img" class="footer-list__item-img" width="90"  height="60" ><defs><symbol viewBox="0 0 81 25" id="svgsprite-logos-ki">
    <path d="M12.9761 0.369019V13.7068H14.6622V0.369019H12.9761Z" fill="#70737B"></path>
    <path d="M9.93986 11.994C9.62158 11.994 9.31193 11.4778 9.31193 11.4778L5.35498 6.03079L10.7657 0.360107H8.36572L1.98292 7.02898V0.360107H0.28833V13.6978H1.98292V9.55883L4.15928 7.27852L8.00439 12.562C8.00439 12.562 8.76139 13.6978 9.90547 13.6978H10.7571V11.9854H9.93986V11.994Z" fill="#70737B"></path>
    <path d="M38.2321 0.369019H33.7676V13.7068H35.4622V9.1117H38.2321C40.8472 9.1117 42.972 7.35628 42.972 4.74896C42.972 2.13304 40.8472 0.369019 38.2321 0.369019ZM38.2321 7.3993H35.4622V2.08142H38.2321C39.901 2.08142 41.2602 3.07959 41.2602 4.74896C41.2688 6.40973 39.901 7.3993 38.2321 7.3993Z" fill="#70737B"></path>
    <path d="M43.9956 0.369019V2.12443H48.2021V13.7068H49.9139V2.12443H54.1205V0.369019H43.9956Z" fill="#70737B"></path>
    <path d="M61.0106 0.205566C57.3375 0.205566 54.3525 3.27755 54.3525 7.04654C54.3525 10.8069 57.3375 13.8703 61.0106 13.8703C64.6838 13.8703 67.6688 10.8069 67.6688 7.04654C67.6688 3.27755 64.6838 0.205566 61.0106 0.205566ZM61.0106 12.1063C58.3095 12.1063 56.116 9.83456 56.116 7.04654C56.116 4.24131 58.3181 1.96959 61.0106 1.96959C63.7203 1.96959 65.9225 4.24991 65.9225 7.04654C65.9225 9.83456 63.7203 12.1063 61.0106 12.1063Z" fill="#70737B"></path>
    <path d="M78.5852 0.38623V10.5143L71.368 0.38623H69.6992V13.7068H71.3852V3.39798L78.8088 13.7068H80.2884V0.38623H78.5852Z" fill="#70737B"></path>
    <path d="M29.4496 0.377563L24.2453 7.39065L19.0325 0.377563H17.269V13.7067H18.9637V3.39793L23.7894 9.74842H24.7013L29.527 3.39793V13.7067H31.2217V0.377563H29.4496Z" fill="#70737B"></path>
    <path d="M0.296875 20.7455C0.296875 20.6852 0.348493 20.6336 0.408708 20.6336H0.812987C0.881805 20.6336 0.92482 20.6852 0.92482 20.7455V22.4493H3.15282V20.7455C3.15282 20.6852 3.20444 20.6336 3.26465 20.6336H3.66893C3.72915 20.6336 3.78076 20.6852 3.78076 20.7455V24.7812C3.78076 24.8414 3.72915 24.8931 3.66893 24.8931H3.26465C3.19583 24.8931 3.15282 24.8414 3.15282 24.7812V23.0172H0.92482V24.7812C0.92482 24.8414 0.873203 24.8931 0.812987 24.8931H0.408708C0.348493 24.8931 0.296875 24.8414 0.296875 24.7812V20.7455Z" fill="#70737B"></path>
    <path d="M7.40258 20.565C8.62409 20.565 9.59613 21.546 9.59613 22.7679C9.59613 23.9898 8.62409 24.9622 7.40258 24.9622C6.18107 24.9622 5.20898 23.9898 5.20898 22.7679C5.21759 21.546 6.18967 20.565 7.40258 20.565ZM7.40258 24.3512C8.2714 24.3512 8.98535 23.6456 8.98535 22.7679C8.98535 21.8988 8.2714 21.176 7.40258 21.176C6.53376 21.176 5.81976 21.8988 5.81976 22.7679C5.82836 23.6456 6.54236 24.3512 7.40258 24.3512Z" fill="#70737B"></path>
    <path d="M11.5487 21.2018H10.5508C10.482 21.2018 10.439 21.1501 10.439 21.0899V20.7457C10.439 20.6855 10.4906 20.6339 10.5508 20.6339H13.1745C13.2433 20.6339 13.2864 20.6855 13.2864 20.7457V21.0899C13.2864 21.1501 13.2347 21.2018 13.1745 21.2018H12.1767V24.7814C12.1767 24.8417 12.125 24.8933 12.0648 24.8933H11.6605C11.6003 24.8933 11.5487 24.8417 11.5487 24.7814V21.2018Z" fill="#70737B"></path>
    <path d="M14.499 20.7457C14.499 20.6855 14.5506 20.6339 14.6108 20.6339H17.0537C17.1225 20.6339 17.1655 20.6855 17.1655 20.7457V21.0899C17.1655 21.1501 17.1139 21.2018 17.0537 21.2018H15.1269V22.4495H16.7527C16.8129 22.4495 16.8645 22.5011 16.8645 22.5613V22.9055C16.8645 22.9744 16.8129 23.0174 16.7527 23.0174H15.1269V24.3254H17.0537C17.1225 24.3254 17.1655 24.377 17.1655 24.4372V24.7728C17.1655 24.8331 17.1139 24.8847 17.0537 24.8847H14.6108C14.542 24.8847 14.499 24.8331 14.499 24.7728V20.7457Z" fill="#70737B"></path>
    <path d="M18.6362 20.7457C18.6362 20.6855 18.6878 20.6339 18.7481 20.6339H19.1523C19.2126 20.6339 19.2642 20.6855 19.2642 20.7457V24.334H20.9158C20.9846 24.334 21.0276 24.3856 21.0276 24.4458V24.7814C21.0276 24.8417 20.976 24.8933 20.9158 24.8933H18.7481C18.6792 24.8933 18.6362 24.8417 18.6362 24.7814V20.7457Z" fill="#70737B"></path>
    <path d="M21.9486 24.2824C22.0002 24.2049 22.0518 24.1103 22.1034 24.0328C22.155 23.9554 22.241 23.9296 22.3098 23.9812C22.3442 24.0156 22.8174 24.4029 23.2819 24.4029C23.7034 24.4029 23.97 24.1447 23.97 23.8349C23.97 23.4649 23.6518 23.2412 23.0496 22.983C22.4303 22.7163 21.94 22.3979 21.94 21.6923C21.94 21.219 22.3098 20.565 23.2733 20.565C23.884 20.565 24.3399 20.8834 24.4001 20.9264C24.4517 20.9608 24.4948 21.0383 24.4345 21.1329C24.3829 21.2018 24.3313 21.2878 24.2797 21.3653C24.2281 21.4427 24.1507 21.4771 24.0647 21.4255C24.0217 21.3997 23.5915 21.1243 23.2389 21.1243C22.7227 21.1243 22.5507 21.4513 22.5507 21.6751C22.5507 22.0193 22.8173 22.2344 23.3249 22.4409C24.0302 22.7249 24.6324 23.0605 24.6324 23.8091C24.6324 24.4459 24.0646 24.9622 23.2733 24.9622C22.5249 24.9622 22.0604 24.575 21.9658 24.4803C21.9314 24.4287 21.8884 24.3856 21.9486 24.2824Z" fill="#70737B"></path>
    <path d="M28.6753 22.6044V22.5958L28.5377 22.4409C28.2968 22.1913 28.1076 21.9246 28.1162 21.5546C28.1162 21.0899 28.486 20.565 29.2344 20.565C29.9054 20.565 30.3269 21.0039 30.3269 21.5374C30.3269 22.1225 29.742 22.5097 29.5011 22.6818L30.3527 23.5337C30.4903 23.2756 30.5677 22.9658 30.5849 22.656C30.5935 22.5183 30.6366 22.4839 30.757 22.5097L31.0065 22.5614C31.1441 22.5872 31.1183 22.699 31.1097 22.7507C31.0581 23.2067 30.8946 23.6456 30.7398 23.921L31.3075 24.4717C31.3763 24.5405 31.4365 24.6094 31.2989 24.7557L31.1441 24.9106C31.0753 24.9794 30.972 24.988 30.886 24.8933L30.4043 24.4028C30.1807 24.6524 29.742 24.9622 29.071 24.9622C28.3055 24.9622 27.8409 24.4373 27.8409 23.8263C27.8323 23.0949 28.4603 22.7335 28.6753 22.6044ZM29.114 24.4459C29.5527 24.4459 29.8538 24.2135 30.0258 24.007L29.0108 22.9314C28.8216 23.0519 28.4087 23.3014 28.4087 23.7833C28.4087 24.1705 28.7183 24.4459 29.114 24.4459ZM29.785 21.5632C29.785 21.2964 29.5699 21.0383 29.2086 21.0383C28.8646 21.0383 28.6667 21.2792 28.6667 21.5632C28.6581 21.8041 28.8129 21.9762 29.0194 22.1827L29.157 22.3204C29.3291 22.2086 29.785 21.9676 29.785 21.5632Z" fill="#70737B"></path>
    <path d="M34.5161 20.7457C34.5161 20.6855 34.5677 20.6339 34.6279 20.6339H36.2881C37.0192 20.6339 37.6213 21.2104 37.6213 21.9418C37.6213 22.5011 37.2515 22.9658 36.7181 23.1809L37.5525 24.7298C37.5955 24.8073 37.5525 24.9105 37.4493 24.9105H36.9762C36.9246 24.9105 36.8902 24.8761 36.8816 24.8589L36.073 23.2412H35.1526V24.7987C35.1526 24.8589 35.101 24.9105 35.0408 24.9105H34.6452C34.5763 24.9105 34.5333 24.8589 34.5333 24.7987V20.7457H34.5161ZM36.2451 22.699C36.6407 22.699 36.9848 22.3634 36.9848 21.9418C36.9848 21.546 36.6407 21.219 36.2451 21.219H35.1612V22.699H36.2451Z" fill="#70737B"></path>
    <path d="M39.1182 20.7457C39.1182 20.6855 39.1698 20.6339 39.23 20.6339H41.6731C41.7419 20.6339 41.7849 20.6855 41.7849 20.7457V21.0899C41.7849 21.1501 41.7333 21.2018 41.6731 21.2018H39.7461V22.4495H41.372C41.4322 22.4495 41.4839 22.5011 41.4839 22.5613V22.9055C41.4839 22.9744 41.4322 23.0174 41.372 23.0174H39.7461V24.3254H41.6731C41.7419 24.3254 41.7849 24.377 41.7849 24.4372V24.7728C41.7849 24.8331 41.7333 24.8847 41.6731 24.8847H39.23C39.1612 24.8847 39.1182 24.8331 39.1182 24.7728V20.7457Z" fill="#70737B"></path>
    <path d="M42.9891 24.2824C43.0407 24.2049 43.0923 24.1103 43.1439 24.0328C43.1956 23.9554 43.2816 23.9296 43.3504 23.9812C43.3848 24.0156 43.8579 24.4029 44.3225 24.4029C44.744 24.4029 45.0106 24.1447 45.0106 23.8349C45.0106 23.4649 44.6923 23.2412 44.0902 22.983C43.4708 22.7163 42.9805 22.3979 42.9805 21.6923C42.9805 21.219 43.3504 20.565 44.3138 20.565C44.9246 20.565 45.3805 20.8834 45.4407 20.9264C45.4924 20.9608 45.5354 21.0383 45.4751 21.1329C45.4235 21.2018 45.3719 21.2878 45.3203 21.3653C45.2687 21.4427 45.1913 21.4771 45.1052 21.4255C45.0622 21.3997 44.6322 21.1243 44.2795 21.1243C43.7633 21.1243 43.5912 21.4513 43.5912 21.6751C43.5912 22.0193 43.8579 22.2344 44.3655 22.4409C45.0708 22.7249 45.673 23.0605 45.673 23.8091C45.673 24.4459 45.1053 24.9622 44.3138 24.9622C43.5654 24.9622 43.1009 24.575 43.0063 24.4803C42.9719 24.4287 42.9289 24.3856 42.9891 24.2824Z" fill="#70737B"></path>
    <path d="M47.6688 21.2018H46.6709C46.6021 21.2018 46.5591 21.1501 46.5591 21.0899V20.7457C46.5591 20.6855 46.6107 20.6339 46.6709 20.6339H49.2945C49.3633 20.6339 49.4063 20.6855 49.4063 20.7457V21.0899C49.4063 21.1501 49.3547 21.2018 49.2945 21.2018H48.2967V24.7814C48.2967 24.8417 48.2451 24.8933 48.1848 24.8933H47.7806C47.7204 24.8933 47.6688 24.8417 47.6688 24.7814V21.2018Z" fill="#70737B"></path>
    <path d="M49.8195 24.7384L51.6948 20.6338C51.712 20.5994 51.7636 20.565 51.798 20.565H51.8582C51.8926 20.565 51.9442 20.5994 51.9614 20.6338L53.8194 24.7384C53.8538 24.8159 53.8108 24.8933 53.7162 24.8933H53.3291C53.2603 24.8933 53.2173 24.8589 53.1915 24.7987L52.813 23.964H50.8173C50.6969 24.248 50.5679 24.5147 50.4475 24.7987C50.4303 24.8417 50.3786 24.8933 50.3098 24.8933H49.9228C49.8281 24.9019 49.7765 24.8159 49.8195 24.7384ZM52.5807 23.4477L51.8324 21.7783H51.798L51.0582 23.4477H52.5807Z" fill="#70737B"></path>
    <path d="M54.8687 20.7457C54.8687 20.6855 54.9203 20.6339 54.9805 20.6339H55.3934C55.4622 20.6339 55.5052 20.6855 55.5052 20.7457V23.267C55.5052 23.8779 55.8923 24.3512 56.5203 24.3512C57.1483 24.3512 57.544 23.8779 57.544 23.2756V20.7457C57.544 20.6855 57.5956 20.6339 57.6644 20.6339H58.0687C58.1289 20.6339 58.1805 20.6855 58.1805 20.7457V23.31C58.1805 24.2393 57.4838 24.9621 56.5203 24.9621C55.5654 24.9621 54.8687 24.2393 54.8687 23.31V20.7457Z" fill="#70737B"></path>
    <path d="M59.8667 20.7457C59.8667 20.6855 59.9183 20.6339 59.9785 20.6339H61.6388C62.37 20.6339 62.9721 21.2104 62.9721 21.9418C62.9721 22.5011 62.6023 22.9658 62.0689 23.1809L62.9033 24.7298C62.9463 24.8073 62.9033 24.9105 62.8001 24.9105H62.327C62.2754 24.9105 62.241 24.8761 62.2324 24.8589L61.4237 23.2412H60.5033V24.7987C60.5033 24.8589 60.4516 24.9105 60.3914 24.9105H59.9957C59.9269 24.9105 59.8839 24.8589 59.8839 24.7987V20.7457H59.8667ZM61.5872 22.699C61.9829 22.699 62.327 22.3634 62.327 21.9418C62.327 21.546 61.9829 21.219 61.5872 21.219H60.5033V22.699H61.5872Z" fill="#70737B"></path>
    <path d="M63.8926 24.7384L65.7678 20.6338C65.785 20.5994 65.8452 20.565 65.871 20.565H65.9313C65.9657 20.565 66.0173 20.5994 66.0345 20.6338L67.8925 24.7384C67.9269 24.8159 67.8839 24.8933 67.7893 24.8933H67.4022C67.3334 24.8933 67.2904 24.8589 67.2646 24.7987L66.8861 23.964H64.8904C64.77 24.248 64.641 24.5147 64.5205 24.7987C64.5033 24.8417 64.4517 24.8933 64.3829 24.8933H63.9958C63.9098 24.9019 63.8582 24.8159 63.8926 24.7384ZM66.6538 23.4477L65.9054 21.7783H65.871L65.1313 23.4477H66.6538Z" fill="#70737B"></path>
    <path d="M69.0537 20.6769C69.0537 20.6167 69.1053 20.5651 69.1655 20.5651H69.3204L71.9698 23.6285H71.9783V20.7458C71.9783 20.6855 72.03 20.6339 72.0902 20.6339H72.4773C72.5375 20.6339 72.5891 20.6855 72.5891 20.7458V24.8504C72.5891 24.9106 72.5375 24.9623 72.4773 24.9623H72.3224L69.673 21.8128H69.6644V24.7815C69.6644 24.8418 69.6129 24.8934 69.5526 24.8934H69.1655C69.1053 24.8934 69.0537 24.8418 69.0537 24.7815V20.6769Z" fill="#70737B"></path>
    <path d="M74.9119 21.2018H73.914C73.8452 21.2018 73.8022 21.1502 73.8022 21.09V20.7458C73.8022 20.6855 73.8538 20.6339 73.914 20.6339H76.5377C76.6066 20.6339 76.6496 20.6855 76.6496 20.7458V21.09C76.6496 21.1502 76.598 21.2018 76.5377 21.2018H75.5399V24.7815C75.5399 24.8417 75.4882 24.8934 75.428 24.8934H75.0237C74.9635 24.8934 74.9119 24.8417 74.9119 24.7815V21.2018Z" fill="#70737B"></path>
    <path d="M77.5872 24.2824C77.6389 24.205 77.6905 24.1104 77.7421 24.0329C77.7937 23.9555 77.8797 23.9296 77.9485 23.9813C77.9829 24.0157 78.456 24.4029 78.9205 24.4029C79.342 24.4029 79.6087 24.1448 79.6087 23.835C79.6087 23.465 79.2905 23.2412 78.6883 22.9831C78.069 22.7163 77.5786 22.3979 77.5786 21.6923C77.5786 21.219 77.9485 20.5651 78.9119 20.5651C79.5227 20.5651 79.9786 20.8834 80.0388 20.9265C80.0904 20.9609 80.1334 21.0383 80.0732 21.133C80.0216 21.2018 79.97 21.2879 79.9184 21.3653C79.8668 21.4428 79.7894 21.4772 79.7033 21.4256C79.6603 21.3998 79.2302 21.1244 78.8775 21.1244C78.3614 21.1244 78.1894 21.4514 78.1894 21.6751C78.1894 22.0193 78.4561 22.2344 78.9636 22.441C79.6689 22.7249 80.271 23.0605 80.271 23.8092C80.271 24.446 79.7033 24.9623 78.9119 24.9623C78.1636 24.9623 77.6991 24.575 77.6045 24.4804C77.5701 24.4287 77.527 24.3857 77.5872 24.2824Z" fill="#70737B"></path>
  </symbol></defs>
                                        <use xlink:href="#svgsprite-logos-ki">
                                            <title id="title-logos-ki">Selecting will reload the Kimpton® Hotels &amp; Restaurants website in this browser window.</title>
                                            <desc id="desc-logos-ki">Selecting will reload the Kimpton® Hotels &amp; Restaurants website in this browser window.</desc>
                                        </use>
                                    </svg>