<svg xmlns:xlink="http://www.w3.org/1999/xlink" xmlns="http://www.w3.org/2000/svg" role="img" class="footer-list__item-img" width="100"  height="60" ><defs><symbol viewBox="0 0 86 35" id="svgsprite-logos-cw">
    <path d="M4.85527 19.1502C6.26639 19.1502 7.38829 19.7639 8.03688 20.9037L7.42334 21.5525C6.92374 20.6407 6.19628 19.9919 5.0218 19.9919C3.45291 19.9919 2.37483 21.1667 2.37483 23.2271C2.37483 25.34 3.59313 26.4623 5.00425 26.4798C6.17873 26.4798 6.90622 25.945 7.43211 24.9893L8.03688 25.454C7.38829 26.6639 6.28393 27.3566 4.80268 27.3566C2.56767 27.3566 0.709504 25.7959 0.709504 23.3235C0.700739 20.8511 2.55014 19.1502 4.85527 19.1502Z" fill="#00205C"></path>
    <path d="M13.6112 25.0244H10.3947L9.44807 27.2514H8.51025L12.0073 19.2203H12.6208L16.1442 27.2514H14.5841L13.6112 25.0244ZM10.7189 24.2792H13.2957L11.981 21.2982L10.7189 24.2792Z" fill="#00205C"></path>
    <path d="M23.2714 19.2641H24.2267V27.2689H23.6483L18.4509 20.9387V27.2427H17.4956V19.2641H18.9154L23.2714 24.6036V19.2641Z" fill="#00205C"></path>
    <path d="M26.3218 27.2514V19.2729H28.9512C31.6859 19.2729 33.4739 20.7195 33.4739 23.227C33.4739 25.8573 31.6157 27.2514 29.1002 27.2514H26.3218ZM28.8373 20.0269H27.803V26.4798H28.9337C30.7831 26.4798 31.8874 25.4452 31.8874 23.2183C31.8874 21.2017 30.7831 20.0269 28.8373 20.0269Z" fill="#00205C"></path>
    <path d="M34.9033 19.2641H36.3846V26.4273H40.4164V27.2515H34.8945V19.2641H34.9033Z" fill="#00205C"></path>
    <path d="M41.9863 19.2641H47.6745V20.0708H43.4675V22.7185H46.5527V23.5252H43.4675V26.4185H47.8586V27.2426H41.9863V19.2641Z" fill="#00205C"></path>
    <path d="M54.1517 22.1837L52.3374 27.2953H51.7327L48.665 19.2641H50.1901L52.3287 25.1122L53.731 21.0176L53.0999 19.2641H54.5899L56.4919 24.9982L58.534 19.2641H59.4719L56.5532 27.2953H55.9485L54.1517 22.1837Z" fill="#00205C"></path>
    <path d="M64.0654 19.1502C66.353 19.1502 68.1322 20.9212 68.1322 23.2534C68.1322 25.5943 66.353 27.3566 64.0654 27.3566C61.7603 27.3566 59.9985 25.5856 59.9985 23.2534C59.9985 20.9212 61.7603 19.1502 64.0654 19.1502ZM64.0654 26.6201C65.6167 26.6201 66.4669 25.3576 66.4669 23.2534C66.4669 21.1404 65.608 19.8779 64.0654 19.8779C62.5053 19.8779 61.6639 21.1404 61.6639 23.2534C61.6639 25.3576 62.5053 26.6201 64.0654 26.6201Z" fill="#00205C"></path>
    <path d="M73.077 19.1502C75.3646 19.1502 77.1438 20.9212 77.1438 23.2534C77.1438 25.5943 75.3646 27.3566 73.077 27.3566C70.7719 27.3566 69.0103 25.5856 69.0103 23.2534C69.0103 20.9212 70.7719 19.1502 73.077 19.1502ZM73.077 26.6201C74.6283 26.6201 75.4786 25.3576 75.4786 23.2534C75.4786 21.1404 74.6196 19.8779 73.077 19.8779C71.5169 19.8779 70.6755 21.1404 70.6755 23.2534C70.6755 25.3576 71.5169 26.6201 73.077 26.6201Z" fill="#00205C"></path>
    <path d="M78.564 27.2514V19.2729H81.1933C83.9279 19.2729 85.7159 20.7195 85.7159 23.227C85.7159 25.8573 83.8577 27.2514 81.3423 27.2514H78.564ZM81.0882 20.0269H80.0539V26.4798H81.1846C83.0339 26.4798 84.1382 25.4452 84.1382 23.2183C84.1294 21.2017 83.0251 20.0269 81.0882 20.0269Z" fill="#00205C"></path>
    <path d="M32.6597 32.5558L31.9761 32.3717C31.1347 32.135 30.6438 31.7843 30.6438 31.0127C30.6438 30.1623 31.4064 29.5573 32.4582 29.5573C33.3171 29.5573 33.9657 29.9255 34.2988 30.4516L33.9219 30.8549C33.6239 30.3639 33.1155 30.0483 32.4494 30.0483C31.8884 30.0483 31.494 30.3201 31.494 30.776C31.494 31.1968 31.757 31.3722 32.3442 31.53L33.0366 31.7229C33.8518 31.9421 34.3777 32.3191 34.3777 33.0906C34.3777 34.0726 33.5275 34.6776 32.4582 34.6776C31.5554 34.6776 30.7578 34.2743 30.3896 33.6167L30.784 33.2485C31.1697 33.8622 31.8008 34.1603 32.4494 34.1603C33.0542 34.1603 33.5187 33.906 33.5187 33.3712C33.5362 32.8978 33.2119 32.7136 32.6597 32.5558Z" fill="#00205C"></path>
    <path d="M39.3739 29.6273V32.6609C39.3739 33.9848 38.5413 34.6687 37.3755 34.6687C36.0521 34.6687 35.2808 33.9322 35.2808 32.6697V29.6273H36.201V32.5907C36.201 33.5464 36.6656 34.0988 37.4983 34.0988C38.3397 34.0988 38.7779 33.6166 38.7779 32.5907V29.6273H39.3739Z" fill="#00205C"></path>
    <path d="M41.5204 34.5986H40.6001V29.6273H41.5204V34.5986Z" fill="#00205C"></path>
    <path d="M44.2741 30.1184H42.3984V29.6187H47.0701V30.1184H45.1944V34.59H44.2741V30.1184Z" fill="#00205C"></path>
    <path d="M47.9556 29.6273H51.4964V30.1358H48.8758V31.7842H50.7953V32.2927H48.8758V34.0989H51.6104V34.6074H47.9556V29.6273Z" fill="#00205C"></path>
    <path d="M54.3189 32.5558L53.6352 32.3717C52.7938 32.135 52.303 31.7843 52.303 31.0127C52.303 30.1623 53.0655 29.5573 54.1173 29.5573C54.9762 29.5573 55.6248 29.9255 55.9579 30.4516L55.581 30.8549C55.283 30.3639 54.7747 30.0483 54.1086 30.0483C53.5476 30.0483 53.1532 30.3201 53.1532 30.776C53.1532 31.1968 53.4161 31.3722 54.0034 31.53L54.6958 31.7229C55.5109 31.9421 56.0367 32.3191 56.0367 33.0906C56.0367 34.0726 55.1866 34.6776 54.1173 34.6776C53.2145 34.6776 52.4169 34.2743 52.0488 33.6167L52.4432 33.2485C52.8289 33.8622 53.46 34.1603 54.1086 34.1603C54.7133 34.1603 55.1778 33.906 55.1778 33.3712C55.1866 32.8978 54.8711 32.7136 54.3189 32.5558Z" fill="#00205C"></path>
    <path d="M43.2129 0.431335C39.4262 0.431335 36.3584 3.50001 36.3584 7.28761C36.3584 11.0752 39.4262 14.1439 43.2129 14.1439C46.9996 14.1439 50.0675 11.0752 50.0675 7.28761C50.0675 3.50001 46.9996 0.431335 43.2129 0.431335ZM43.0289 12.706C43.0289 12.706 43.7915 11.5486 43.7915 10.4965C43.7915 8.47122 42.3627 7.41911 42.1523 6.88428C42.1348 6.83168 41.1881 7.2438 41.0391 8.62908C41.0391 8.62908 40.2502 7.41915 40.4694 5.93742C40.9077 3.02657 44.0544 1.7903 44.0544 1.7903C44.0544 1.7903 43.4146 2.51805 43.4146 3.57893C43.4146 5.4815 46.0442 6.41961 46.0442 9.08496C46.0442 11.1541 43.809 12.3904 43.0289 12.706Z" fill="#9F2241"></path>
  </symbol></defs>
                                        <use xlink:href="#svgsprite-logos-cw">
                                            <title id="title-logos-cw">Selecting will reload the Candlewood Suites website in this browser window.</title>
                                            <desc id="desc-logos-cw">Selecting will reload the Candlewood Suites website in this browser window.</desc>
                                        </use>
                                    </svg>