<svg xmlns:xlink="http://www.w3.org/1999/xlink" xmlns="http://www.w3.org/2000/svg" role="img" class="footer-list__item-img" width="100"  height="60" ><defs><symbol viewBox="0 0 61 50" id="svgsprite-logos-hi">
    <path d="M38.8071 46.1729C38.4739 46.4729 37.8824 46.6312 37.216 46.7062C36.2746 46.8146 35.6415 46.9729 35.6415 47.623C35.6415 48.1313 36.1413 48.4146 36.7411 48.4146C37.2243 48.4146 37.6658 48.248 37.9907 47.9313C38.324 47.6063 38.5655 47.148 38.6905 46.6396L38.8071 46.1729ZM39.7735 41.7061C40.1234 40.0561 41.7896 40.3394 41.7896 40.3394L40.6149 45.8396C40.3816 46.9479 40.0651 47.7313 39.5569 48.3063C38.9321 49.0063 37.9574 49.4313 36.7161 49.4313C35.2749 49.4313 34.1919 48.7813 34.1919 47.6813C34.1919 46.9396 34.6584 46.4146 35.6665 46.1729C35.4082 45.8812 35.2333 45.5062 35.2333 45.0395C35.2333 44.7145 35.3082 44.3228 35.3915 43.9395C35.3915 43.9395 35.4582 43.6395 35.8414 41.8228C36.2329 40.0061 37.8824 40.3394 37.8824 40.3394L37.116 43.9895C37.0494 44.3062 36.7078 45.5062 37.7908 45.5062C39.0071 45.5062 39.2903 43.9895 39.457 43.1979C39.457 43.1895 39.4236 43.3562 39.7735 41.7061ZM32.7923 41.4145C32.684 41.3645 32.5591 41.3145 32.4008 41.3145C30.8846 41.3145 29.9266 43.1395 29.9266 44.4729C29.9266 45.2145 30.2181 45.6062 30.8013 45.6062C31.2178 45.6062 31.5261 45.4479 31.7593 45.1895C31.9926 44.9145 32.1425 44.5145 32.2425 44.0395L32.7923 41.4145ZM34.6251 40.8228L33.3921 46.7896H33.1589C32.6341 46.7896 32.1758 46.6062 32.0259 46.1229C31.676 46.5062 31.0512 46.7896 30.2681 46.7896C28.9602 46.7896 28.1688 45.9312 28.1688 44.5312C28.1688 42.1395 30.0599 40.2228 32.4341 40.2228C33.2589 40.2228 33.9587 40.4561 34.6251 40.8228ZM28.5686 36.856L26.5192 46.7896H26.286C25.7612 46.7896 25.3029 46.5979 25.153 46.1229C24.7864 46.5062 24.1783 46.7896 23.3952 46.7896C22.0873 46.7896 21.2292 45.9145 21.2292 44.5145C21.2292 42.2395 23.0037 40.2228 25.4946 40.2228C25.7445 40.2228 25.9944 40.2394 26.1444 40.2811C26.1277 40.3561 26.4193 38.9977 26.5692 38.2144C26.8941 36.6143 28.427 36.8393 28.5686 36.856ZM25.9195 41.4228C25.8278 41.3728 25.6112 41.3228 25.4112 41.3228C24.0783 41.3228 23.0037 42.9562 23.0037 44.4729C23.0037 45.2145 23.3536 45.6229 23.9367 45.6229C24.3533 45.6229 24.6448 45.4646 24.8781 45.2062C25.1114 44.9312 25.2696 44.5312 25.3696 44.0562L25.9195 41.4228ZM58.5011 40.2228C57.6764 40.2228 56.9682 40.5978 56.5184 41.0978C56.5184 41.0978 56.4601 39.8394 54.8022 40.3394C55.1021 41.2144 54.9355 41.5311 54.6023 43.2979L54.2524 45.0146C54.1941 45.3062 53.8025 46.7896 55.3687 46.7896H55.602L56.2185 43.8145C56.3851 43.0145 56.71 41.5061 57.9179 41.5061C58.5178 41.5061 58.826 41.8811 58.6344 42.7978L58.1762 45.0229C58.1095 45.3062 57.718 46.7979 59.2842 46.7979H59.5174L60.3588 42.7312C60.7171 40.9811 59.809 40.2228 58.5011 40.2228ZM6.49209 37.8311C6.41711 38.2061 6.24216 39.0311 5.95891 40.3811L3.07644 40.9561L3.9262 36.856C3.66794 36.806 2.23505 36.6977 1.94347 38.181C1.85183 38.6477 0.527229 45.0062 0.527229 45.0062C0.460583 45.3396 0.0773819 46.7813 1.63524 46.7813H1.87681L2.70989 42.7561L5.59235 42.1811C5.30911 43.5645 5.00919 45.0062 5.00919 45.0062C4.94254 45.2896 4.55934 46.7813 6.1172 46.7813H6.35048L8.48316 36.4727C8.48316 36.481 6.83365 36.1893 6.49209 37.8311ZM51.4283 40.2228C50.6035 40.2228 49.8954 40.5978 49.4456 41.0978C49.4456 41.0978 49.3872 39.8394 47.7294 40.3394C48.0293 41.2144 47.8627 41.5311 47.5295 43.2979L47.1796 45.0146C47.1212 45.3062 46.7297 46.7896 48.2876 46.7896H48.5208L49.1373 43.8145C49.3123 43.0145 49.6288 41.5061 50.8368 41.5061C51.4366 41.5061 51.7448 41.8811 51.5532 42.7978L51.095 45.0229C51.0284 45.3062 50.6368 46.7979 52.203 46.7979H52.4363L53.2777 42.7312C53.6442 40.9811 52.7362 40.2228 51.4283 40.2228ZM45.3301 37.756C45.0719 38.9644 43.8306 45.0146 43.8306 45.0146C43.7556 45.3646 43.4057 46.7896 44.9386 46.7896H45.1719L47.2962 36.481C46.888 36.4144 45.6134 36.4227 45.3301 37.756ZM12.6568 42.5311C12.6568 41.8561 12.3986 41.3728 11.7072 41.3728C11.274 41.3728 10.8907 41.6228 10.6075 41.9895C10.0743 42.6645 9.79938 43.7478 9.79938 44.4812C9.79938 45.1645 10.0743 45.6479 10.7658 45.6479C11.199 45.6479 11.5572 45.3979 11.8488 45.0312C12.3903 44.3478 12.6568 43.2645 12.6568 42.5311ZM14.4147 42.5228C14.4147 43.8979 13.8565 45.1979 12.8901 45.9812C12.282 46.4896 11.4656 46.7896 10.5575 46.7896C9.10796 46.7896 8.06662 46.0062 8.06662 44.4812C8.06662 43.1145 8.62474 41.8145 9.59111 41.0394C10.2076 40.5311 11.0157 40.2311 11.9321 40.2311C13.365 40.2228 14.4147 40.9895 14.4147 42.5228ZM18.9383 41.6395C18.5967 43.2479 18.2385 45.0146 18.2385 45.0146C18.1718 45.2979 17.7886 46.7896 19.3548 46.7896H19.588L20.921 40.3311C20.8543 40.3311 19.2798 40.0561 18.9383 41.6395ZM16.5057 38.1894C16.1725 39.8311 15.0978 45.0146 15.0978 45.0146C15.0311 45.2979 14.6479 46.7896 16.2057 46.7896H16.439L18.4884 36.856C18.4884 36.856 16.8389 36.556 16.5057 38.1894ZM20.6128 37.6477C20.0129 37.6477 19.4215 38.1977 19.4215 38.8144C19.4215 39.2728 19.7464 39.5894 20.1879 39.5894C20.7877 39.5894 21.3875 39.0394 21.3875 38.4227C21.3958 37.9644 21.0543 37.6477 20.6128 37.6477ZM35.6665 12.7471C35.2833 14.1554 34.8917 15.6721 34.4502 17.4305C33.7087 20.3723 32.3175 27.9808 31.8926 33.0059C31.6677 33.1059 31.0179 33.1976 30.7013 33.1976C29.685 33.1976 28.4937 32.5726 28.4187 30.9559C28.3187 28.9558 29.4933 21.5723 31.2511 14.7221C31.3094 14.5055 31.3594 14.2971 31.4177 14.0888C29.1518 14.8638 27.0358 15.6888 25.1364 16.5055C24.4282 19.6139 23.4869 24.3724 23.137 29.0808C23.062 29.1558 22.4039 29.2558 22.0706 29.2558C20.8627 29.2558 20.0129 28.4475 20.0213 27.0808C20.0296 24.3974 20.6294 20.8723 21.1459 18.3306C18.5883 19.5723 16.6723 20.6556 15.5976 21.2973C15.406 20.939 15.3477 20.3473 15.3977 20.0639C15.456 19.6556 15.6976 18.7723 16.6723 18.0972C18.2551 17.0056 19.9879 15.9388 21.904 14.9221C22.8871 10.922 24.2116 6.87196 25.328 4.46357C26.0444 2.91353 26.9608 2.32184 28.5353 2.32184C28.9518 2.32184 29.5183 2.42183 29.8183 2.5135C28.3937 5.59691 27.0607 9.28035 26.0361 12.9304C27.9855 12.0804 30.0931 11.2721 32.3924 10.522C33.5088 6.63028 34.5168 3.83853 35.4499 2.07182C36.033 0.963462 37.0077 0.521792 37.8824 0.413456C38.6572 0.321788 39.332 0.4218 39.9401 0.580137C38.4822 4.05522 37.5242 6.62195 36.6995 9.25535C38.274 8.83867 39.9318 8.43865 41.6729 8.07198C42.6226 7.87197 46.0466 7.26363 46.6714 10.5804C42.8226 10.9804 39.1154 11.7721 35.6665 12.7471Z" fill="#509E2F"></path>
  </symbol></defs>
                                        <use xlink:href="#svgsprite-logos-hi">
                                            <title id="title-logos-hi">Selecting will reload the Holiday Inn website in this browser window.</title>
                                            <desc id="desc-logos-hi">Selecting will reload the Holiday Inn website in this browser window.</desc>
                                        </use>
                                    </svg>