<svg xmlns:xlink="http://www.w3.org/1999/xlink" xmlns="http://www.w3.org/2000/svg" role="img" class="footer-list__item-img" width="100"  height="60" ><defs><symbol viewBox="0 0 81 24" id="svgsprite-logos-sb">
    <path d="M24.1035 2.55356H23.0513L19.8336 11.2695L19.7988 11.3652H20.9033L21.8425 8.72949H24.9297L25.6689 11.313L25.6776 11.3652H27.1733L24.1035 2.55356ZM22.2773 7.83357C22.3903 7.50303 22.5121 7.16374 22.6425 6.8071C22.9208 6.04163 23.2339 5.18919 23.4861 4.26714C23.8252 5.59802 24.1731 6.80714 24.5122 7.82487L22.2773 7.83357ZM30.0779 6.41571L28.2604 2.41435L28.2343 2.35345L26.7646 2.77967L29.2431 7.55521V11.3738H30.5302V7.55521L33.3999 2.58833L32.2955 2.36216L30.0779 6.41571ZM36.0958 23.5605H37.0437V19.2895H36.0958V23.5605ZM29.1126 21.9426C29.1126 22.334 29.0692 22.4645 28.9996 22.5775C28.9126 22.7254 28.7039 22.8298 28.53 22.8298C28.3386 22.8298 28.1386 22.7254 28.0691 22.5775C27.9995 22.4471 27.9473 22.334 27.9473 21.9426V19.2982H27.0516V21.9426C27.0516 22.3427 27.0516 22.8037 27.4168 23.1865C27.7647 23.5518 28.1213 23.7258 28.5213 23.7258C28.93 23.7258 29.2779 23.5518 29.6257 23.1865C29.991 22.8037 29.991 22.3427 29.991 21.9426V19.2982H29.1039V21.9426H29.1126ZM11.2938 6.3374C10.1197 5.54583 9.63277 5.01524 9.63277 4.51073C9.63277 4.01491 10.1458 3.45819 10.8763 3.45819C11.2068 3.45819 11.4764 3.60608 11.7634 3.75396C11.946 3.84964 12.1373 3.94532 12.3547 4.0149L12.4156 4.04097L12.8504 3.37988L12.8243 3.33639C12.433 2.75359 11.6503 2.36216 10.8763 2.36216C9.50231 2.36216 8.34569 3.34512 8.34569 4.51073C8.34569 5.71982 8.97184 6.17211 9.63277 6.65053C9.71973 6.71142 9.798 6.77233 9.87626 6.83322C10.0067 6.955 10.1806 7.10286 10.3633 7.25073C10.9807 7.75525 11.7373 8.39026 11.7373 9.22532C11.7373 10.0604 11.2677 10.4605 10.3111 10.4605C9.71103 10.4605 9.15446 10.217 8.67616 9.72985L8.61528 9.66024L7.95435 10.5475L8.00652 10.591C8.60657 11.1825 9.55448 11.5565 10.5111 11.5565C11.7025 11.5565 13.033 10.5562 13.033 9.22532C13.0243 8.01622 12.3634 7.22465 11.2938 6.3374ZM19.9814 20.8378C19.6597 20.6987 19.4249 20.6291 19.3988 20.4029C19.3727 20.2898 19.4162 20.1855 19.4597 20.1159C19.5292 20.0028 19.6423 19.9854 19.7727 19.9941C19.9466 20.0115 20.1032 20.1594 20.1206 20.3681C20.1293 20.4029 20.1206 20.4377 20.1206 20.4725H21.0685C21.0685 20.1507 20.938 19.7418 20.7032 19.507C20.4597 19.2634 20.1032 19.1243 19.764 19.1243C18.9727 19.1243 18.4596 19.6114 18.4596 20.3855C18.4596 20.6987 18.6074 21.0205 18.8248 21.2293C19.0074 21.3946 19.3292 21.5859 19.6771 21.7338C20.0075 21.8817 20.251 22.0208 20.2597 22.3601C20.2858 22.795 19.9988 22.8907 19.7988 22.8907C19.5466 22.8907 19.4336 22.7602 19.364 22.6124C19.3205 22.508 19.2944 22.3253 19.2857 22.1948H18.3465L18.3552 22.2731C18.3813 23.1343 19.0161 23.7432 19.8075 23.7432C20.2075 23.7432 20.5641 23.5953 20.8076 23.3343C21.0511 23.0908 21.1902 22.7515 21.1728 22.3775C21.1468 21.9339 20.9728 21.5511 20.7293 21.325C20.5467 21.1162 20.2858 20.977 19.9814 20.8378ZM20.3641 2.55356H13.8157V3.64953H16.4507V11.3652H17.7291V3.64953H20.3641V2.55356ZM53.7929 2.55356H51.271V11.3652H53.6016C56.2453 11.3652 57.8194 9.65155 57.8194 6.78103C57.828 4.82386 56.7758 2.55356 53.7929 2.55356ZM53.6016 10.2779H52.5494V3.65823H53.7929C55.6192 3.65823 56.5323 4.71079 56.5323 6.78974C56.541 9.06875 55.5235 10.2779 53.6016 10.2779ZM46.1575 4.89346C46.1575 3.42341 45.2792 2.55356 43.8182 2.55356H41.2962V11.3652H42.5746V7.79004H43.766L45.627 11.513L45.6618 11.5739L46.9402 11.1477L44.8531 7.36382C45.5749 6.81581 46.1575 6.24174 46.1575 4.89346ZM43.2529 6.69401H42.5746V3.64953H43.4356C43.8704 3.64953 44.8705 3.78872 44.8705 5.0761C44.8705 5.52842 44.5748 6.69401 43.2529 6.69401ZM60.5761 20.8378C60.263 20.6987 60.0282 20.6291 59.9934 20.4029C59.9761 20.2898 60.0022 20.1855 60.0456 20.1159C60.1239 20.0028 60.237 19.9854 60.3587 19.9941C60.5326 20.0115 60.6892 20.1594 60.7153 20.3681C60.724 20.4029 60.724 20.4377 60.724 20.4725H61.6805C61.6718 20.1507 61.5414 19.7418 61.3066 19.507C61.0544 19.2634 60.7066 19.1243 60.3674 19.1243C59.5673 19.1243 59.063 19.6114 59.063 20.3855C59.063 20.6987 59.2108 21.0205 59.4282 21.2293C59.6195 21.3946 59.9413 21.5859 60.2804 21.7338C60.6109 21.8817 60.8631 22.0208 60.8718 22.3601C60.8892 22.795 60.6109 22.8907 60.4109 22.8907C60.1587 22.8907 60.0369 22.7602 59.9761 22.6124C59.9239 22.508 59.8978 22.3253 59.8978 22.1948H58.9499L58.9586 22.2731C58.976 23.1343 59.6108 23.7432 60.4109 23.7432C60.8109 23.7432 61.1675 23.5953 61.411 23.3343C61.6458 23.0908 61.7849 22.7515 61.7762 22.3775C61.7588 21.9339 61.5762 21.5511 61.3414 21.325C61.1414 21.1162 60.8892 20.977 60.5761 20.8378ZM68.5594 10.2779V7.24203H71.3857V6.32869H68.5594V3.66694H71.3857V2.57092H67.2723V11.3825H71.951V10.2865H68.5594V10.2779ZM50.8623 23.5605H53.2451V22.7168H51.871V21.8469H53.2451V21.0118H51.871V20.142H53.2451V19.2982H50.8623V23.5605ZM48.0707 11.3652H49.3578V2.55356H48.0707V11.3652ZM64.2634 10.3039C63.9068 10.4605 63.5416 10.4605 62.8372 10.4605C61.324 10.4605 60.0891 8.8861 60.0891 6.96372C60.0891 4.83258 61.237 3.45819 63.0198 3.45819C63.7764 3.45819 64.4982 3.83225 64.8547 4.18889L64.933 4.25844L65.3765 3.36251L65.3417 3.31903C64.9765 2.95369 64.2025 2.35345 63.0285 2.35345C60.2891 2.35345 58.8107 4.71949 58.8107 6.95501C58.8107 9.74724 60.3935 11.5478 62.8459 11.5478C63.5503 11.5478 64.2547 11.339 64.8808 11.1564C65.0982 11.0955 65.2982 11.0346 65.4982 10.9911L65.5504 10.9737V7.25073H64.2721V10.3039H64.2634ZM37.809 6.53745C38.4352 6.28519 39.183 5.69371 39.183 4.32804C39.183 3.3538 38.2177 2.55356 37.035 2.55356H34.3218V11.3652H36.6611C38.3656 11.3652 39.757 10.2343 39.757 8.84258C39.757 7.42472 38.8091 6.69402 37.809 6.53745ZM35.6175 3.64953H36.4785C37.1307 3.64953 37.9047 3.83222 37.9047 4.70207C37.9047 5.62411 36.9481 6.31998 36.0958 6.31998H35.6088V3.64953H35.6175ZM36.6611 10.2779H35.6088V7.24203H36.4698C37.3307 7.24203 38.2699 7.74657 38.2699 8.85129C38.2786 9.79943 37.7394 10.2779 36.6611 10.2779ZM42.6529 20.1333H43.4269V23.5605H44.4356V20.1333H45.2096V19.2895H42.6529V20.1333Z" fill="#005F67"></path>
    <path d="M6.51144 0.500597H0.337039V6.05028H6.51144V0.500597ZM74.091 17.3149C40.8186 10.2778 12.9468 15.9666 6.51144 17.4889V7.39859H4.02429V22.5166H6.51144V18.7241C12.2945 17.3236 40.4186 11.3651 74.091 18.5414V22.5166H76.5782V7.39859H74.091V17.3149ZM0.302246 22.5253H2.78072V7.39859H0.302246V22.5253ZM74.1258 6.05028H80.3089V0.491943H74.1258V6.05028ZM77.8217 22.5253H80.3089V7.39859H77.8217V22.5253Z" fill="#005F67"></path>
  </symbol></defs>
                                        <use xlink:href="#svgsprite-logos-sb">
                                            <title id="title-logos-sb">Selecting will reload the Staybridge Suites website in this browser window.</title>
                                            <desc id="desc-logos-sb">Selecting will reload the Staybridge Suites website in this browser window.</desc>
                                        </use>
                                    </svg>