<svg xmlns:xlink="http://www.w3.org/1999/xlink" xmlns="http://www.w3.org/2000/svg" role="img" class="footer-list__item-img" width="90"  height="60" ><defs><symbol viewBox="0 0 76 28" id="svgsprite-logos-we">
    <path fill-rule="evenodd" clip-rule="evenodd" d="M4.96825 0.579306L0.28418 11.9952H2.61747L3.67489 9.31166H8.9095L9.97565 11.9952H12.3789L7.70353 0.579306H4.96825ZM6.29657 2.72958L8.10552 7.24877H4.50508L6.29657 2.72958ZM10.3427 18.1401C11.6186 18.1401 12.7721 18.5423 13.7334 19.1104L14.817 17.301C13.5499 16.5493 12.2215 16.0773 10.3427 16.0773C7.66857 16.0773 5.57123 17.4321 5.57123 19.7485C5.57123 21.7939 7.20541 22.6855 9.2241 22.9652L10.0106 23.0701C11.6186 23.2887 12.5973 23.6121 12.5973 24.3988C12.5973 25.3341 11.505 25.841 10.1067 25.841C8.62112 25.841 7.1792 25.2729 6.32278 24.6173L5.14302 26.418C6.41017 27.397 8.36769 27.904 10.1067 27.904C12.676 27.904 14.9743 26.6977 14.9743 24.189C14.9743 22.1873 13.2091 21.3044 11.1467 20.9985L10.4213 20.8936C8.87455 20.6751 7.93074 20.3953 7.93074 19.5562C7.94822 18.6646 8.95319 18.1401 10.3427 18.1401ZM22.6121 27.8952C25.5222 27.8952 27.6283 26.2781 27.6283 23.1138V16.2783H25.3824V23.0002C25.3824 24.9145 24.2551 25.7537 22.6121 25.7537C20.978 25.7537 19.8506 24.9145 19.8506 23.0002V16.2783H17.6047V23.1138C17.6047 26.2781 19.7196 27.8952 22.6121 27.8952ZM31.3598 27.6942H33.6057V16.2783H31.3598V27.6942ZM36.7954 18.3674V16.2783H46.5481V18.3674H42.7991V27.6942H40.5532V18.3674H36.7954ZM49.362 16.2783V27.6942H58.232V25.64H51.6166V22.974H57.1833V20.9198H51.6166V18.3499H58.1621V16.2958H49.362V16.2783ZM65.7912 18.1401C67.0671 18.1401 68.2206 18.5423 69.1819 19.1104L70.2655 17.301C68.9984 16.5493 67.6701 16.0773 65.7912 16.0773C63.1171 16.0773 61.0197 17.4321 61.0197 19.7485C61.0197 21.7939 62.6539 22.6855 64.6726 22.9652L65.4591 23.0701C67.0671 23.2887 68.0458 23.6121 68.0458 24.3988C68.0458 25.3341 66.9534 25.841 65.5552 25.841C64.0696 25.841 62.6277 25.2729 61.7713 24.6173L60.5915 26.418C61.8587 27.397 63.8162 27.904 65.5552 27.904C68.1245 27.904 70.4228 26.6977 70.4228 24.189C70.4228 22.1873 68.6575 21.3044 66.5952 20.9985L65.8698 20.8936C64.323 20.6751 63.3792 20.3953 63.3792 19.5562C63.388 18.6646 64.393 18.1401 65.7912 18.1401ZM12.3876 2.65969V0.570557H22.1402V2.65969H18.3912V11.9864H16.1453V2.65969H12.3876ZM39.2423 0.579306L36.743 9.45149L34.0164 0.579306H31.5171L28.7906 9.45149L26.2912 0.579306H23.9579L27.3836 11.9952H30.1189L32.7493 3.66489L35.3622 11.9952H38.0975L41.5407 0.579306H39.2423ZM44.0662 11.9864V0.570557H52.8576V2.62469H46.3121V5.19458H51.8788V7.24877H46.3121V9.91479H52.9275V11.9689H44.0662V11.9864ZM56.2832 0.579306V11.9952H64.4454V9.90604H58.5291V0.579306H56.2832ZM67.1282 11.9864V0.570557H69.3742V9.89729H75.2904V11.9864H67.1282Z" fill="#232323"></path>
  </symbol></defs>
                                        <use xlink:href="#svgsprite-logos-we">
                                            <title id="title-logos-we">Selecting will reload the Atwell Suites website in this browser window.</title>
                                            <desc id="desc-logos-we">Selecting will reload the Atwell Suites website in this browser window.</desc>
                                        </use>
                                    </svg>