<svg xmlns:xlink="http://www.w3.org/1999/xlink" xmlns="http://www.w3.org/2000/svg" role="img" class="footer-list__item-img" width="80"  height="60" ><defs><symbol viewBox="0 0 71 35" id="svgsprite-logos-cv">
    <path d="M70.1232 0.269897H35.5745V34.8158H70.1232V0.269897Z" fill="#EC6108"></path>
    <path d="M34.6986 0.269897H0.117432V34.8158H34.6986V0.269897Z" fill="#66A851"></path>
    <path d="M34.6981 8.59849V11.4503C30.3876 11.6123 26.2068 12.2281 22.0907 13.3299C20.3406 19.6169 19.1091 26.2927 18.5581 32.288C18.396 32.3528 17.8451 32.45 17.5534 32.45C16.1598 32.45 15.3495 31.8991 15.3495 30.5704C15.3495 27.3621 16.6135 20.6539 18.2016 14.529C16.257 15.1771 14.3124 15.9549 12.3354 16.8623C11.428 20.7187 10.7798 24.7372 10.4557 28.6908C10.2936 28.788 9.77507 28.8529 9.48338 28.8529C8.34905 28.8529 7.57121 28.1075 7.57121 26.8436C7.57121 24.7048 7.99254 21.7233 8.64073 18.6447C6.95543 19.4872 5.27013 20.3946 3.55241 21.3993C3.39037 21.0752 3.32555 20.6215 3.35796 20.3622C3.42278 20.0058 3.64964 19.1956 4.5247 18.5474C6.24242 17.316 7.24712 16.8299 9.28893 15.728C10.1964 11.9688 11.3631 8.37164 12.4003 6.10315C13.0484 4.67724 13.8911 4.12632 15.3495 4.12632C15.7385 4.12632 16.257 4.22355 16.5487 4.28836C15.2199 7.17258 14.0856 10.3809 13.1457 13.7836C15.0254 12.941 17.0024 12.1633 19.0442 11.4827C19.9841 8.24201 20.9888 5.35779 21.8639 3.64022C22.4148 2.6032 23.2251 2.05228 24.4567 2.05228C25.04 2.05228 25.6558 2.1495 26.0123 2.27913C24.9104 4.77446 23.9057 7.46424 23.0306 10.3161C26.6605 9.40867 30.6145 8.76053 34.6981 8.59849Z" fill="#FFFFFF"></path>
    <path d="M66.1683 24.4779C66.4924 24.4779 66.9137 24.5752 67.173 24.7048L67.3026 24.1539C67.0433 24.0243 66.5896 23.927 66.2331 23.927C65.2284 23.927 64.5154 24.4455 64.5154 25.1909C64.5154 25.7742 64.9691 26.0659 65.4553 26.2603C66.0062 26.5196 66.2655 26.6492 66.2655 26.9733C66.2655 27.2974 65.9414 27.589 65.3256 27.589C64.9043 27.589 64.4506 27.4918 64.1265 27.2325L63.9644 27.8159C64.3209 28.0427 64.8071 28.1399 65.2608 28.1399C66.2979 28.1399 67.0109 27.6538 67.0109 26.8437C67.0109 26.2603 66.622 26.0011 65.9738 25.7094C65.5525 25.515 65.2608 25.3529 65.2608 25.0613C65.2608 24.7372 65.6173 24.4779 66.1683 24.4779ZM45.7502 26.6492C45.7502 25.839 46.3012 24.5104 47.2086 24.5104C47.5975 24.5104 47.792 24.7696 47.7596 25.2557L48.5374 25.2233C48.5374 25.1909 48.5698 25.1261 48.5698 25.0937C48.5698 24.3483 48.0189 23.927 47.3059 23.927C45.8474 23.927 44.9399 25.3529 44.9399 26.6492C44.9399 27.6214 45.6205 28.1075 46.5928 28.1075C47.079 28.1075 47.5975 27.9455 47.9216 27.7186L48.0513 27.1029C47.6299 27.3622 47.1114 27.5242 46.7225 27.5242C46.0743 27.5566 45.7502 27.2325 45.7502 26.6492ZM41.2128 22.7604L39.2682 26.5196C39.2034 26.6492 39.1386 26.8113 39.0738 26.9733L39.0414 26.4224L38.7173 22.7604H37.8098L38.1987 26.6492V26.8113L38.2635 27.265C38.2635 27.427 38.296 28.302 39.3007 27.9455L42.1203 22.728H41.2128V22.7604ZM44.9075 24.4131L44.9399 24.2187C44.5834 24.0243 44.1621 23.927 43.7084 23.927C43.676 23.927 43.676 23.927 43.6436 23.927C42.0879 23.927 40.9536 25.2881 40.9536 26.6816C40.9536 27.5242 41.4721 28.1075 42.3148 28.1075C42.7685 28.1075 43.1574 27.9131 43.4167 27.6862C43.4491 27.9131 43.5787 28.1075 43.9677 28.1075H44.0649L44.4862 26.0659L44.9075 24.4131ZM43.7084 26.2927C43.6111 26.6816 43.5139 27.0057 43.3195 27.2325C43.125 27.427 42.8981 27.589 42.5416 27.589C42.0879 27.589 41.8286 27.2974 41.8286 26.714C41.8286 25.515 42.7685 24.5104 43.6436 24.5104C43.8056 24.5104 43.9677 24.5428 44.0649 24.6076L43.7084 26.2927ZM51.2922 23.927C51.2598 23.927 51.2598 23.927 51.2274 23.927C49.7042 23.927 48.5374 25.2881 48.5374 26.6816C48.5374 27.5242 49.056 28.1075 49.8986 28.1075C50.3524 28.1075 50.7413 27.9131 51.0006 27.6862C51.033 27.9131 51.1626 28.1075 51.5515 28.1075H51.6487L52.0701 26.0659L52.459 24.3807L52.4914 24.1863C52.1349 24.0243 51.7136 23.927 51.2922 23.927ZM51.2598 26.2927C51.1626 26.6816 51.0654 27.0057 50.8709 27.2325C50.6765 27.427 50.4496 27.589 50.0931 27.589C49.6393 27.589 49.3801 27.2974 49.3801 26.714C49.3801 25.515 50.32 24.5104 51.195 24.5104C51.3571 24.5104 51.5191 24.5428 51.5839 24.6076L51.2598 26.2927ZM55.0194 24.6076L55.149 24.0243H54.4036L54.6953 22.7604H54.6304H53.885L53.6257 24.0567H52.9451L52.8155 24.64H53.4313L52.9451 26.8113C52.9451 26.8437 52.9451 26.9085 52.9127 26.9409L52.8479 27.3298C52.8155 27.4594 52.621 28.1723 53.3665 28.1723H53.4637L54.1119 25.1261L54.2091 24.64H55.0194V24.6076ZM58.6816 23.927C58.1307 23.927 57.6121 24.1215 57.2232 24.4779C56.6398 24.9965 56.3157 25.8715 56.3157 26.6816C56.3157 27.589 56.8991 28.1075 57.8066 28.1075C58.39 28.1075 58.8761 27.8807 59.265 27.5566C59.8484 27.0381 60.2049 26.1631 60.2049 25.3529C60.1725 24.4779 59.5891 23.927 58.6816 23.927ZM58.6816 27.1677C58.4548 27.3946 58.1955 27.589 57.8714 27.589C57.3528 27.589 57.0936 27.2325 57.0936 26.6816C57.0936 26.0983 57.3204 25.3853 57.7094 24.9316C57.9362 24.6724 58.1955 24.5104 58.5196 24.5104C59.0382 24.5104 59.265 24.8668 59.265 25.3853C59.3298 25.9687 59.103 26.6816 58.6816 27.1677ZM56.0241 23.3761C56.3157 23.3761 56.6398 23.0844 56.6398 22.7928C56.6398 22.5659 56.4454 22.4039 56.2185 22.4039C55.9268 22.4039 55.6027 22.6956 55.6027 22.9872C55.6027 23.1817 55.7648 23.3761 56.0241 23.3761ZM55.5055 23.9918L55.3759 24.5752L54.9545 26.4872L54.8897 26.714L54.8573 26.9409L54.7925 27.265C54.7601 27.3946 54.5656 28.1075 55.311 28.1075H55.4083L55.6027 27.265L55.6675 26.9085L56.2833 23.9918H55.5055ZM62.8301 23.927C62.2467 23.927 61.7282 24.2187 61.4689 24.6076V24.0243H61.1448H60.8855C60.8855 24.0243 60.8855 24.2187 60.8207 24.6076L60.5614 25.8715L60.0753 28.0751H60.8855L61.242 26.39C61.3717 25.8066 61.5013 25.3529 61.7282 25.0613C61.9226 24.7696 62.2467 24.5752 62.6032 24.5752C62.7977 24.5752 62.9597 24.6076 63.057 24.7048C63.1542 24.8344 63.219 24.9641 63.219 25.1585C63.219 25.3205 63.1866 25.515 63.1218 25.8066L62.9597 26.5844L62.8949 26.9733L62.8301 27.3298C62.7977 27.4594 62.6356 28.1723 63.3486 28.1723H63.4783L63.6727 27.3298L63.8672 26.39L63.9644 25.8715C64.0292 25.5798 64.0617 25.3205 64.0617 25.0937C64.0617 24.3159 63.5431 23.927 62.8301 23.927ZM46.6577 19.2604C46.6577 18.0938 47.3383 16.3114 48.5698 16.3114C49.1856 16.3114 49.3477 16.7327 49.3153 17.2512L50.1903 17.2188C50.1903 17.154 50.1903 17.1216 50.1903 17.0567C50.1903 16.0521 49.4773 15.6308 48.6346 15.6308C46.8197 15.6308 45.7502 17.6401 45.7502 19.2928C45.7502 20.4919 46.4632 21.1076 47.6299 21.1076C48.2133 21.1076 48.8291 20.9132 49.2828 20.6539L49.4125 19.941C48.9587 20.2326 48.343 20.4271 47.792 20.4271C47.0142 20.4595 46.6577 20.0058 46.6577 19.2604ZM54.5656 16.9595L54.2091 18.6447C54.0795 19.228 53.9498 19.6817 53.723 20.0058C53.5285 20.2974 53.2044 20.4919 52.8479 20.4919C52.6534 20.4919 52.459 20.4271 52.3618 20.3299C52.2645 20.2326 52.1997 20.0706 52.1997 19.9086C52.1997 19.7789 52.2321 19.5521 52.2969 19.2604L52.7831 16.9919H51.9728L51.4867 19.2604C51.4219 19.5521 51.3895 19.8113 51.3895 20.0382C51.3895 20.7511 51.8756 21.1724 52.621 21.1724C53.1072 21.1724 53.5609 20.9456 53.8202 20.6863C53.8202 20.9132 53.9822 21.1724 54.4036 21.1724H54.5332L54.8249 19.8113L55.4083 17.0243H54.5656V16.9595ZM50.9033 15.6632L50.482 17.6401L49.931 20.2974C49.8986 20.4271 49.7042 21.14 50.4496 21.14H50.5468L51.7136 15.6957H50.9033V15.6632ZM57.8066 16.8947C57.3528 16.8947 56.8991 17.1216 56.6398 17.4132L56.9963 15.6957H56.1861L55.1166 20.7836C55.5055 21.0104 56.0889 21.14 56.575 21.14C58.1631 21.14 59.1354 19.8438 59.1354 18.3206C59.103 17.5104 58.6492 16.8947 57.8066 16.8947ZM56.6398 20.5567C56.413 20.5567 56.1213 20.4919 56.0241 20.4271L56.3157 19.1308C56.413 18.6123 56.6074 18.1586 56.8343 17.8669C57.0612 17.6401 57.3204 17.478 57.6121 17.478C58.0335 17.478 58.2927 17.7697 58.2927 18.353C58.2927 19.4549 57.6769 20.5567 56.6398 20.5567ZM51.1626 8.17723L50.8061 9.82999C50.7413 9.79758 50.6116 9.79758 50.482 9.79758C49.2504 9.79758 48.4078 10.7698 48.4078 11.904C48.4078 12.5846 48.8291 13.0059 49.4773 13.0059C49.8662 13.0059 50.1903 12.8438 50.3524 12.6494C50.4172 12.8762 50.644 12.9735 50.9033 12.9735H51.0006L52.0377 8.17723H51.1626ZM50.4496 11.6448C50.4172 11.8716 50.32 12.0661 50.2227 12.1957C50.0931 12.3253 49.9634 12.3901 49.769 12.3901C49.4773 12.3901 49.3153 12.1957 49.3153 11.8392C49.3153 11.0939 49.8338 10.3161 50.5144 10.3161C50.6116 10.3161 50.7089 10.3161 50.7737 10.3485L50.4496 11.6448ZM48.1485 8.53371C47.8568 8.53371 47.5651 8.79297 47.5651 9.08463C47.5651 9.31148 47.7272 9.47351 47.954 9.47351C48.2457 9.47351 48.5374 9.21426 48.5374 8.89019C48.5374 8.69574 48.3754 8.53371 48.1485 8.53371ZM45.3289 12.1309C45.2964 12.2605 45.102 13.0059 45.8798 13.0059H45.9771L46.8845 8.76056H46.0419L45.3289 12.1309ZM46.9818 12.1309C46.9493 12.2605 46.7549 13.0059 47.5327 13.0059H47.6624L48.3105 9.8624H47.4679L46.9818 12.1309ZM43.9352 9.79758C43.4815 9.79758 43.0926 9.95962 42.8009 10.1865C42.3148 10.5754 42.0555 11.1911 42.0555 11.8716C42.0555 12.617 42.574 13.0059 43.287 13.0059C43.7408 13.0059 44.1297 12.8762 44.4214 12.617C44.9075 12.2281 45.1668 11.6124 45.1668 10.9318C45.1344 10.1541 44.6158 9.79758 43.9352 9.79758ZM43.8704 12.1309C43.7408 12.3253 43.5463 12.4225 43.3519 12.4225C42.9954 12.4225 42.8657 12.1957 42.8657 11.8392C42.8657 11.4827 42.9954 10.9642 43.2546 10.6402C43.3843 10.4457 43.5787 10.3485 43.7732 10.3485C44.1297 10.3485 44.2269 10.5754 44.2269 10.8994C44.2918 11.2559 44.1621 11.8068 43.8704 12.1309ZM53.8526 9.79758C52.6859 9.79758 51.7784 10.7374 51.7784 11.904C51.7784 12.5846 52.1673 13.0059 52.8155 13.0059C53.2044 13.0059 53.5285 12.8438 53.723 12.6494C53.7878 12.8762 53.9822 12.9735 54.2415 12.9735H54.3388L54.9545 10.0892C54.598 9.8948 54.2415 9.79758 53.8526 9.79758ZM53.7554 11.6448C53.723 11.8716 53.6257 12.0661 53.5285 12.1957C53.3989 12.3253 53.2692 12.3901 53.0748 12.3901C52.7831 12.3901 52.6534 12.1957 52.6534 11.8392C52.6534 11.1911 53.1396 10.3161 53.8526 10.3161C53.9498 10.3161 54.0147 10.3161 54.0471 10.3485L53.7554 11.6448ZM66.4276 9.76518C66.0386 9.76518 65.6821 9.95962 65.4553 10.1865L65.3904 9.82999H64.7423C64.7423 10.0892 64.7098 10.4457 64.5802 10.9966L64.1913 12.9087H65.0339L65.3256 11.5152C65.3904 11.1263 65.5525 10.3809 66.1359 10.3809C66.4276 10.3809 66.5896 10.5753 66.4924 10.9966L66.2655 12.0661C66.2331 12.1957 66.0386 12.9411 66.7841 12.9411H66.9137L67.335 10.9642C67.5295 10.1217 67.0758 9.76518 66.4276 9.76518ZM57.3204 11.2235C57.2232 11.6124 57.0936 12.3577 56.5102 12.3577C55.9916 12.3577 56.1537 11.7744 56.1861 11.6124L56.575 9.82999H55.7324L55.3434 11.58C55.311 11.7744 55.2786 11.9689 55.2786 12.1309C55.2786 12.3577 55.3759 12.5522 55.5055 12.6818C55.0194 12.8114 54.7925 13.0707 54.7925 13.4272C54.7925 13.9457 55.311 14.2697 56.0241 14.2697C56.6398 14.2697 57.126 14.0753 57.4177 13.7188C57.6769 13.4272 57.8066 13.0707 57.9362 12.5198L58.5196 9.82999H57.6769L57.3204 11.2235ZM56.9639 12.9087C56.8991 13.1679 56.7695 13.3948 56.6074 13.5568C56.4454 13.7188 56.2185 13.7836 55.9916 13.7836C55.7 13.7836 55.4407 13.654 55.4407 13.3948C55.4407 13.0707 55.7648 13.0059 56.2185 12.9411C56.5426 12.9087 56.8343 12.8114 56.9963 12.6818L56.9639 12.9087ZM63.0245 9.76518C62.6356 9.76518 62.2791 9.95962 62.0523 10.1865L61.9874 9.82999H61.3392C61.3392 10.0892 61.3068 10.4457 61.1772 10.9966L60.7559 12.9087H61.5985L61.8902 11.5152C61.9874 11.1263 62.1171 10.3809 62.7004 10.3809C62.9921 10.3809 63.1542 10.5753 63.057 10.9966L62.8301 12.0661C62.7977 12.1957 62.6032 12.9411 63.3811 12.9411H63.4783L63.8996 10.9642C64.0941 10.1217 63.6727 9.76518 63.0245 9.76518ZM60.2049 8.0476L59.3623 12.1309C59.3298 12.2605 59.1354 13.0059 59.9132 13.0059H60.0104L61.0476 8.0476H60.2049ZM41.5045 8.0152L41.1156 9.82999C40.4674 9.95962 40.0137 10.0568 39.5275 10.1865L39.5923 9.82999L39.9813 8.0152H39.1386L38.6201 10.5429C38.4904 10.6078 38.3608 10.6726 38.2311 10.7374C38.0043 10.867 37.9395 11.029 37.907 11.1263C37.907 11.1911 37.8746 11.2883 37.907 11.3531C38.1015 11.2883 38.3284 11.1911 38.5228 11.1263L38.3284 12.0985C38.296 12.2281 38.1015 12.9735 38.8793 12.9735H39.009L39.4303 10.8994C39.9164 10.7698 40.3702 10.6726 40.986 10.5429V10.5754L40.6619 12.0985C40.6295 12.2281 40.435 12.9735 41.2128 12.9735H41.3425L42.3796 8.0152H41.5045Z" fill="#D9531E"></path>
    <path d="M66.0711 24.3159C66.3952 24.3159 66.8165 24.4131 67.0758 24.5428L67.2054 23.9918C66.9461 23.8622 66.4924 23.765 66.1359 23.765C65.1312 23.765 64.4182 24.2835 64.4182 25.0289C64.4182 25.6122 64.8719 25.9038 65.358 26.1307C65.909 26.39 66.1359 26.5196 66.1359 26.8112C66.1359 27.1677 65.8118 27.427 65.196 27.427C64.7747 27.427 64.3209 27.3298 63.9968 27.0705L63.8672 27.6538C64.2237 27.8807 64.7098 27.9779 65.1636 27.9779C66.1683 27.9779 66.9137 27.4918 66.9137 26.6816C66.9137 26.1307 66.5248 25.839 65.8766 25.5474C65.4553 25.3529 65.1636 25.1909 65.1636 24.8992C65.1636 24.5752 65.5201 24.3159 66.0711 24.3159ZM45.653 26.4548C45.653 25.6446 46.2039 24.3159 47.1114 24.3159C47.5003 24.3159 47.6948 24.5752 47.6624 25.0613L48.4726 25.0289C48.4726 24.9965 48.4726 24.964 48.4726 24.8992C48.4726 24.1539 47.9216 23.7326 47.2086 23.7326C45.7502 23.7326 44.8427 25.1585 44.8427 26.4548C44.8427 27.4594 45.5233 27.9131 46.4956 27.9131C46.9818 27.9131 47.5003 27.751 47.8244 27.5242L47.954 26.9085C47.5327 27.1677 47.0142 27.3298 46.6252 27.3298C45.9771 27.3946 45.653 27.0705 45.653 26.4548ZM41.0832 22.5983L39.1386 26.3575C39.0738 26.4872 39.009 26.6492 38.9442 26.8112L38.9117 26.2603L38.5876 22.5983H37.6802L38.0691 26.4872L38.1015 26.6492L38.1339 27.1029C38.1339 27.2649 38.1663 28.1399 39.171 27.7835L41.9907 22.5659H41.0832V22.5983ZM44.8103 24.2511L44.8427 24.0567C44.4862 23.8622 44.0649 23.765 43.6111 23.765C43.5787 23.765 43.5787 23.765 43.5463 23.765C41.9907 23.7974 40.8563 25.1261 40.8563 26.5196C40.8563 27.3946 41.3749 27.9455 42.1851 27.9455C42.6389 27.9455 43.0602 27.751 43.287 27.5242C43.3195 27.751 43.4491 27.9455 43.8704 27.9455H43.9677L44.4214 25.9038L44.8103 24.2511ZM43.5787 26.1307C43.4815 26.5196 43.3843 26.8437 43.1898 27.0705C42.9954 27.2649 42.7685 27.427 42.412 27.427C41.9583 27.427 41.699 27.1353 41.699 26.552C41.699 25.3529 42.6389 24.3483 43.5139 24.3483C43.676 24.3483 43.838 24.3807 43.9028 24.4455L43.5787 26.1307ZM51.1626 23.765C51.1626 23.765 51.1302 23.765 51.0978 23.765C49.5745 23.7974 48.4078 25.1261 48.4078 26.5196C48.4078 27.3946 48.9263 27.9455 49.7366 27.9455C50.1903 27.9455 50.5792 27.751 50.8385 27.5242C50.8709 27.751 51.0006 27.9455 51.3895 27.9455H51.5191L51.9404 25.9038L52.2969 24.2187L52.3294 24.0242C52.0377 23.8946 51.6163 23.765 51.1626 23.765ZM51.1302 26.1307C51.033 26.5196 50.9357 26.8437 50.7413 27.0705C50.5468 27.2649 50.2875 27.427 49.9634 27.427C49.5097 27.427 49.2504 27.1353 49.2504 26.552C49.2504 25.3529 50.1903 24.3483 51.0654 24.3483C51.2274 24.3483 51.3895 24.3807 51.4543 24.4455L51.1302 26.1307ZM54.8897 24.4455L55.0194 23.8622H54.2739L54.5656 22.5983H54.5008H53.7554L53.4961 23.8622H52.8803L52.7507 24.4455H53.3665L52.8803 26.6168C52.8803 26.6492 52.8803 26.6816 52.8479 26.7464L52.7507 27.1353C52.7183 27.2649 52.5238 27.9779 53.2692 27.9779H53.3665L54.0147 24.9316L54.1119 24.4455H54.8897ZM58.552 23.765C57.9686 23.765 57.4825 23.9594 57.0936 24.3159C56.5102 24.8344 56.1861 25.7094 56.1861 26.5196C56.1861 27.427 56.7695 27.9455 57.677 27.9455C58.2603 27.9455 58.7465 27.751 59.1354 27.3946C59.7188 26.8437 60.0753 26.0011 60.0753 25.1909C60.0429 24.2835 59.4595 23.765 58.552 23.765ZM58.5844 27.0057C58.3575 27.2325 58.0983 27.3946 57.7742 27.3946C57.2556 27.3946 57.0288 27.0705 57.0288 26.5196C57.0288 25.9363 57.2556 25.2233 57.6445 24.7372C57.8714 24.5103 58.1307 24.3159 58.4548 24.3159C58.9733 24.3159 59.2326 24.6724 59.2326 25.1909C59.2002 25.8066 59.0057 26.5196 58.5844 27.0057ZM55.8944 23.2141C56.1861 23.2141 56.5102 22.9224 56.5102 22.6307C56.5102 22.4039 56.3157 22.2419 56.0889 22.2419C55.7648 22.2419 55.5055 22.5335 55.5055 22.8252C55.5055 23.0196 55.6675 23.2141 55.8944 23.2141ZM55.4083 23.8298L55.2786 24.4131L54.8573 26.3251L54.8249 26.552L54.7601 26.7788L54.6953 27.1029C54.6628 27.2325 54.4684 27.9455 55.2138 27.9455H55.311L55.5055 27.1029L55.5703 26.7464L56.1861 23.8298H55.4083ZM62.7329 23.765C62.1495 23.765 61.6633 24.0567 61.4041 24.4455V23.8298H61.0476H60.7559C60.7559 23.8298 60.7559 24.0242 60.691 24.4131L60.4318 25.677L59.9456 27.8807H60.7559L61.1124 26.1955C61.242 25.6122 61.3717 25.1585 61.5985 24.8668C61.793 24.5752 62.1171 24.3807 62.4412 24.3807C62.6356 24.3807 62.7977 24.4131 62.9273 24.5428C63.0245 24.64 63.0894 24.802 63.0894 24.964C63.0894 25.0937 63.057 25.3205 62.9921 25.6122L62.8301 26.39L62.7653 26.7464L62.7005 27.1029C62.668 27.2325 62.506 27.9455 63.219 27.9455H63.3162L63.5107 27.1029L63.7051 26.1631L63.8024 25.6446C63.8672 25.3529 63.8996 25.0937 63.8996 24.8668C63.932 24.1539 63.4459 23.765 62.7329 23.765ZM46.528 19.0984C46.528 17.9641 47.2086 16.1493 48.4402 16.1493C49.056 16.1493 49.218 16.603 49.1856 17.0891L50.0607 17.0567C50.0607 17.0243 50.0607 16.9595 50.0607 16.8947C50.0607 15.8901 49.3477 15.4688 48.505 15.4688C46.6901 15.4688 45.6205 17.478 45.6205 19.0984C45.6205 20.2974 46.3011 20.9132 47.5003 20.9132C48.0837 20.9132 48.6995 20.7511 49.1532 20.4595L49.3153 19.7465C48.8615 20.0382 48.2457 20.265 47.6948 20.265C46.9169 20.3298 46.528 19.8761 46.528 19.0984ZM54.4684 16.8299L54.1119 18.5151C53.9822 19.0984 53.8526 19.5521 53.6257 19.8761C53.4313 20.1678 53.1072 20.3623 52.7507 20.3623C52.5562 20.3623 52.3942 20.2974 52.2969 20.2002C52.1997 20.103 52.1349 19.941 52.1349 19.7789C52.1349 19.6493 52.1673 19.4225 52.2321 19.1308L52.7183 16.8623H51.908L51.4219 19.1308C51.3571 19.4225 51.2922 19.6817 51.2922 19.9086C51.2922 20.6539 51.8108 21.0428 52.5238 21.0428C53.01 21.0428 53.4637 20.8159 53.723 20.5567C53.723 20.7835 53.885 21.0104 54.3063 21.0104H54.4036L54.6953 19.6493L55.2786 16.8947H54.4684V16.8299ZM50.8061 15.5336L50.3848 17.5104L49.8338 20.1354C49.8014 20.265 49.6069 20.978 50.3524 20.978H50.4496L51.6163 15.5336H50.8061ZM57.7094 16.7651C57.2556 16.7651 56.8019 16.9919 56.5426 17.2836L56.8991 15.566H56.0565L54.9869 20.6539C55.4083 20.8808 55.9592 21.0104 56.4454 21.0104C58.0335 21.0104 59.0057 19.7141 59.0057 18.191C59.0057 17.3808 58.552 16.7651 57.7094 16.7651ZM56.5102 20.4271C56.2833 20.4271 55.9916 20.3623 55.8944 20.2974L56.1537 19.0012C56.2833 18.4826 56.4454 18.0289 56.6722 17.7373C56.8991 17.478 57.1584 17.3484 57.4501 17.3484C57.8714 17.3484 58.1307 17.6401 58.1307 18.2234C58.1631 19.2928 57.5473 20.4271 56.5102 20.4271ZM51.0654 8.04759L50.7089 9.70035C50.6116 9.66794 50.482 9.66794 50.3848 9.66794C49.1856 9.66794 48.3105 10.6402 48.3105 11.7744C48.3105 12.4549 48.7319 12.8762 49.3801 12.8762C49.769 12.8762 50.0931 12.7142 50.2551 12.5198C50.3199 12.7466 50.5144 12.8438 50.7737 12.8438H50.8709L51.908 8.04759H51.0654ZM50.3199 11.5151C50.2551 11.742 50.1903 11.9364 50.0607 12.0661C49.931 12.1957 49.8014 12.2605 49.6069 12.2605C49.3152 12.2605 49.1532 12.0661 49.1532 11.7096C49.1532 10.9642 49.6718 10.1865 50.3199 10.1865C50.4172 10.1865 50.5468 10.1865 50.5792 10.2189L50.3199 11.5151ZM48.0513 8.40407C47.7596 8.40407 47.4679 8.66333 47.4679 8.9874C47.4679 9.21425 47.6299 9.34387 47.8244 9.34387C48.1161 9.34387 48.4078 9.08462 48.4078 8.79295C48.4078 8.56611 48.2457 8.40407 48.0513 8.40407ZM45.2316 12.0012C45.1992 12.1309 45.0048 12.8762 45.7826 12.8762H45.8798L46.7873 8.63092H45.9446L45.2316 12.0012ZM46.8521 12.0012C46.8197 12.1309 46.6252 12.8762 47.4031 12.8762H47.5003L48.1809 9.73276H47.3383L46.8521 12.0012ZM43.8056 9.66794C43.3519 9.66794 42.963 9.82998 42.6713 10.0568C42.2175 10.4457 41.9258 11.0614 41.9258 11.742C41.9258 12.4874 42.4444 12.8762 43.125 12.8762C43.5787 12.8762 43.9677 12.7142 44.2593 12.4874C44.7455 12.0985 45.0048 11.4503 45.0048 10.8022C45.0372 10.0244 44.5186 9.66794 43.8056 9.66794ZM43.7732 12.0012C43.6436 12.1633 43.4491 12.2929 43.2546 12.2929C42.8981 12.2929 42.7685 12.0661 42.7685 11.7096C42.7685 11.3531 42.8981 10.8346 43.1574 10.5105C43.2871 10.3161 43.4815 10.2189 43.676 10.2189C44.0001 10.2189 44.1297 10.4457 44.1297 10.8022C44.1621 11.1263 44.0325 11.6772 43.7732 12.0012ZM53.723 9.66794C52.5562 9.66794 51.6487 10.6077 51.6487 11.7744C51.6487 12.4549 52.0377 12.8762 52.6859 12.8762C53.0748 12.8762 53.3989 12.7142 53.5609 12.5198C53.6257 12.7466 53.8202 12.8438 54.0795 12.8438H54.2091L54.8249 9.95961C54.5008 9.76516 54.1443 9.66794 53.723 9.66794ZM53.6257 11.5151C53.5933 11.742 53.4961 11.9364 53.3989 12.0661C53.2692 12.1957 53.1396 12.2605 52.9451 12.2605C52.6534 12.2605 52.5238 12.0661 52.5238 11.7096C52.5238 11.0614 53.01 10.1865 53.723 10.1865C53.7878 10.1865 53.885 10.1865 53.9174 10.2189L53.6257 11.5151ZM66.3303 9.63554C65.9414 9.63554 65.5849 9.82998 65.358 10.0568L65.2932 9.70035H64.645C64.645 9.95961 64.6126 10.3161 64.483 10.867L64.0941 12.779H64.9367L65.2284 11.3855C65.3256 10.9966 65.4553 10.2513 66.0386 10.2513C66.3303 10.2513 66.4924 10.4457 66.3952 10.8994L66.1683 11.9688C66.1359 12.0985 65.9414 12.8438 66.7192 12.8438H66.8165L67.2378 10.867C67.4323 9.99201 66.9785 9.63554 66.3303 9.63554ZM57.2232 11.0939C57.1584 11.4827 56.9963 12.2281 56.413 12.2281C55.8944 12.2281 56.0565 11.6448 56.0889 11.4827L56.4454 9.70035H55.6027L55.2462 11.4503C55.2138 11.6448 55.1814 11.8392 55.1814 11.9688C55.1814 12.1957 55.2786 12.3901 55.3759 12.5198C54.8897 12.6494 54.6628 12.8762 54.6628 13.2651C54.6628 13.7836 55.1814 14.1077 55.8944 14.1077C56.5102 14.1077 56.9639 13.9133 57.288 13.5568C57.5149 13.2651 57.6769 12.8762 57.8066 12.3577L58.39 9.66794H57.5473L57.2232 11.0939ZM56.8343 12.779C56.7695 13.0383 56.6398 13.2651 56.4778 13.4272C56.3157 13.5892 56.0889 13.654 55.862 13.654C55.5703 13.654 55.3434 13.5244 55.3434 13.2651C55.3434 12.941 55.6675 12.8762 56.1213 12.8114C56.4454 12.779 56.7371 12.6818 56.8991 12.5522L56.8343 12.779ZM62.9273 9.63554C62.5384 9.63554 62.1819 9.82998 61.955 10.0568L61.8902 9.70035H61.242C61.242 9.95961 61.2096 10.3161 61.08 10.867L60.6586 12.779H61.5013L61.793 11.3855C61.8578 10.9966 62.0198 10.2513 62.6032 10.2513C62.8949 10.2513 63.057 10.4457 62.9597 10.8994L62.7329 11.9688C62.7004 12.0985 62.506 12.8438 63.2514 12.8438H63.3811L63.8024 10.867C63.9968 9.99201 63.5431 9.63554 62.9273 9.63554ZM60.1077 7.88556L59.265 11.9688C59.2326 12.0985 59.0382 12.8438 59.816 12.8438H59.9132L60.9503 7.88556H60.1077ZM41.3749 7.88556L41.0184 9.70035C40.3702 9.82998 39.9164 9.9272 39.4303 10.0568L39.4951 9.70035L39.884 7.88556H39.0414L38.5228 10.4133C38.3932 10.4781 38.2636 10.5105 38.1339 10.6077C37.907 10.7374 37.8098 10.8994 37.7774 10.9966C37.7774 11.0614 37.745 11.1587 37.7774 11.2235C37.9719 11.1587 38.1663 11.0614 38.3608 10.9966L38.1663 11.9688C38.1339 12.0985 37.9395 12.8438 38.7173 12.8438H38.8469L39.2683 10.7698C39.7544 10.6402 40.2081 10.5429 40.8563 10.4133V10.4457L40.5322 11.9688C40.4998 12.0985 40.3054 12.8438 41.0832 12.8438H41.2128L42.2499 7.88556H41.3749Z" fill="#FFFFFF"></path>
  </symbol></defs>
                                        <use xlink:href="#svgsprite-logos-cv">
                                            <title id="title-logos-cv">Selecting will reload the Holiday Inn Club Vacations website in this browser window.</title>
                                            <desc id="desc-logos-cv">Selecting will reload the Holiday Inn Club Vacations website in this browser window.</desc>
                                        </use>
                                    </svg>