<svg id="Layer_1" data-name="Layer 1" xmlns="http://www.w3.org/2000/svg" viewBox="0 0 100 21.47"><path d="M39.16,31.36V15.85h9.45v2.41H41.8v4.06H48v2.33H41.8V29h6.81v2.41ZM67.77,15.85H64.83L60.49,26,56.13,15.85h-3l7.08,15.51h.53ZM82,31.36V29H75.21v-4.3h6.15V22.32H75.21V18.26H82V15.85H72.56V31.36Zm19.13,0V15.85H98.51v9.8l-9.31-9.8h-.7V31.36h2.65V21.41l9.43,10ZM25,15.85H21V31.36h4Zm-6.62,6h-4V37.32h4Zm-6.61-6h-4V31.36h4ZM5.12,18.49h-4V34h4Z" transform="translate(-1.15 -15.85)" style="fill:#164a45"/></svg>