<svg id="Layer_1" data-name="Layer 1" xmlns="http://www.w3.org/2000/svg" viewBox="0 0 100 53.74"><path d="M43.55,23.67h0a.3.3,0,0,1-.24-.28,15.77,15.77,0,0,1,3.91-10.45,13.92,13.92,0,0,0-8.26-3.46.27.27,0,0,1-.27-.24.28.28,0,0,1,.19-.31A15.79,15.79,0,0,1,50,9.42,13.89,13.89,0,0,0,50.72.5a.29.29,0,0,1,.14-.34.29.29,0,0,1,.36.09A15.85,15.85,0,0,1,54.2,11a13.83,13.83,0,0,0,8.71-2.06.28.28,0,0,1,.39.4A15.74,15.74,0,0,1,54,15.49a13.82,13.82,0,0,0,4.65,7.65.29.29,0,0,1-.26.5,15.75,15.75,0,0,1-8.73-6.95,13.9,13.9,0,0,0-5.84,6.79.29.29,0,0,1-.27.19" transform="translate(-1 -0.13)" style="fill:#3aa597"/><path d="M2.3,42.5H1V33.09H2.3Zm4.89,0V33.09h5.56a2.87,2.87,0,0,1,2.12.78,2.16,2.16,0,0,1,.63,1.58,2.1,2.1,0,0,1-.3,1.1,2,2,0,0,1-.67.69v.08a2.46,2.46,0,0,1,1.05.85,2.65,2.65,0,0,1-.38,3.5A3.25,3.25,0,0,1,13,42.5Zm6.62-8a1.76,1.76,0,0,0-1.16-.39H8.49V36.9H12.9a1.29,1.29,0,0,0,1-.44,1.41,1.41,0,0,0,.34-.94,1.36,1.36,0,0,0-.4-1m.59,4A1.75,1.75,0,0,0,13,38H8.49v3.48H13a1.88,1.88,0,0,0,1.36-.51,1.71,1.71,0,0,0,.47-1.23,1.67,1.67,0,0,0-.39-1.14m5.86-5.46h8v1.09H21.56V37h6l-.31,1.1h-5.7V41.4h6.89v1.1H20.26Zm17.24,0a3.55,3.55,0,0,1,2.6,1,3.31,3.31,0,0,1-.05,4.42,3.22,3.22,0,0,1-1.35.85l2,3.17H39.25l-1.79-3H33.84v3h-1.3V33.09Zm1.63,1.74a2.08,2.08,0,0,0-1.63-.65H33.84v4.26h3.62a2.17,2.17,0,0,0,1.59-.6,2.1,2.1,0,0,0,.56-1.54,2.14,2.14,0,0,0-.48-1.47m6.75-.6a5.35,5.35,0,0,1,3.77-1.32,5.46,5.46,0,0,1,3.65,1.21,4.8,4.8,0,0,1,1.4,3.67,5,5,0,0,1-1.11,3.39,5.18,5.18,0,0,1-3.94,1.49,5.41,5.41,0,0,1-3.75-1.28,4.88,4.88,0,0,1-1.3-3.6,4.9,4.9,0,0,1,1.28-3.56m6.54.69A4.09,4.09,0,0,0,49.65,34a3.94,3.94,0,0,0-2.79.94,3.88,3.88,0,0,0-1,2.84,4,4,0,0,0,.85,2.73,3.87,3.87,0,0,0,2.9,1,3.92,3.92,0,0,0,2.92-1.06,4.2,4.2,0,0,0,.83-2.72,4,4,0,0,0-1-2.87m16.79-1.83h9.31v1.09h-4V42.5h-1.3V34.18h-4Zm16,0,4.26,9.41H88.08l-.83-1.84H81.53L80.7,42.5H79.37l4.26-9.41ZM82,39.57h4.75l-2.33-5.28h-.1Zm15.56-6.48a3.52,3.52,0,0,1,2.6,1,3.17,3.17,0,0,1,.82,2.26,3.13,3.13,0,0,1-.86,2.16,3.35,3.35,0,0,1-1.35.85l2,3.17H99.34l-1.79-3H93.93v3H92.62V33.09Zm1.63,1.74a2.08,2.08,0,0,0-1.63-.65H93.93v4.26h3.62a2.15,2.15,0,0,0,1.58-.6,2.11,2.11,0,0,0,.57-1.54,2.14,2.14,0,0,0-.49-1.47M59.08,33.74a5.94,5.94,0,0,1,3.54-.83,8.84,8.84,0,0,1,3.57.66v1.09A10.72,10.72,0,0,0,62.65,34a5.05,5.05,0,0,0-2.62.5,1,1,0,0,0-.51.89.86.86,0,0,0,.39.79,3.25,3.25,0,0,0,1.43.45l2.22.36a5.28,5.28,0,0,1,2.72,1,2.31,2.31,0,0,1,.64,1.74,2.36,2.36,0,0,1-1.13,2.11,6.73,6.73,0,0,1-3.68.81A10.61,10.61,0,0,1,58.34,42l0-1.11a12.09,12.09,0,0,0,3.71.67A5.44,5.44,0,0,0,64.93,41a1.37,1.37,0,0,0,.69-1.27c0-1.08-1-1.28-2.21-1.47L61,37.87a4.19,4.19,0,0,1-2-.72,1.92,1.92,0,0,1-.76-1.6,2.14,2.14,0,0,1,.87-1.81" transform="translate(-1 -0.13)" style="fill:#3aa597"/><path d="M5.37,53.79V49.63H7.61a1.29,1.29,0,0,1,.93.34,1,1,0,0,1,.28.71,1,1,0,0,1-.13.48,1,1,0,0,1-.3.31v0a1.13,1.13,0,0,1,.68,1.06,1.13,1.13,0,0,1-.38.86,1.44,1.44,0,0,1-1,.37Zm2.7-3.52a.78.78,0,0,0-.51-.17H6v1.21H7.67a.56.56,0,0,0,.43-.19.62.62,0,0,0,.15-.42.58.58,0,0,0-.18-.43M8.34,52a.8.8,0,0,0-.61-.26H6v1.54H7.7a.8.8,0,0,0,.6-.23.75.75,0,0,0,.21-.54A.77.77,0,0,0,8.34,52" transform="translate(-1 -0.13)" style="fill:#3aa597"/><polygon points="9.71 49.5 13 49.5 13 49.98 10.28 49.98 10.28 51.22 12.71 51.22 12.71 51.7 10.28 51.7 10.28 53.17 13.1 53.17 13.1 53.66 9.71 53.66 9.71 49.5" style="fill:#3aa597"/><path d="M18.18,49.63l1.89,4.16h-.61L19.09,53H16.5l-.37.81h-.59l1.89-4.16Zm-1.47,2.86h2.17l-1-2.33h-.11Z" transform="translate(-1 -0.13)" style="fill:#3aa597"/><path d="M21.88,50.06a2.61,2.61,0,0,1,1.66-.51,3.25,3.25,0,0,1,1.44.3l-.19.42A3.45,3.45,0,0,0,23.56,50a2,2,0,0,0-1.3.41,1.59,1.59,0,0,0-.54,1.26,1.63,1.63,0,0,0,.44,1.15,1.91,1.91,0,0,0,1.4.52,3.37,3.37,0,0,0,1.23-.23l.19.41a3.22,3.22,0,0,1-1.44.31,2.58,2.58,0,0,1-1.79-.62,2.08,2.08,0,0,1-.6-1.54,2,2,0,0,1,.73-1.65" transform="translate(-1 -0.13)" style="fill:#3aa597"/><polygon points="29.25 49.5 29.25 53.66 28.68 53.66 28.68 51.68 26.09 51.68 26.09 53.66 25.52 53.66 25.52 49.5 26.09 49.5 26.09 51.19 28.68 51.19 28.68 49.5 29.25 49.5" style="fill:#3aa597"/><polygon points="34.28 49.5 34.28 49.98 31.66 49.98 31.66 51.3 34 51.3 34 51.79 31.66 51.79 31.66 53.66 31.09 53.66 31.09 49.5 34.28 49.5" style="fill:#3aa597"/><path d="M38.87,49.63a1.58,1.58,0,0,1,1.16.43,1.43,1.43,0,0,1,.36,1A1.37,1.37,0,0,1,40,52a1.62,1.62,0,0,1-.6.38l.88,1.4h-.64l-.79-1.31H37.39v1.31h-.57V49.63Zm.73.77a1,1,0,0,0-.73-.29H37.39V52h1.47a1,1,0,0,0,.7-.26.93.93,0,0,0,.25-.68,1,1,0,0,0-.21-.65" transform="translate(-1 -0.13)" style="fill:#3aa597"/><path d="M42.41,50.13a2.44,2.44,0,0,1,3.11,0,2.13,2.13,0,0,1,.62,1.62,2.22,2.22,0,0,1-.5,1.5,2.08,2.08,0,0,1-1.65.66,2,2,0,0,1-2.14-2.16,2.2,2.2,0,0,1,.56-1.58m2.72.31a1.82,1.82,0,0,0-2.29,0,1.75,1.75,0,0,0-.42,1.26,1.79,1.79,0,0,0,.38,1.21,1.77,1.77,0,0,0,2.39,0,1.81,1.81,0,0,0,.37-1.2,1.74,1.74,0,0,0-.43-1.27" transform="translate(-1 -0.13)" style="fill:#3aa597"/><polygon points="50.6 49.5 50.6 53.66 50.02 53.66 47.34 50.32 47.34 53.66 46.78 53.66 46.78 49.5 47.35 49.5 50.04 52.82 50.04 49.5 50.6 49.5" style="fill:#3aa597"/><polygon points="52.1 49.5 56.13 49.5 56.13 49.98 54.4 49.98 54.4 53.66 53.83 53.66 53.83 49.98 52.1 49.98 52.1 49.5" style="fill:#3aa597"/><path d="M63.44,49.63a1.54,1.54,0,0,1,1.15.43,1.39,1.39,0,0,1,.36,1,1.33,1.33,0,0,1-.38.95,1.5,1.5,0,0,1-.59.38l.88,1.4h-.64l-.79-1.31H62v1.31h-.57V49.63Zm.72.77a.92.92,0,0,0-.72-.29H62V52h1.47a1,1,0,0,0,.7-.26,1.06,1.06,0,0,0,0-1.33" transform="translate(-1 -0.13)" style="fill:#3aa597"/><polygon points="65.6 49.5 68.9 49.5 68.9 49.98 66.18 49.98 66.18 51.22 68.61 51.22 68.61 51.7 66.18 51.7 66.18 53.17 69 53.17 69 53.66 65.6 53.66 65.6 49.5" style="fill:#3aa597"/><path d="M71.84,49.92a2.62,2.62,0,0,1,1.57-.37,3.87,3.87,0,0,1,1.58.29l-.17.43a4.37,4.37,0,0,0-1.4-.23,2.17,2.17,0,0,0-1.16.23.43.43,0,0,0-.22.39.39.39,0,0,0,.17.35,1.46,1.46,0,0,0,.63.2l1,.16a2.24,2.24,0,0,1,1.2.44,1,1,0,0,1,.28.77,1,1,0,0,1-.5.93,3,3,0,0,1-1.63.36,5.07,5.07,0,0,1-1.71-.29l.16-.45a5.25,5.25,0,0,0,1.54.24,2.53,2.53,0,0,0,1.26-.24.61.61,0,0,0,.31-.57c0-.48-.44-.57-1-.65l-1.08-.17a1.83,1.83,0,0,1-.89-.32.82.82,0,0,1-.33-.7.94.94,0,0,1,.38-.8" transform="translate(-1 -0.13)" style="fill:#3aa597"/><path d="M77.31,50.13a2.43,2.43,0,0,1,3.1,0A2.09,2.09,0,0,1,81,51.71a2.22,2.22,0,0,1-.49,1.5,2.08,2.08,0,0,1-1.65.66,2.25,2.25,0,0,1-1.58-3.74m2.71.31a1.57,1.57,0,0,0-1.13-.4,1.54,1.54,0,0,0-1.15.41,1.71,1.71,0,0,0-.42,1.26,1.79,1.79,0,0,0,.37,1.21,1.55,1.55,0,0,0,1.2.46,1.52,1.52,0,0,0,1.2-.47,1.87,1.87,0,0,0,.36-1.2A1.74,1.74,0,0,0,80,50.44" transform="translate(-1 -0.13)" style="fill:#3aa597"/><path d="M84.73,49.63a1.54,1.54,0,0,1,1.15.43,1.39,1.39,0,0,1,.36,1,1.33,1.33,0,0,1-.38.95,1.5,1.5,0,0,1-.59.38l.88,1.4h-.64l-.79-1.31H83.25v1.31h-.57V49.63Zm.72.77a.92.92,0,0,0-.72-.29H83.25V52h1.47a1,1,0,0,0,.7-.26,1.06,1.06,0,0,0,0-1.33" transform="translate(-1 -0.13)" style="fill:#3aa597"/><polygon points="86.55 49.5 90.58 49.5 90.58 49.98 88.85 49.98 88.85 53.66 88.28 53.66 88.28 49.98 86.55 49.98 86.55 49.5" style="fill:#3aa597"/><path d="M93.32,49.92a2.62,2.62,0,0,1,1.57-.37,3.9,3.9,0,0,1,1.58.29l-.17.43A4.37,4.37,0,0,0,94.9,50a2.17,2.17,0,0,0-1.16.23.43.43,0,0,0-.23.39.4.4,0,0,0,.18.35,1.46,1.46,0,0,0,.63.2l1,.16a2.27,2.27,0,0,1,1.2.44,1,1,0,0,1,.28.77,1.06,1.06,0,0,1-.5.93,3,3,0,0,1-1.63.36A5.07,5.07,0,0,1,93,53.58l.16-.45a5.25,5.25,0,0,0,1.54.24,2.53,2.53,0,0,0,1.26-.24.63.63,0,0,0,.31-.57c0-.48-.44-.57-1-.65l-1.08-.17a1.83,1.83,0,0,1-.89-.32.82.82,0,0,1-.33-.7.94.94,0,0,1,.38-.8" transform="translate(-1 -0.13)" style="fill:#3aa597"/></svg>