<svg xmlns:xlink="http://www.w3.org/1999/xlink" xmlns="http://www.w3.org/2000/svg" role="img" class="footer-list__item-img" width="942.9"  height="210.01" ><defs><symbol viewBox="128.7 128.69 942.9 210.01" id="svgsprite-logos-lx">
    <g>
      <path d="M433.1,328c-1.4,6.2-6.1,10.7-14.3,10.7c-10.6,0-15.8-7.7-15.8-17.4c0-9.3,5.2-17.7,16.1-17.7c8.7,0,13.1,5.1,14,10.8h-6.4   c-0.9-3-3-5.7-7.9-5.7c-6.6,0-9.2,5.9-9.2,12.4c0,6.1,2.4,12.5,9.4,12.5c5,0,6.8-3.2,7.7-5.6L433.1,328L433.1,328z M477.8,321   c0,9.5-5.6,17.7-16.6,17.7c-10.5,0-16.1-7.8-16.1-17.6c0-9.9,6-17.6,16.6-17.6C471.6,303.5,477.8,310.6,477.8,321z M451.8,321   c0,6.9,3.2,12.5,9.7,12.5c7,0,9.6-5.8,9.6-12.4c0-6.8-3-12.3-9.7-12.3C454.7,308.8,451.8,314.1,451.8,321z M491.9,304h6.4v28.9   h17.3l-0.7,5.3h-23L491.9,304L491.9,304z M527.6,304h6.4v28.9h17.3l-0.7,5.3h-23V304z M586.2,323.1h-16.6v9.9h18.2l-0.8,5.3h-23.7   V304h23.6v5.3h-17.3v8.4h16.6V323.1z M629.6,328c-1.4,6.2-6.1,10.7-14.3,10.7c-10.6,0-15.8-7.7-15.8-17.4c0-9.3,5.2-17.7,16.1-17.7   c8.7,0,13.1,5.1,14,10.8h-6.4c-0.9-3-3-5.7-7.9-5.7c-6.6,0-9.2,5.9-9.2,12.4c0,6.1,2.4,12.5,9.4,12.5c5,0,6.8-3.2,7.7-5.6   L629.6,328L629.6,328z M650.5,309.4h-10.6V304h27.6v5.3h-10.6v28.9h-6.4V309.4z M686,304v34.2h-6.4V304H686z M732.8,321   c0,9.5-5.6,17.7-16.6,17.7c-10.5,0-16.1-7.8-16.1-17.6c0-9.9,6-17.6,16.6-17.6C726.5,303.5,732.8,310.6,732.8,321z M706.7,321   c0,6.9,3.2,12.5,9.7,12.5c7,0,9.6-5.8,9.6-12.4c0-6.8-3-12.3-9.7-12.3C709.6,308.8,706.7,314.1,706.7,321z M746.8,338.2V304h8.1   c4.5,7.8,13.3,22.7,15,26.4l0,0c-0.3-3.9-0.3-9.6-0.3-15.2V304h5.9v34.2h-7.6c-4-6.9-13.5-23.7-15.4-27.6l0,0   c0.2,3.3,0.3,9.9,0.3,16.1v11.5H746.8z M251.1,131.2v102.3l-89-102.3h-33.4l106.8,122.9h21.9V131.2H251.1z M305,131.2h-23.8v122.9   H305V131.2z M583.1,131.2v102.3l-89-102.3h-33.4l20.6,23.7V254h6.4v-91.8l79.8,91.8h21.9V131.2H583.1z M637,247.7L637,247.7v-49.9   h51.6v-6.4H637v-53.8h63.3l-5.6-6.4h-81.5v122.9h87l-5.6-6.4L637,247.7L637,247.7z M972.9,247.7L972.9,247.7v-49.9h51.6v-6.4h-51.6   v-53.8h63.3l-5.6-6.4h-81.5v122.9h87l-5.6-6.4L972.9,247.7L972.9,247.7z M811.7,131.2h-105l5.6,6.4h39.5v116.5h23.8V137.6h41.8   L811.7,131.2z M937.9,131.2H823.7l5.6,6.4h39.5v116.5h23.8V137.6H938L937.9,131.2L937.9,131.2z M460.9,254.1v-62.7h-57.6   c1.9,2.2,3.7,4.3,5.6,6.5c12.1,0.5,25.2,4,27.8,18.2c2.2,12-4.3,25-16.2,29.2c-11.6,4.1-25.3-0.6-35-5.8   c-11.2-6.1-19.6-13.5-26.3-24.4c-10.8-17.6-18.4-49.8-2.3-68.1c8.2-9.3,20.9-13.4,33-10.1c11.7,3.2,21.4,13,26,23.7l27.2-6.5   c-17.3-23.8-44-30.5-71.4-21.7c-26.4,8.4-46.1,29.3-46.9,58.1c-0.8,28.3,17.4,51.2,43.5,60.5c13.3,4.7,25.7,5.5,39.6,3.3   c12.2-1.9,27-7.1,32.9-19.8l17,19.6H460.9z M1056.4,131.2v1.9h-4.2v10.1h-2.2v-10.1h-4.2v-1.9H1056.4z M1069.1,143.2v-4   c0-3.3,0.2-5.3,0.3-6.5h-0.1l-3.9,10.4h-1.8l-3.6-10.4h-0.1c0.1,1.2,0.1,3,0.2,6.6v3.8h-2v-12h3.4l3.3,8.9h0.1l3.4-8.9h3.3v12   L1069.1,143.2L1069.1,143.2z"></path>
    </g>
  </symbol></defs>
                                        <use xlink:href="#svgsprite-logos-lx">
                                            <title id="title-logos-lx">ihg.uhf.logo.title.lx</title>
                                            <desc id="desc-logos-lx">ihg.uhf.logo.title.lx</desc>
                                        </use>
                                    </svg>