<svg xmlns:xlink="http://www.w3.org/1999/xlink" xmlns="http://www.w3.org/2000/svg" role="img" class="footer-list__item-img" width="100"  height="60" ><defs><symbol viewBox="0 0 86 55" id="svgsprite-logos-ul">
    <path d="M17.5868 30.7896H19.3872C19.1455 31.1481 19.1455 31.3899 19.1455 31.9903V37.5018C19.1455 38.1022 19.1455 38.344 19.3872 38.7025H17.5868C17.8285 38.344 17.8285 38.1022 17.8285 37.5018V35.1088H14.3526V37.5018C14.3526 38.1022 14.3526 38.344 14.5943 38.7025H12.7939C13.0356 38.344 13.0356 38.1022 13.0356 37.5018V31.9903C13.0356 31.3899 13.0356 31.1481 12.7939 30.7896H14.5943C14.3526 31.1481 14.3526 31.3899 14.3526 31.9903V34.1499H17.8285V31.9903C17.8285 31.3899 17.7034 31.1481 17.5868 30.7896ZM22.8548 38.2189C23.3299 38.6942 24.0551 38.936 24.8886 38.936C25.7221 38.936 26.3223 38.6942 27.1642 38.2189H27.2809V38.8193H28.8396C28.5979 38.4607 28.5979 38.2189 28.5979 37.6186V32.107C28.5979 31.5067 28.5979 31.2649 28.8396 30.9063H27.0391C27.2809 31.2649 27.2809 31.5067 27.2809 32.107V35.9426C27.2809 36.7847 27.1642 37.1433 26.8057 37.5018C26.4473 37.8604 25.9639 38.1022 25.372 38.1022C24.7719 38.1022 24.2968 37.8604 23.9384 37.3851C23.6966 37.0266 23.5799 36.668 23.5799 35.7091V31.9986C23.5799 31.3983 23.5799 31.1565 23.8217 30.7979H22.0212C22.2629 31.1565 22.2629 31.3983 22.2629 31.9986V36.076C22.2546 37.1349 22.3796 37.7353 22.8548 38.2189ZM33.8742 36.1761L33.2741 37.4935C33.1574 37.7353 33.1573 38.0938 33.1573 38.2106C33.1573 38.3273 33.1574 38.4524 33.2741 38.6859H31.4736C31.7153 38.3273 31.9487 38.0855 32.1905 37.4852L35.4246 30.5394L38.9005 37.6102C39.1422 38.2106 39.2589 38.4524 39.5006 38.6859H37.5835C37.7002 38.5691 37.7002 38.3273 37.7002 38.2106C37.7002 37.9688 37.5835 37.7353 37.4584 37.3684L36.8583 36.051H33.8659V36.1761H33.8742ZM34.2326 35.3422H36.2665L35.3079 33.0659L34.2326 35.3422ZM44.5352 37.9771H43.5766V32.107C43.5766 31.5067 43.5766 31.2649 43.8184 30.9063H42.0179C42.2596 31.2649 42.2597 31.5067 42.2597 32.107V37.6186C42.2597 38.3357 42.2596 38.4607 42.0179 38.8193H46.094L46.6941 37.5018C46.094 37.852 45.4938 37.9771 44.5352 37.9771ZM50.2867 38.2189C50.7618 38.6942 51.487 38.936 52.3205 38.936C53.1624 38.936 53.7542 38.6942 54.4794 38.2189H54.5961V38.8193H56.1548C55.9131 38.4607 55.9131 38.2189 55.9131 37.6186V32.107C55.9131 31.5067 55.9131 31.2649 56.1548 30.9063H54.3544C54.5961 31.2649 54.5961 31.5067 54.5961 32.107V35.9426C54.5961 36.7847 54.4794 37.1433 54.121 37.5018C53.7626 37.8604 53.2791 38.1022 52.6873 38.1022C52.0871 38.1022 51.612 37.8604 51.2536 37.3851C51.0119 37.0266 50.8952 36.668 50.8952 35.7091V31.9986C50.8952 31.3983 50.8952 31.1565 51.1369 30.7979H49.3364C49.5782 31.1565 49.5782 31.3983 49.5782 31.9986V36.076C49.6865 37.1349 49.8032 37.7353 50.2867 38.2189ZM62.3814 35.7008L63.6984 37.7353C63.9401 38.0939 64.0568 38.3356 64.0568 38.5775V38.6942H66.0907C65.7322 38.3357 65.3738 38.0938 65.0154 37.3767L63.0983 34.5001L64.5319 32.2237C65.0071 31.5067 65.2488 31.1481 65.7323 30.7896H63.8151C63.8151 30.9063 63.8151 30.9063 63.8151 31.0314C63.8151 31.2732 63.6984 31.5067 63.4567 31.9903L62.3814 33.6663L61.4228 32.107C61.1811 31.6317 60.9477 31.2649 60.9477 31.0314C60.9477 30.9146 60.9477 30.9146 60.9477 30.7896H58.9139C59.389 31.2648 59.6307 31.6317 60.1142 32.3488L61.6729 34.7419L59.9975 37.3767C59.639 37.9771 59.2806 38.3356 58.7972 38.8109H60.7143V38.6942C60.7143 38.4524 60.831 38.2189 61.0727 37.852L62.3814 35.7008ZM71.367 37.9771H70.4084V35.1004H71.0086C71.7254 35.1004 72.2089 35.2172 72.5673 35.5757L73.1674 34.375H70.2917V31.7401H71.2503C72.0922 31.7401 72.5673 31.8569 72.9257 32.0987L73.5259 30.898H68.858C69.0998 31.2565 69.0998 31.4983 69.0998 32.0987V37.6102C69.0998 38.2106 69.0998 38.4524 68.858 38.8109H73.1674L73.7676 37.6102C72.9174 37.852 72.3256 37.9771 71.367 37.9771ZM59.5057 46.0068H59.7474V45.8901C59.7474 45.6483 59.6307 45.5315 59.5057 45.4148L59.389 45.2981L59.2723 45.1813C59.1556 45.0646 59.0306 44.9395 58.7972 44.9395C58.7972 44.9395 58.7972 44.9395 58.6805 44.9395C58.5638 44.9395 58.4387 45.0563 58.4387 45.1813C58.4387 45.2981 58.4387 45.4231 58.5554 45.4231C58.9055 45.765 59.264 46.0068 59.5057 46.0068ZM57.5885 49.242C57.2301 49.8424 56.8717 50.5595 56.3882 51.1598L55.0712 53.678H54.9545C54.5961 53.678 54.3544 53.3194 54.3544 52.9609C54.3544 52.6023 54.7128 52.4856 54.9545 52.1187C55.1963 51.8769 55.313 51.5184 55.5547 51.1598C55.7964 50.8013 56.0298 50.3177 56.2715 49.9591L57.7052 47.6828C57.8219 47.441 57.9469 47.2075 58.0636 46.9657C57.7052 47.0824 57.4635 47.0824 57.1051 47.0824C56.8633 47.0824 56.7466 47.0824 56.5049 46.9657C56.2632 46.849 56.1465 46.7239 56.2632 46.3653V46.2486C56.5049 46.1319 56.7383 46.1319 56.8633 46.1319C56.98 46.1319 56.98 46.1319 57.1051 46.1319C57.2218 46.1319 57.4635 46.1319 57.5802 46.1319C57.9386 46.0151 58.4221 46.0152 58.7805 46.0152C59.4973 46.0152 60.0975 45.8984 60.581 45.5399C61.0561 45.5399 61.4228 45.6566 61.6562 46.0152C61.8979 46.3737 60.9394 46.3737 60.8144 46.4904C60.3392 46.4904 59.7391 46.6072 59.2556 46.6072L59.1389 46.7239C58.6638 47.0825 58.297 47.6828 58.0636 48.2831C58.1803 48.2831 58.3054 48.1664 58.4221 48.1664C58.4221 48.1664 58.3054 47.3243 58.7805 47.9246C59.0222 48.1664 59.2556 48.0413 59.6224 47.9246C59.9808 47.8079 59.9808 47.5661 59.9808 47.3243C59.9808 47.2075 59.9808 47.0824 59.9808 46.9657C60.0975 46.849 60.2225 46.9657 60.3392 46.849C60.4559 47.0908 60.5809 47.2075 60.6976 47.4493C61.1728 47.2075 61.1728 47.3326 61.5395 47.6911C61.7813 47.933 61.8979 48.1664 61.4228 48.1664C61.1811 48.1664 60.8227 48.0497 60.706 48.4082C60.706 48.525 60.5893 49.1253 60.5893 49.1253C60.831 49.0086 61.1894 49.0086 61.4312 49.1253C61.5479 49.2421 61.9063 49.3671 61.7896 49.4839C61.7896 49.6006 61.6729 49.7257 61.5479 49.7257C61.1894 49.7257 60.9477 49.6089 60.5893 49.7257C60.3475 49.7257 60.1142 49.8424 59.8724 49.9675C59.6307 50.0842 59.514 50.0842 59.2723 50.2093C59.0306 50.2093 58.6721 50.4511 58.4304 50.4511C58.072 50.4511 57.8303 50.0925 57.7136 49.8507C57.9553 49.8507 58.5554 49.9675 58.7888 49.8507C59.0305 49.6089 58.6721 49.1337 58.6721 48.8918C58.4304 48.8918 58.072 48.8918 57.9553 49.0086C57.7135 49.117 57.7136 49.242 57.5885 49.242ZM59.1473 48.7584C59.1473 49.0002 59.1472 49.4755 59.2639 49.6006C59.3806 49.7173 59.6224 49.7173 59.8641 49.4839L59.9808 49.3671C59.9808 49.2504 60.0975 48.65 60.0975 48.65C59.7474 48.6417 59.389 48.7584 59.1473 48.7584ZM61.5395 53.0693C61.4228 53.0693 61.2978 52.9526 61.2978 52.9526C61.1811 52.9526 60.2225 52.2355 60.2225 52.2355C60.5809 51.8769 60.9394 51.5184 61.1811 51.0347V50.918C61.0644 50.8013 60.9394 50.6762 60.8227 50.5595C60.5809 50.4428 59.9808 50.6762 59.6224 50.8013C59.3806 50.918 59.1473 50.918 59.0222 51.0431L59.1389 51.1598C59.3806 51.2766 59.6141 51.0431 59.8558 51.1598C60.3309 51.2766 59.8558 51.7602 59.7391 51.8769C59.4973 51.8769 58.6638 51.1598 58.4221 51.2766C58.5388 51.7518 58.7805 52.1187 59.2639 52.4773C58.9055 52.8358 57.4635 53.5529 57.3468 53.678C57.3468 53.678 57.4635 53.7947 57.5885 53.7947C57.7052 53.9114 57.9469 53.7947 58.0636 53.7947C58.6638 53.7947 59.0222 53.4362 59.4973 53.0776C59.614 52.9609 59.8558 52.9609 59.9725 52.8358C60.4476 53.1944 60.931 53.4362 61.4062 53.678C61.6479 53.7947 61.8813 54.0365 62.123 54.1533C62.3647 54.27 62.5981 54.3951 62.8399 54.27C63.0816 54.1532 63.44 53.9114 63.6817 53.6696C62.7398 53.3111 62.1397 53.3111 61.5395 53.0693ZM46.5691 50.5595C46.9275 49.7173 47.6443 48.525 47.8861 47.6828C47.7694 47.5661 47.6444 47.441 47.5277 47.441C47.411 47.441 47.1692 47.441 47.0525 47.5577C46.2107 50.1926 44.6603 51.8686 44.4185 52.2271C44.1768 52.4689 44.3018 53.0693 44.3018 53.4278C44.4185 53.6696 44.5436 53.4278 44.6603 53.5446C44.902 53.4278 45.0187 53.0693 45.0187 52.8275L46.5691 50.5595ZM50.1617 51.2766C50.2784 51.0348 50.2783 50.918 50.4034 50.8013C50.5201 50.5595 50.6451 50.0842 50.6451 49.8424C50.5284 49.6006 50.17 49.3671 49.9283 49.242C49.9283 49.242 49.9283 49.242 49.8116 49.242C49.3364 49.0002 49.0947 48.8835 49.0947 48.7668C48.978 48.65 49.2114 48.4082 49.4531 48.1664C49.5698 48.0497 49.6949 47.8079 49.8116 47.6911C49.8116 47.6911 49.8116 47.6911 49.8116 47.5744C49.9283 47.3326 50.2867 46.974 49.8116 46.4988C49.6949 46.382 49.6949 46.382 49.5698 46.257C49.4531 46.1402 49.3281 45.8984 49.0947 45.7817C48.978 45.7817 48.853 45.6649 48.853 45.6649C48.6113 45.6649 48.4946 45.7817 48.2528 45.7817C48.2528 45.7817 48.1361 45.7817 48.1361 45.8984C47.661 46.1402 47.0609 46.257 46.4607 46.257C45.9856 46.3737 45.6188 46.3737 45.5022 46.4988C45.3855 46.4988 45.3854 46.6155 45.3854 46.7406C45.3854 46.9824 45.9856 47.2159 46.344 47.2159C46.7024 47.2159 46.9442 47.0991 47.0609 46.8573C47.1776 46.7406 47.3026 46.6155 47.536 46.6155C48.0111 46.4988 48.3779 46.3737 48.6113 46.3737C48.853 46.3737 48.9697 46.3737 48.9697 46.4904C49.0864 46.7322 48.9697 47.0908 48.853 47.3326C48.853 47.4493 48.7363 47.4493 48.7363 47.5744C48.7363 47.6911 48.6196 47.8162 48.4946 47.9329C48.2528 48.2915 48.1361 48.65 48.2528 48.8918C48.3695 49.1337 48.7279 49.3671 48.9697 49.4922L49.0864 49.6089C49.2031 49.7257 49.3281 49.8507 49.4448 49.9675C49.5615 50.0842 49.5615 50.326 49.4448 50.6846C49.3281 50.5678 49.2031 50.4427 49.0864 50.4427C48.1278 50.326 48.0111 50.2009 47.1692 50.918C47.1692 50.918 47.0525 51.0347 47.0525 51.1598C47.2943 51.0431 47.6527 50.5595 48.0111 50.6846C48.2528 50.8013 48.7279 50.9264 48.9697 51.2849C49.0864 51.4016 48.9697 52.002 48.2528 52.2438C47.7777 52.3605 47.1776 52.2438 46.6941 52.002C46.5774 52.002 46.5774 51.6434 46.6941 51.4016C46.5774 51.6434 46.3357 51.8769 46.4524 52.1187C46.8108 52.4773 46.6941 52.594 47.4109 52.7191C48.2528 52.8358 48.8446 52.4773 49.4448 52.2438C50.0449 52.4856 50.2867 53.3194 50.7618 53.3194C51.1202 53.3194 51.362 52.8442 51.362 52.7191C51.362 52.3522 50.6451 51.6351 50.1617 51.2766ZM9.68477 50.918C9.68477 51.0348 9.68477 51.0348 9.68477 50.918C9.56807 51.0348 9.56807 51.0347 9.44304 51.0347C9.08461 50.918 8.72619 50.793 8.24273 50.793C8.001 50.793 7.64257 50.793 7.40084 50.793H7.28416C7.04243 50.793 6.20888 50.793 5.60873 50.793C5.367 50.793 5.2503 50.793 5.1336 50.793C5.01691 50.793 5.01692 50.793 5.01692 50.793C5.01692 50.9097 5.01692 50.9097 5.01692 51.0347C5.01692 51.1515 5.01692 51.3933 5.01692 51.51C5.25865 51.51 5.49203 51.3933 5.73376 51.3933C5.97548 51.3933 6.33392 51.3933 6.45062 51.2766C6.45062 51.2766 6.4506 51.2766 6.5673 51.2766C6.92572 51.3933 7.16746 51.6351 7.28416 51.8769L7.40084 51.9936V52.1104C7.40084 52.2271 7.28416 52.2271 7.15913 52.2271C7.04244 52.2271 7.04243 52.2271 6.9174 52.2271C6.8007 52.2271 6.8007 52.2271 6.67566 52.2271C6.55897 52.2271 6.43394 52.1104 6.31725 52.1104C6.20055 52.1104 5.95882 52.1104 5.84212 52.1104C5.72542 52.1104 5.6004 52.1104 5.4837 52.1104H5.36699C5.12527 52.1104 5.12527 52.2271 5.00858 52.2271C5.00858 52.3439 5.00858 52.4689 5.00858 52.5857C5.00858 52.7024 5.00858 52.7024 5.00858 52.8275C5.00858 52.9442 5.00858 52.9442 5.00858 53.0693C5.00858 53.3111 5.12527 53.5446 5.00858 53.7864V53.9031C4.89188 54.0198 4.89189 54.2616 4.65016 54.3784C4.65016 54.3784 4.65015 54.3784 4.53345 54.3784C4.41675 54.2616 4.41677 54.1366 4.29174 54.0198C4.29174 53.9031 4.17504 53.0609 4.29174 52.8191V52.7024C4.29174 52.4606 4.29174 52.3439 4.29174 52.3439C4.17504 52.3439 3.93331 52.3439 3.81661 52.4606C3.57489 52.4606 3.21645 52.5773 3.09975 52.5773C2.85803 52.5773 2.62463 52.4606 2.4996 52.4606C2.3829 52.4606 2.38292 52.3439 2.38292 52.3439C2.38292 52.2271 2.62464 52.102 2.74134 52.102C2.98306 51.9853 3.94164 51.9853 4.17503 51.9853C4.40842 51.9853 4.53345 51.8686 4.53345 51.8686C4.53345 51.7518 4.53345 51.2682 4.53345 51.2682H4.41677C4.30007 51.2682 4.05834 51.2682 3.81661 51.385C3.57489 51.385 3.45819 51.385 3.21646 51.5017C2.97473 51.5017 2.01616 51.7435 1.78277 51.8603H1.66606C1.54936 51.8603 1.42435 51.977 1.19096 51.977C1.19096 51.977 1.07425 51.977 1.07425 51.8603L0.957565 51.7435C0.840869 51.6268 0.599129 51.5017 0.840856 51.2682L0.957565 51.1515C1.67441 51.0348 2.39126 51.0348 2.99141 50.9097V50.793C2.74969 50.9097 2.39125 50.6762 2.14953 50.5511C2.03283 50.4344 1.9078 50.4344 1.79111 50.3093L1.6744 50.1926C1.6744 49.9508 2.03283 49.9508 2.27455 49.9508C2.27455 49.9508 2.27457 49.9508 2.39126 49.9508C2.50796 49.9508 2.50794 49.9508 2.63297 49.9508C2.63297 49.9508 2.63298 49.9508 2.74968 49.9508H2.86636C2.86636 49.8341 2.74968 49.709 2.74968 49.709C2.74968 49.4672 2.63298 49.4672 2.50794 49.3504L2.39126 49.2337C2.39126 49.117 2.39125 49.117 2.50794 48.9919C2.50794 48.9919 2.62465 48.8752 2.74968 48.8752C2.99141 48.8752 3.22481 49.2337 3.59157 49.834L3.70825 49.9508H3.82496C3.94165 49.9508 4.06668 49.8341 4.18338 49.9508L4.30006 50.0675V50.1843L3.94164 50.5428V50.6595C3.94164 50.9014 3.94165 51.0181 4.05835 51.0181C4.17505 51.0181 4.53347 51.0181 4.6585 51.0181C4.7752 50.6595 4.6585 50.301 4.6585 49.9424C4.6585 49.8257 4.6585 49.7006 4.6585 49.7006C4.6585 49.5839 4.5418 49.4588 4.41677 49.3421C3.94165 49.4588 3.45819 49.3421 3.21646 48.9836C3.21646 48.9836 3.21646 48.9835 3.21646 48.8668V48.7501V48.6333H3.33314C3.69157 48.6333 4.17503 48.6334 4.40842 48.5166C4.40842 48.0413 4.29172 47.9163 4.16669 47.7995C4.04999 47.7995 4.05001 47.7995 3.92498 47.7995C3.68325 47.7995 3.56655 47.9163 3.32483 47.9163C2.9664 47.9163 2.24955 47.5577 2.24955 47.441V47.3243V47.2075C2.24955 47.2075 2.24956 47.0908 2.36626 47.0908C2.48295 47.0908 2.60798 47.0908 2.96641 47.0908C3.0831 47.0908 3.20813 47.0908 3.32483 47.0908C3.44152 47.0908 3.44151 47.0908 3.44151 47.0908C3.79993 47.0908 4.04166 46.974 4.04166 46.849C4.15836 46.7322 4.15836 46.7322 4.04166 46.4904C4.04166 46.3737 3.92498 46.2486 3.92498 46.0152C3.92498 45.8984 3.92498 45.8984 3.92498 45.8984V45.7817C3.92498 45.665 3.92498 45.6649 3.92498 45.5399V45.4231H4.04166C4.15836 45.4231 4.28338 45.5399 4.40008 45.6649C4.51678 45.7817 4.51678 45.7817 4.64181 45.9068V46.0235C4.64181 46.1402 4.75852 46.382 4.75852 46.6239H4.87521C4.87521 46.6239 4.87522 46.6239 4.99191 46.6239C5.10861 46.6239 5.10859 46.6239 5.23362 46.6239C5.35032 46.6239 5.47536 46.7406 5.47536 46.8656C5.47536 46.8656 5.47537 46.9824 5.35868 47.1075C5.35868 47.1075 5.24197 47.1075 5.11694 47.2242C5.00024 47.2242 4.87522 47.3409 4.75852 47.3409C4.87522 47.4577 4.8752 47.5827 5.00023 47.6995C5.11693 47.8162 5.11694 48.058 5.24197 48.1747C5.4837 48.1747 5.71709 48.058 5.71709 47.9329C5.83379 47.6911 5.8338 47.4577 5.95883 47.0908C5.95883 46.9741 6.07551 46.7322 6.07551 46.6155H5.95883V46.4988C5.95883 46.4988 5.95882 46.382 6.07551 46.382C6.31724 46.2653 6.31725 45.5399 6.19222 45.4231C6.19222 45.3064 6.07551 45.3064 6.07551 45.1813C6.07551 45.1813 6.07552 44.9395 6.19222 44.9395C6.19222 44.9395 6.3089 44.8228 6.3089 44.9395C6.66733 45.0563 6.90907 45.2981 7.02576 45.5399C7.02576 45.6566 7.02576 45.8984 7.02576 46.0152C7.02576 46.1319 7.02576 46.1319 7.02576 46.257V46.3737C7.14246 46.3737 7.26749 46.3737 7.38418 46.3737C7.50088 46.3737 7.62592 46.3737 7.62592 46.3737C7.74261 46.3737 7.74259 46.3737 8.10102 46.6155C8.21771 46.7322 8.34276 46.8573 8.45946 46.974C8.45946 47.0908 8.45946 47.2159 8.45946 47.2159C8.45946 47.3326 8.34275 47.3326 8.34275 47.3326C8.10102 47.3326 7.86764 47.2159 7.62592 47.0908C7.50922 47.0908 7.38417 46.974 7.26747 46.974H7.15079C7.03409 46.974 7.03409 46.974 6.90906 46.974C6.79236 46.974 6.79235 47.0908 6.66732 47.2159V47.3326C6.66732 47.3326 6.66733 47.4493 6.55064 47.4493C6.43394 47.6911 6.30892 47.9246 6.19222 48.0497C6.30892 48.0497 6.55062 48.0497 6.66732 48.0497C6.90905 48.0497 7.02575 48.0497 7.14245 48.1664C7.14245 48.1664 7.25915 48.2832 7.25915 48.525L7.14245 48.6417C7.02575 48.6417 7.02574 48.6417 6.90071 48.6417H6.80903C6.80903 48.6417 6.80902 48.6417 6.69233 48.6417H6.80903C6.80903 48.6417 6.92574 48.6417 6.92574 48.7584C7.16747 48.8752 7.16746 49.0002 7.04243 49.117C7.04243 49.2337 6.92574 49.2337 6.92574 49.2337H7.04243C7.15912 49.2337 7.28415 49.2337 7.40084 49.2337C7.51754 49.3504 7.64258 49.4755 7.64258 49.709C7.64258 49.8257 7.52587 49.9508 7.40084 49.9508C7.28415 49.9508 7.15912 49.9508 7.04243 49.9508C7.04243 49.9508 6.92572 49.9508 6.80069 49.9508H6.68401C6.44228 49.9508 6.32558 50.3093 6.20888 50.5511C6.32558 50.5511 6.45061 50.5511 6.68401 50.5511H6.80903C7.05076 50.5511 7.40919 50.4344 7.65092 50.4344H7.89263C8.00933 50.4344 8.4928 50.3177 8.60949 50.3177H8.72617C8.84287 50.3177 8.96792 50.3177 9.08462 50.3177H9.2013C9.318 50.4344 9.44304 50.4344 9.44304 50.5595C9.55973 50.5595 9.80147 50.6762 9.68477 50.918ZM5.25031 50.3177C5.49204 50.3177 5.60874 50.0759 5.72544 49.8424L5.84212 49.7257H5.72544C5.60874 49.7257 5.4837 49.7257 5.4837 49.6089C5.4837 49.6089 5.36699 49.4922 5.36699 49.3671C5.36699 49.2504 5.4837 49.2504 5.60873 49.2504C5.60873 49.2504 5.72543 49.2504 5.85046 49.2504C5.9755 49.2504 6.09219 49.2504 6.20888 49.2504C6.20888 49.2504 6.20888 49.2504 6.20888 49.1336C6.20888 49.0169 6.20888 49.0169 6.20888 48.8918C6.20888 48.7751 5.96716 48.5333 5.85046 48.5333C5.85046 48.5333 5.73376 48.5333 5.60873 48.5333C5.49203 48.5333 5.49203 48.5333 5.36699 48.5333H5.25031C5.13361 48.5333 5.00858 48.5333 5.00858 48.5333C5.00858 48.5333 5.12528 48.5333 5.12528 48.65C5.24198 48.7668 5.36699 48.8918 5.36699 49.1253C5.36699 49.2421 5.36701 49.3671 5.25031 49.3671V49.4839C5.00858 49.6006 5.00858 50.1926 5.25031 50.3177ZM13.9942 47.441C13.9942 47.6828 13.9942 48.2831 14.3526 48.2831C14.4693 48.2831 14.5943 48.1664 14.711 48.1664C14.9528 48.0497 15.3112 48.0497 15.5529 47.9246C15.6696 47.9246 15.9113 47.8079 16.028 47.8079C16.2698 47.8079 16.3865 47.8079 16.6282 47.8079C16.8699 47.8079 16.9866 47.5661 16.9866 47.4493C17.1033 47.2075 17.345 46.849 17.4617 46.6072C17.5784 46.4904 17.7035 46.4904 17.7035 46.3653C17.7035 46.2486 17.7035 46.1235 17.7035 46.0068C17.5868 45.8901 17.5868 45.6483 17.4617 45.5315C17.22 45.173 16.7449 45.0563 16.2614 45.0563C16.1447 45.0563 15.903 45.173 15.7863 45.173C15.4279 45.173 15.0695 45.173 14.8277 45.2897C14.711 45.2897 14.2276 45.4065 14.2276 45.6483C14.2276 45.765 14.3443 45.8901 14.4693 45.8901C14.711 46.0068 14.8277 46.1319 15.0695 46.2486C15.1862 46.2486 15.4279 46.4904 15.6696 46.3653C16.028 46.2486 16.2698 46.0068 16.7449 46.0068C16.9866 46.3654 16.5032 46.6072 16.2698 46.849C16.028 47.2075 15.6696 47.3243 15.3112 47.4493C15.1945 47.4493 15.0694 47.4493 14.9527 47.4493C14.5943 47.0908 14.1109 46.6072 13.6358 46.4904C13.6358 46.4904 13.6357 46.7322 13.7524 46.7322C13.7524 46.849 13.8692 46.849 13.8692 46.974C14.1109 46.9574 13.9942 47.1992 13.9942 47.441ZM13.9942 49.242C13.8775 49.242 13.7525 49.242 13.6358 49.242L12.9189 49.4839C12.8022 49.3671 12.6772 49.1253 12.8022 48.8835C12.9189 48.7668 13.1606 48.8835 13.2773 48.8835C13.394 48.8835 13.5191 48.7668 13.7524 48.7668C14.2276 48.65 14.711 48.65 15.3112 48.525C15.6696 48.4082 16.1531 48.4082 16.5115 48.2831C16.8699 48.1664 17.3534 48.1664 17.5868 47.9246C17.9452 47.9246 18.1869 48.3999 18.4286 48.6417C18.4286 49.0002 18.1869 49.117 17.9535 49.242C17.7118 49.6006 17.2367 49.9591 17.1116 50.4427C17.2283 50.6846 17.5867 50.6846 17.7118 51.0431C16.8699 51.2849 15.9113 51.1598 15.0778 51.5184C14.8361 51.5184 14.8361 51.2766 14.7194 51.1598L14.1192 51.0431C14.1192 50.9264 14.0025 50.9264 14.0025 50.8013C14.0025 50.6845 14.3609 50.6846 14.3609 50.6846C14.4776 50.6846 14.7194 50.6845 14.8361 50.5678C15.0778 50.4511 15.0778 50.0925 15.1945 49.8507C15.3112 49.4922 14.8361 49.1336 14.5943 49.1336C14.2359 49.3588 14.1109 49.3588 13.9942 49.242ZM15.5529 49.3588C16.1531 49.6006 15.5529 50.2009 15.6696 50.5595C16.1447 50.5595 16.2698 49.8424 16.6282 49.4839C16.7449 49.3671 16.7449 49.242 16.7449 49.0086C16.6282 48.8918 16.5032 48.65 16.2698 48.8918C15.9113 48.8918 15.5529 49.0086 15.1945 49.1336C15.1861 49.3588 15.4279 49.3588 15.5529 49.3588ZM19.979 53.3111C19.8623 53.1944 19.6206 53.0693 19.5039 53.0693C19.3872 53.0693 19.1455 53.0693 19.1455 53.0693C19.0288 53.0693 18.9038 53.0693 18.6704 53.0693C18.0702 53.0693 17.4701 53.0693 16.8699 53.0693C16.2698 53.186 15.6696 53.186 15.1945 53.3111C14.9528 53.3111 13.7608 53.4278 13.7608 53.3111C13.5191 53.1944 13.5191 52.8358 13.5191 52.594C13.5191 52.2354 13.8775 51.7519 13.6358 51.3933C13.394 51.1515 13.1606 51.3933 12.7939 51.3933C12.6772 51.51 12.6772 51.6351 12.6772 51.8686C12.7939 52.3439 12.7939 53.186 13.2773 53.5446L13.394 53.7864C13.6358 54.0282 13.9942 54.0282 14.2359 54.0282C14.4776 54.0282 14.711 54.0282 14.9527 54.0282C15.5529 53.9114 16.2698 53.9114 16.8699 53.9114C17.1116 53.9114 17.345 53.9114 17.5868 53.9114C17.8285 53.9114 17.9452 53.7947 18.1869 53.7947C18.662 53.7947 19.2622 53.678 19.7456 53.678C19.7456 53.5529 19.979 53.5529 19.979 53.3111ZM30.5234 45.4065C30.4067 45.0479 30.0482 45.1647 29.6815 45.0479C28.9646 45.2897 28.0061 45.5232 27.2892 45.5232C26.8141 45.5232 25.9722 45.4065 25.4888 45.6399C25.4888 45.8817 25.4888 45.9985 25.7305 46.1152C26.4473 46.5905 27.1642 45.9985 27.7643 45.9985C28.4812 45.8818 29.5648 45.8817 30.2816 45.7567C30.5234 45.6399 30.6401 45.6399 30.5234 45.4065ZM23.8133 45.5232C23.6966 45.5232 23.6966 45.5232 23.6966 45.6399C23.6966 45.8817 23.6966 45.9985 23.6966 46.2403C23.6966 46.357 23.6966 46.5988 23.5799 46.7156C23.5799 46.8323 23.4633 47.0741 23.4633 47.1908C23.5799 47.1908 23.705 47.0741 23.8217 47.0741C23.9384 47.0741 23.9384 47.0741 24.0634 47.1908C24.1801 47.1908 24.1801 47.1908 24.1801 47.1908C24.2968 47.1908 24.5385 47.3076 24.6552 47.3076C24.7719 47.3076 25.0136 47.3076 25.0136 47.1908C25.1303 46.949 25.0136 46.5905 24.8969 46.3487C24.8969 46.3487 24.7802 46.2319 24.6552 46.1069C24.5385 45.9901 24.4135 45.8651 24.2968 45.7483C24.1718 45.765 24.0551 45.5232 23.8133 45.5232ZM29.9232 47.9163C29.9232 48.1581 29.6815 48.3915 29.8065 48.6333C29.8065 48.9919 29.9232 49.2337 29.8065 49.5923C29.9232 50.5512 29.8065 52.3438 29.8065 53.4278C29.6898 53.5445 29.6898 53.7864 29.4481 53.9031C29.3314 53.9031 29.2064 53.9031 29.0897 53.9031C28.8479 53.6613 28.7312 53.4278 28.8479 53.186C28.7312 53.0693 28.1311 53.186 27.8894 53.0693C27.5309 52.594 26.8141 52.2271 27.0475 51.6351C27.0475 51.3933 27.2892 50.5595 26.9308 50.3177C26.8141 49.8424 27.4059 49.6006 27.4059 49.242C27.4059 49.1253 27.4059 49.1253 27.2892 49.1253C27.2892 49.1253 27.1725 49.1253 27.0475 49.1253C26.9308 49.1253 26.5724 49.2421 26.4473 49.1253C26.3306 49.1253 26.2056 49.1253 26.2056 49.242C26.0889 50.0842 26.0889 51.7602 26.0889 52.594C26.2056 52.9525 26.3306 53.4362 26.4473 53.7947C26.4473 53.9114 26.4473 54.0365 26.2056 54.1533C25.9639 54.1533 25.9639 53.9114 25.8472 53.9114C25.7305 53.5529 25.4887 53.1944 25.6054 52.8358C25.6054 52.7191 25.6054 52.594 25.6054 52.4773C25.6054 52.3605 25.6054 52.2355 25.6054 52.1187C25.6054 51.5184 25.6054 50.2009 25.6054 49.6006C25.6054 49.3588 25.4888 49.0002 25.4888 48.7584V48.6417V48.2831C25.6055 48.3999 25.8472 48.5249 26.0889 48.3999C26.2056 48.3999 26.3306 48.3999 26.3306 48.2831C26.0889 48.1664 26.2139 47.9246 26.0889 47.8079C26.2056 47.5661 26.0889 47.2075 26.0889 46.9657C26.2056 46.9657 26.2056 46.849 26.2056 46.849C26.3223 46.849 26.564 47.0908 26.8057 47.0908L27.6476 46.1319C28.0061 46.1319 28.7229 46.1319 28.9646 46.4904C28.9646 46.7322 28.7229 46.9657 28.9646 47.2075C29.323 47.0908 29.4398 47.3242 29.6815 47.566C29.8065 47.6828 29.9232 47.7995 29.9232 47.9163ZM27.2892 47.441C27.2892 47.5577 27.2892 47.6828 27.4059 47.6828L27.881 47.566C27.9977 47.2075 27.9977 46.849 28.1228 46.6072C28.1228 46.4904 27.6476 46.4904 27.5226 46.6072C27.4059 46.7239 27.1642 46.9657 27.1642 47.0824C27.1642 47.1992 27.4059 47.3242 27.2892 47.441ZM28.8479 48.5166C28.6062 48.5166 28.2478 48.6333 28.006 48.6333C27.7643 48.9919 27.5309 49.4755 27.4059 49.834C27.6476 49.834 27.7643 49.9508 28.006 50.0759C28.006 50.3177 28.2478 51.0348 27.8894 51.1515C27.7727 51.2682 27.6476 51.1515 27.4142 51.1515C27.2975 51.6268 28.3728 51.9937 28.6145 52.2271C28.8479 51.2766 28.9646 49.4755 28.8479 48.5166ZM23.8133 50.0759C23.93 50.0759 24.055 50.0759 24.1717 49.9591C24.2884 49.7173 24.2885 49.3588 24.0551 49.117C23.5799 48.8752 23.3382 48.2748 22.738 48.1581C22.3796 48.7584 23.0965 49.2337 23.2132 49.834C23.4549 49.834 23.5716 50.0759 23.8133 50.0759ZM24.5302 52.594C24.1718 52.3522 23.8133 51.9937 23.4549 51.7519C23.2132 51.7519 22.9798 51.51 22.8548 51.7519C22.8548 52.1104 23.0965 52.4689 23.3299 52.8275C23.5716 53.0693 23.805 53.5445 24.2885 53.4278C24.4051 53.4278 24.5302 53.186 24.5302 53.0693C24.4135 52.9525 24.7719 52.7107 24.5302 52.594ZM39.8674 46.4821L39.9841 46.2403C39.7423 45.8817 39.3839 45.765 38.9088 45.765C38.7921 45.765 38.7921 45.8817 38.6671 45.8817V45.765C38.6671 45.5232 38.5504 45.4065 38.4253 45.1647L38.3087 45.0479L38.192 44.9312C38.0753 44.8145 37.9502 44.6894 37.5918 44.6894H37.4751C37.3584 44.6894 37.2334 44.8061 37.2334 44.9312C37.2334 45.0479 37.2334 45.173 37.3501 45.2897C37.7085 45.765 38.0669 46.0068 38.3087 46.0068C37.9502 46.1235 37.4668 46.1236 36.9916 46.2486C36.6332 46.2486 36.1498 46.2486 35.7913 46.3653C35.6746 46.3653 35.4329 46.3653 35.3162 46.3653C35.1995 46.3653 35.1995 46.3653 35.0745 46.3653C34.9578 46.3653 34.7161 46.3654 34.4744 46.4821V46.5988C34.4744 46.8406 34.4744 47.0741 34.7161 47.0741C34.9578 47.0741 35.0745 47.1908 35.3162 47.1908C35.7914 47.1908 36.1581 47.0741 36.5165 46.949C36.875 46.8323 37.2334 46.7072 37.5918 46.7072C37.7085 46.7072 37.7085 46.7072 37.8335 46.7072L37.1167 48.0247L35.4413 50.301C35.0828 50.6595 34.8411 51.0181 34.5994 51.5017C34.241 52.102 33.8825 52.5773 33.2824 53.061L33.1657 53.1777V53.2944V53.4111C33.2824 53.653 33.4074 54.0115 33.7658 54.0115H33.8825L35.4413 51.4934C35.9164 50.893 36.3998 50.2927 36.7583 49.5756C37.4668 48.3999 38.3087 47.0824 39.8674 46.4821ZM39.6257 53.0693C40.1008 52.7107 40.5842 51.9937 40.5842 51.3933C40.5842 50.793 40.1091 50.7929 39.7424 50.6762C39.5006 50.6762 39.3839 50.6762 39.1422 50.5595C39.2589 50.4428 39.5006 50.2009 39.7424 50.0842C40.1008 49.8424 40.5842 49.4839 40.5842 48.8835C40.4675 48.6417 40.2258 48.525 39.9841 48.525C39.8674 48.525 39.7424 48.525 39.7424 48.525H39.5006C39.3839 48.525 39.1422 48.525 39.0255 48.6417C38.7838 48.7584 38.4254 48.7584 38.0669 48.6417H37.9502C37.7085 48.6417 37.5918 48.6417 37.4751 48.8835C37.4751 48.8835 37.4751 49.0002 37.4751 49.1253C37.7168 49.4839 37.8335 49.6006 38.192 49.6006C38.4337 49.6006 38.6671 49.4838 38.9088 49.242C39.1505 49.1253 39.2672 49.0002 39.509 49.0002C39.509 49.0002 39.509 49.0002 39.509 49.117C39.1505 49.5922 38.4337 50.0759 37.8335 50.5511C37.7168 50.6679 37.5918 50.6679 37.4751 50.793C37.4751 50.9097 37.3584 50.9097 37.2334 51.0347C36.9917 51.1515 36.875 51.2766 36.7583 51.51V51.6268H36.875C36.9917 51.6268 36.9916 51.7435 37.1167 51.8686C37.2334 51.9853 37.3584 52.2271 37.5918 52.2271C37.8335 52.1104 37.9502 51.9853 38.192 51.7519C38.5504 51.51 38.9088 51.1515 39.2672 51.0347C39.3839 51.0347 39.509 51.0348 39.509 51.1515C39.6257 51.51 39.2672 52.2271 38.9088 52.5857C38.7921 52.5857 38.5504 52.5857 38.3087 52.5857C38.192 52.5857 37.9502 52.5857 37.8335 52.5857C37.7168 52.5857 37.5918 52.5857 37.4751 52.5857H37.3584V52.7024C37.3584 52.8191 37.6001 53.061 38.2003 53.4195C38.317 53.4195 38.317 53.5362 38.317 53.5362H38.4337C38.6754 53.5362 38.7921 53.5362 39.0338 53.5362C39.2756 53.5362 39.5089 53.5362 39.7507 53.4195L39.9924 53.3027L39.7507 53.186C39.7423 53.0693 39.6257 53.0693 39.6257 53.0693ZM85.6206 47.3243C85.7373 47.441 85.7373 47.566 85.7373 47.566C85.7373 47.6828 85.6206 47.6828 85.3789 47.6828C85.3789 47.6828 85.3789 47.6828 85.2622 47.6828H85.1455C85.0288 47.6828 85.0288 47.6828 84.9038 47.6828C84.9038 47.6828 84.7871 47.6828 84.6621 47.6828C84.5454 47.6828 84.5453 47.6828 84.4203 47.6828H84.3036C84.3036 47.6828 84.3036 47.6828 84.3036 47.7995C84.3036 47.9163 84.3036 48.0413 84.3036 48.0413C84.3036 48.1581 84.3036 48.1581 84.3036 48.2831C84.3036 48.6417 84.3036 49.242 84.4203 49.6006C84.4203 49.6006 84.537 52.8358 84.0619 53.678L83.8202 53.7947C83.7035 53.7947 83.7035 53.7947 83.7035 53.7947L83.5867 53.9114H83.47C83.2283 53.9114 83.2283 53.7947 83.1116 53.6696C83.1116 53.6696 83.1117 53.6696 82.995 53.5529C82.7532 53.3111 82.5198 53.0776 82.2781 52.8358C82.1614 52.7191 82.0364 52.7191 82.0364 52.594C81.9197 52.4773 81.6779 52.1187 81.6779 51.9936C81.5613 51.8769 81.5612 51.7518 81.5612 51.6351C81.6779 51.6351 81.803 51.7518 81.9197 51.8769L82.0364 51.9936C82.0364 51.9936 82.1531 51.9937 82.1531 52.1104C82.3948 52.3522 82.7532 52.5857 82.995 52.5857C83.1117 52.5857 83.2367 52.4689 83.2367 52.4689C83.2367 52.4689 83.3534 51.9936 83.3534 51.8686C83.4701 51.3933 83.47 50.7929 83.47 50.3093V50.1926C83.47 50.1926 83.47 49.9508 83.47 49.834C83.47 49.5922 83.47 49.4755 83.47 49.4755C83.47 49.3588 83.47 48.2748 83.47 48.1581C83.47 48.0413 83.4701 47.7995 83.3534 47.7995C83.3534 47.6828 83.3534 47.6828 83.2367 47.6828C83.2367 47.6828 82.8783 47.7995 82.5198 47.7995C82.2781 47.7995 82.0447 47.9163 81.803 47.9163C81.6863 47.9163 81.5612 47.9163 81.4445 47.7995C81.3278 47.7995 81.3279 47.6828 81.3279 47.6828L81.2112 47.566C81.2112 47.566 81.2112 47.5661 81.2112 47.4493C81.2112 47.3326 81.0945 47.2075 81.2112 47.0908C81.2112 47.0908 81.3279 46.974 81.4529 46.974C81.4529 46.974 82.4115 46.974 82.5282 46.974C82.7699 46.974 83.0033 46.8573 83.1283 46.7322C83.1283 46.7322 83.1283 46.7322 83.245 46.6155C83.3617 46.3737 83.3617 45.6566 83.1283 45.0563L83.0116 44.8144H83.1283C83.4867 44.8144 83.7284 45.2897 83.8451 45.4148C83.8451 45.5315 83.8451 45.6566 83.8451 45.6566V45.7733C83.8451 46.0151 84.0869 46.3737 84.2036 46.4904C84.3203 46.6072 84.562 46.7322 84.8037 46.7322C84.9204 46.7322 84.9204 46.7322 85.0454 46.849C85.3789 47.1992 85.4956 47.1992 85.6206 47.3243ZM84.4203 47.0824C84.4203 47.0824 84.3036 46.9657 84.1786 46.9657C84.1786 46.9657 84.1786 47.0824 84.2953 47.0824C84.2953 47.0824 84.2953 47.0824 84.4203 47.0824ZM82.1447 49.9591C82.1447 49.9591 82.1447 50.0759 82.2614 50.0759C82.2614 50.1926 82.3781 50.3177 82.3781 50.4344C82.3781 50.5511 82.3781 50.5511 82.3781 50.6762V50.793C82.4948 50.793 82.6199 50.7929 82.6199 50.6762C82.7366 50.5595 82.7366 50.5595 82.7366 50.5595C82.7366 50.5595 82.7365 50.5595 82.8532 50.4427L82.9699 50.326C82.9699 50.326 82.9699 50.326 83.2116 50.0842C83.2116 50.0842 83.2116 50.0842 83.2116 49.9675C83.2116 49.9675 83.2117 49.8507 83.095 49.8507C82.8533 49.734 82.4948 49.4922 82.4948 49.4922C82.4948 49.4922 82.4948 49.4922 82.3781 49.3755C82.3781 49.3755 82.3781 49.3754 82.3781 49.2587C82.2614 49.2587 82.0197 49.142 81.903 49.142C81.7863 49.142 81.7863 49.142 81.6613 49.2587C81.6613 49.3754 81.5446 49.3754 81.5446 49.5005C81.5446 49.5005 81.5446 49.5005 81.4279 49.6173C81.4279 49.6173 81.4279 49.6173 81.4279 49.734H81.5446C81.6613 49.734 81.7863 49.734 81.7863 49.8507C81.7863 49.8507 81.7863 49.8507 81.903 49.8507L82.0197 49.9675C82.1447 49.834 82.1447 49.8341 82.1447 49.9591ZM81.903 48.3999C81.7863 48.3999 81.7863 48.3999 81.6613 48.3999H81.5446C81.3028 48.3999 81.0695 48.5166 80.8277 48.6417C80.711 48.6417 80.586 48.7584 80.586 48.7584C80.4693 48.8752 80.2276 48.8752 80.2276 48.8752C80.1109 48.8752 80.1109 48.8752 79.9858 48.9919C79.9858 48.9919 79.8692 49.1086 79.8692 49.4672V49.5839C79.8692 49.7006 79.7525 50.0592 79.8692 50.301H79.9858C80.1025 50.1842 80.2276 50.0592 80.461 49.9424H80.5777V50.0592C80.5777 50.0592 80.461 50.1759 80.336 50.301L80.2193 50.4177C80.1026 50.6595 79.8608 50.893 79.8608 50.893C79.8608 50.893 79.8608 50.893 79.8608 51.0097L79.7441 51.2516C79.7441 51.2516 79.7441 51.4934 79.7441 51.6101C79.7441 51.7268 79.6274 52.569 79.7441 52.8108C79.7441 52.9275 79.7441 52.9275 79.7441 53.0526V53.1693C79.7441 53.1693 79.6274 53.2861 79.6274 53.4111C79.6274 53.4111 79.3857 53.653 79.1523 53.653C79.0356 53.653 79.0356 53.653 78.9106 53.4111C78.9106 53.4111 78.9106 53.2944 78.9106 53.1693C78.9106 53.0526 78.9106 53.0526 78.9106 52.9275V52.8108C78.9106 52.8108 78.9106 52.8108 78.9106 52.6941C78.9106 52.5773 79.0273 52.4523 79.0273 51.8519V51.7352H78.9106C78.9106 51.8519 78.6688 51.977 78.4355 52.2104L78.3187 52.4523C78.3187 52.4523 78.3187 52.4522 78.3187 52.569C78.3187 52.569 78.3187 52.569 78.3187 52.6857C78.3187 52.6857 78.2021 52.6857 78.077 52.6857H77.9603C77.8436 52.6857 77.8437 52.569 77.7186 52.569L77.6019 52.4523C77.6019 52.4523 77.6019 52.4522 77.6019 52.3355C77.6019 52.3355 77.6019 52.3355 77.6019 52.2188V52.102C77.6019 52.102 77.6019 52.1021 77.6019 51.9853V51.8686C77.6019 51.8686 77.6019 51.8686 77.7186 51.7519C78.1937 51.2766 79.1523 50.0759 79.2773 49.9508C79.2773 49.8341 79.3941 49.709 79.3941 49.5923C79.3941 49.5923 79.3941 49.4755 79.3941 49.3504V49.2337H79.2773C79.1606 49.2337 78.8022 49.3504 78.3187 49.3504C77.9603 49.3504 77.7186 49.2337 77.6019 49.1086C77.3602 48.9919 77.3602 48.7501 77.3602 48.5083C77.4769 48.3915 77.7186 48.3916 77.9603 48.3916C78.077 48.3916 78.3188 48.3916 78.4355 48.3916C78.6772 48.3916 78.9106 48.2748 79.0356 48.2748C79.1523 48.2748 79.1523 48.2748 79.1523 48.2748C79.269 48.2748 79.269 48.2748 79.269 48.1581C79.3857 48.0413 79.3857 48.0413 79.3857 47.7995C79.3857 47.6828 79.3857 47.441 79.3857 47.441C79.3857 47.3242 79.3857 47.1992 79.3857 47.0824V46.9657V46.849C79.3857 46.849 79.3857 46.1319 79.3857 45.8901C79.3857 45.8901 79.3857 45.8901 79.3857 45.7733C79.3857 45.7733 79.3857 45.7734 79.3857 45.6566C79.3857 45.5399 79.269 45.5399 79.3857 45.4148C79.3857 45.2981 79.5024 45.2981 79.6274 45.2981H79.7441C79.8608 45.4148 79.9858 45.6566 80.1025 45.7733C80.1025 45.7733 80.1026 45.8901 80.2193 45.8901C80.3359 46.0068 80.336 46.2486 80.336 46.3653V46.4821L80.4526 46.5988L80.5693 46.7156L80.686 46.8323C80.8027 46.949 81.0445 47.1908 81.1612 47.3076C81.2779 47.3076 81.6363 47.4243 81.878 47.5494C81.878 47.5494 81.878 47.5494 81.9947 47.6661C81.7863 48.1581 81.903 48.2831 81.903 48.3999ZM80.3443 47.6828L80.2276 47.441C80.1109 47.3242 79.9858 47.1992 79.9858 47.1992C79.9858 47.1992 79.9858 47.1992 79.9858 47.3159C79.9858 47.4326 79.9858 47.4327 79.9858 47.5577C79.9858 47.6745 79.9858 47.7995 80.1025 47.9163C80.1025 47.9163 80.1026 47.9163 80.2193 48.033C80.2193 48.033 80.2193 48.033 80.336 48.033C80.336 48.033 80.4526 48.033 80.5777 48.033H80.6944C80.3443 47.7995 80.3443 47.6828 80.3443 47.6828ZM79.0273 50.6762C78.9106 50.7929 78.7855 50.918 78.7855 50.918C78.7855 50.918 78.7855 50.918 78.7855 51.0347V51.1515C78.7855 51.1515 79.0273 50.9097 79.144 50.9097C79.1523 50.7929 79.1523 50.7929 79.0273 50.6762C79.144 50.7929 79.144 50.6762 79.144 50.6762C79.144 50.6762 79.1523 50.6762 79.0273 50.6762ZM68.1329 45.4065C68.0162 45.2897 67.8911 45.1646 67.6577 45.4065C67.416 45.5232 67.416 46.0068 67.2993 46.4821C67.0576 47.3243 66.6992 47.7995 66.2241 48.5166C65.9823 48.8752 65.0237 50.1926 65.2655 50.3177C65.7406 50.4344 66.6992 48.8835 66.9409 48.5166C67.2993 47.9163 67.7828 47.441 68.1412 46.8406C68.608 46.1235 68.608 45.8817 68.1329 45.4065ZM67.4077 47.9163C67.291 47.9163 67.1659 48.033 67.1659 48.1581C67.641 48.8752 67.4077 49.7173 67.4077 50.5511C67.4077 50.9097 67.4077 51.1515 67.291 51.51C67.1743 51.8686 67.0492 52.3522 67.1743 52.7107C67.291 53.186 67.416 54.0282 67.8912 54.1449C68.1329 53.9031 68.0078 53.6696 68.1329 53.4278L68.2496 49.2337C68.3663 48.8752 68.2496 48.3916 68.1329 48.1581C67.7744 47.9163 67.6494 47.9163 67.4077 47.9163ZM74.6012 53.1943C74.4845 53.5529 74.2427 53.7947 74.126 53.9114H74.0093C73.8926 53.9114 73.7676 53.7947 73.6509 53.6696C73.5342 53.5529 73.4092 53.4278 73.4092 53.4278C73.4092 53.3111 73.2925 53.3111 73.2925 53.186L73.1758 53.0693C72.9341 52.8275 72.8174 52.7107 72.7007 52.4689L72.584 52.5857C72.584 52.5857 72.4673 52.5857 72.4673 52.7024L72.3506 52.8191C72.1089 53.0609 71.8755 53.2944 71.6338 53.2944C71.5171 53.2944 71.392 53.2944 71.392 53.1777C71.392 53.1777 71.392 53.1777 71.2753 53.061C71.1586 52.9442 71.392 52.8191 71.7504 52.5857C71.9921 52.4689 72.3506 52.2271 72.4673 52.1104C72.2256 51.7518 71.9922 51.3933 71.9922 50.793C72.1089 50.6762 72.3506 50.6762 72.5923 50.5511C72.709 50.5511 72.8341 50.5511 72.8341 50.4344C72.8341 50.4344 72.9507 50.4344 72.9507 50.3177C73.0674 50.2009 73.1925 50.2009 73.3092 50.2009C73.4259 50.2009 73.4259 50.2009 73.5509 50.3177C73.5509 50.4344 73.6676 50.4344 73.6676 50.5595L73.7843 50.6762V50.918C73.6676 51.2766 73.4259 51.6351 73.1841 51.9936C73.3008 52.1104 73.7843 52.7107 73.7843 52.7107C74.1427 52.9525 74.3844 53.0693 74.7429 53.3111L74.6012 53.1943ZM72.559 50.6762C72.4423 50.6762 72.3173 50.6762 72.2006 50.793C72.0839 50.793 71.9588 50.7929 71.8421 50.9097C71.9588 51.0264 71.9588 51.0264 72.0839 51.1515C72.2005 51.2682 72.2005 51.3933 72.3256 51.3933C72.3256 51.3933 72.3256 51.2766 72.4423 51.2766C72.4423 51.0348 72.684 50.7929 72.559 50.6762ZM71.1253 47.7995C71.0086 47.9163 71.0086 47.9163 71.0086 47.9163C71.0086 47.9163 70.8919 47.9163 70.8919 48.033C70.7752 48.1497 70.6502 48.1497 70.5335 48.2748C70.4168 48.2748 70.1751 48.5166 70.1751 48.6333V48.7501C70.1751 48.7501 70.2917 48.8668 70.4168 48.8668C70.5335 48.8668 70.5334 48.8668 70.6585 48.8668C70.7752 48.8668 70.7752 48.8668 70.9002 48.8668C71.0169 48.8668 71.1419 48.8668 71.1419 48.8668C71.2586 48.9835 71.2587 49.1086 71.2587 49.2254C71.2587 49.2254 70.7835 49.4672 70.6585 49.4672C70.6585 49.4672 70.6585 49.4672 70.5418 49.4672C70.4251 49.4672 70.0667 49.5839 69.9416 49.5839C69.8249 49.5839 69.6999 49.4672 69.5832 49.3421C69.4665 49.3421 69.4665 49.2254 69.3415 49.2254C69.3415 49.4672 69.3415 49.7006 69.3415 49.9424C69.3415 49.9424 69.4582 49.9424 69.5832 49.9424H69.6999H69.8166C69.8166 49.9424 69.9333 49.9425 70.0583 49.8257C70.175 49.8257 70.3001 49.709 70.3001 49.709C70.4168 49.709 70.7752 50.0675 70.7752 50.3093C70.7752 50.4261 70.6585 50.6679 70.5335 50.6679H70.4168C70.175 50.6679 70.0584 50.7846 69.8166 51.0264C69.6999 51.1432 69.6999 51.385 69.6999 51.385C69.6999 51.385 69.6999 51.5017 69.8166 51.5017H69.9333C70.175 51.5017 70.4084 51.5017 70.5335 51.2599C70.6502 51.2599 70.7752 51.1432 70.8919 51.1432C71.0086 51.1432 71.1336 51.385 71.2503 51.6184C71.2503 51.7352 71.2503 51.8603 71.2503 51.8603C71.2503 51.8603 71.2503 51.8603 71.1336 51.8603H71.0169C70.9002 51.8603 70.6585 51.8603 70.6585 51.8603C70.6585 51.8603 70.5418 51.8602 70.5418 51.977C70.4251 52.0937 70.3001 52.2188 70.1834 52.2188H70.0667H69.95V52.3355C69.95 52.6941 69.95 52.9359 69.95 53.0526C69.95 53.2944 69.95 53.4112 69.95 53.5279C69.95 53.5279 69.95 53.5279 69.95 53.6446C69.95 53.7614 69.95 53.8864 69.95 53.8864C69.95 53.8864 69.95 53.8864 69.8333 53.8864C69.7166 53.8864 69.5916 53.8864 69.4749 53.6446C69.3582 53.5279 69.1164 53.1693 69.1164 52.4439C69.1164 52.3272 69.1164 52.3272 69.1164 52.2021V52.0854C69.1164 52.0854 69.2331 51.1265 69.2331 50.7679C69.2331 50.6512 69.2331 50.4094 69.2331 50.2927C69.2331 49.9341 69.3499 48.8585 69.3499 48.2581C69.3499 47.7829 69.4665 47.541 69.4665 47.541C69.3498 47.4243 69.2248 47.2992 69.1081 47.2992C68.9914 47.2992 68.8664 47.1825 68.8664 47.1825C68.8664 47.1825 68.8664 47.1825 68.8664 47.0658C68.9831 46.824 69.1081 46.7072 69.4665 46.5905C69.5832 46.5905 69.5832 46.5905 69.7083 46.4737C69.825 46.4737 69.95 46.357 69.95 46.357C69.95 46.357 70.0667 46.357 70.0667 46.2403C70.1834 46.1235 70.3084 45.9985 70.5418 45.9985C70.6585 45.9985 70.7836 45.9985 71.0169 46.1152C71.2587 46.357 71.7338 46.8323 71.7338 46.9574C71.8505 47.0741 71.8505 47.1992 71.8505 47.1992C71.8505 47.3159 71.7338 47.3159 71.7338 47.3159C71.367 47.5577 71.242 47.6828 71.1253 47.7995C71.242 47.6828 71.1253 47.6828 71.1253 47.7995ZM69.3248 50.793C69.3248 50.9097 69.3248 51.0348 69.3248 51.1515C69.3248 51.0348 69.4415 51.0348 69.5665 50.9097C69.6832 50.7929 69.9249 50.6679 69.9249 50.4344C69.9249 50.3177 69.925 50.3177 69.8083 50.3177C69.6916 50.3177 69.4499 50.3177 69.3332 50.3177C69.3332 50.4344 69.3332 50.4344 69.3332 50.5595C69.3248 50.6762 69.3248 50.793 69.3248 50.793ZM70.6418 47.1992C70.6418 47.0824 70.6418 47.0825 70.5251 46.9574C70.5251 46.9574 70.5251 46.9574 70.4084 46.9574C70.4084 46.9574 70.4084 46.9574 70.2917 46.9574C70.2917 46.9574 70.05 47.0741 69.9333 47.0741C69.6916 47.1908 69.5749 47.1908 69.4582 47.3159C69.3415 47.4326 69.2165 48.033 69.2165 48.1581C69.2165 48.2748 69.3332 48.2748 69.3332 48.2748C69.4499 48.1581 69.5749 47.9163 69.9333 47.6745C69.9333 47.6745 69.9333 47.6745 70.05 47.5577C70.4084 47.5577 70.6418 47.441 70.6418 47.1992ZM73.6426 47.1992C73.6426 46.9574 73.1674 46.2403 73.1674 46.2403C72.9257 45.9985 72.6923 45.9985 72.4506 45.9985C72.4506 46.1152 72.3339 46.2403 72.2089 46.2403C71.9672 46.357 71.6087 46.4821 71.367 46.4821C71.2503 46.4821 71.2503 46.4821 71.1253 46.5988C71.0086 46.7156 71.4837 47.0741 71.6004 47.0741C71.7171 47.1908 72.0755 47.0741 72.4423 46.9574C72.559 46.8406 72.684 46.9574 72.684 46.9574V47.0741C72.684 47.4326 71.9671 48.1497 71.9671 48.1497C71.9671 48.2665 71.7254 48.3916 71.7254 48.3916C71.7254 48.5083 71.6087 48.5083 71.6087 48.6333C71.6087 48.7501 71.6087 49.1086 71.6087 49.2337C71.7254 49.3504 71.6088 49.3504 71.8505 49.4755C71.9672 49.5922 72.9257 49.2337 73.1674 49.2337C73.2841 49.2337 73.4092 49.117 73.4092 48.9919C73.4092 48.8752 73.5259 48.6333 73.4092 48.6333C73.1675 48.6333 72.0922 48.9919 72.3339 48.5166C72.809 47.5577 73.2925 47.6745 73.4092 47.5577C73.6426 47.6828 73.6426 47.3242 73.6426 47.1992Z" fill="#231F20"></path>
    <path d="M50.7618 4.69942V7.21755L47.2859 7.33427V9.96914H45.9689V4.93289L50.7618 4.69942ZM50.7618 16.1978L47.4109 15.956V13.2044H46.0939V18.3574L50.8868 18.7159V16.1978H50.7618ZM47.886 9.96914H50.6367V7.80955L47.761 7.9263L47.886 9.96914ZM45.252 12.604H47.2859V10.5695H45.3687V4.94121L44.1684 5.05795V18.2407L45.3687 18.3574V12.604H45.252ZM47.886 10.5695V12.604L50.6367 12.7208V10.5612H47.886V10.5695ZM47.886 13.3294V15.489L50.6367 15.6058V13.4462L47.886 13.3294ZM44.1767 19.0745V21.5926C44.1767 21.8344 44.4185 22.1929 44.6519 22.1929L50.2783 22.7933C50.52 22.7933 50.7534 22.6766 50.7534 22.318V19.6831L44.1767 19.0745ZM50.7618 3.7405V1.10563C50.7618 0.863821 50.52 0.630371 50.2866 0.630371L44.6602 1.23072C44.4185 1.23072 44.1851 1.47253 44.1851 1.83107V4.10739L50.7618 3.7405ZM35.7913 4.69942V7.21755L39.2672 7.33427V9.96914H40.5841V4.93289L35.7913 4.69942ZM35.7913 18.7159L40.5841 18.3574V13.2044H39.2672V15.956L35.9163 16.1978V18.7159H35.7913ZM38.667 7.93462L35.7913 7.8179V9.97749H38.542L38.667 7.93462ZM41.1843 18.3574L42.3846 18.2407V5.05795L41.1843 4.94121V10.5695H39.2672V12.604H41.301V18.3574H41.1843ZM35.7913 10.5695V12.7291L38.542 12.6124V10.5778H35.7913V10.5695ZM35.7913 13.3294V15.489L38.542 15.3723V13.2127L35.7913 13.3294ZM35.7913 19.6748V22.4264C35.7913 22.6682 36.033 22.9017 36.2664 22.9017L41.8928 22.3013C42.1345 22.3013 42.3679 22.0595 42.3679 21.701V19.1829L35.7913 19.6748ZM42.3763 4.22413V1.9478C42.3763 1.70599 42.1346 1.34744 41.9012 1.34744L36.2747 0.747093C36.033 0.747093 35.7996 0.863834 35.7996 1.22238V3.85725L42.3763 4.22413Z" fill="#D51D51"></path>
  </symbol></defs>
                                        <use xlink:href="#svgsprite-logos-ul">
                                            <title id="title-logos-ul">Selecting will reload the HUALUXE Hotels &amp; Resorts website in this browser window.</title>
                                            <desc id="desc-logos-ul">Selecting will reload the HUALUXE Hotels &amp; Resorts website in this browser window.</desc>
                                        </use>
                                    </svg>