<svg xmlns:xlink="http://www.w3.org/1999/xlink" xmlns="http://www.w3.org/2000/svg" role="img" class="footer-list__item-img" width="80"  height="60" ><defs><symbol viewBox="0 0 71 29" id="svgsprite-logos-va">
    <path d="M45.3058 11.4033H49.1628C49.2934 11.4033 49.5634 11.5339 49.5634 11.8039V27.9163C49.5634 28.0469 49.4328 28.3169 49.1628 28.3169H45.3058C45.1752 28.3169 44.9053 28.1863 44.9053 27.9163V11.6732C45.0359 11.5339 45.1665 11.4033 45.3058 11.4033Z" fill="#FF3A1E"></path>
    <path d="M65.5304 27.115C64.1983 28.1775 62.6051 28.7088 60.8725 28.7088C55.9446 28.7088 51.957 24.7113 51.957 19.9211C51.957 14.9916 55.9533 11.1333 60.8725 11.1333C62.6051 11.1333 64.1983 11.534 65.5304 12.7271V1.01302C65.5304 0.882376 65.661 0.612366 65.931 0.612366H69.7879C69.9185 0.612366 70.1884 0.743026 70.1884 1.01302V28.0382C70.1884 28.1689 70.0578 28.4388 69.7879 28.4388H65.931C65.8004 28.4388 65.5304 28.3082 65.5304 28.0382V27.115ZM60.8725 15.2615C58.3476 15.2615 56.2145 17.3954 56.2145 19.9211C56.2145 22.4468 58.3476 24.5806 60.8725 24.5806C63.3974 24.5806 65.5304 22.4468 65.5304 19.9211C65.5304 17.3954 63.5367 15.2615 60.8725 15.2615Z" fill="#FF3A1E"></path>
    <path d="M47.2996 6.21238C45.7064 6.21238 44.5049 5.01052 44.5049 3.4167C44.5049 1.82288 45.7064 0.620972 47.2996 0.620972C48.8929 0.620972 50.0945 1.82288 50.0945 3.4167C50.0945 5.01052 48.8929 6.21238 47.2996 6.21238Z" fill="#FF3A1E"></path>
    <path d="M13.7619 27.1151C12.4298 28.1776 10.8366 28.7089 9.10395 28.7089C4.17606 28.7089 0.188477 24.7113 0.188477 19.9212C0.188477 14.9916 4.18476 11.1334 9.10395 11.1334C10.8366 11.1334 12.4298 11.534 13.7619 12.7272V11.7953C13.7619 11.6646 13.8925 11.3946 14.1624 11.3946H18.0194C18.15 11.3946 18.4199 11.5253 18.4199 11.7953V28.0383C18.4199 28.169 18.2893 28.4389 18.0194 28.4389H14.1624C14.0318 28.4389 13.7619 28.3083 13.7619 28.0383V27.1151ZM9.10395 15.131C6.57906 15.131 4.44598 17.2648 4.44598 19.7905C4.44598 22.3162 6.57906 24.45 9.10395 24.45C11.6288 24.45 13.7619 22.3162 13.7619 19.7905C13.7619 17.2648 11.6288 15.131 9.10395 15.131Z" fill="#FF3A1E"></path>
    <path d="M40.3773 8.47697L29.3287 22.3248L23.4693 14.8696C23.3387 14.5996 22.9382 14.5996 22.8076 14.8696L19.743 17.6653C19.6124 17.796 19.6124 17.9354 19.743 18.066L27.7268 28.3169C27.8574 28.4475 27.9967 28.5869 28.2579 28.5869H30.5215C30.6521 28.5869 30.9221 28.4562 31.0527 28.3169L44.0949 11.8127C44.2255 11.682 44.2255 11.5427 44.0949 11.412L41.1696 8.61629C40.7778 8.20695 40.5079 8.20698 40.3773 8.47697Z" fill="#68D2DF"></path>
  </symbol></defs>
                                        <use xlink:href="#svgsprite-logos-va">
                                            <title id="title-logos-va">Selecting will reload the avid hotels website in this browser window.</title>
                                            <desc id="desc-logos-va">Selecting will reload the avid hotels website in this browser window.</desc>
                                        </use>
                                    </svg>