<svg xmlns:xlink="http://www.w3.org/1999/xlink" xmlns="http://www.w3.org/2000/svg" role="img" class="footer-banner__img" width="1125.23"  height="227.07" ><defs><symbol viewBox="117.17 77.63 1125.23 227.07" id="svgsprite-logos-onerewards">
    <path d="m301.68 119.55h21.62v143.23h-21.62v-65.44h-78.11v65.44h-21.44v-143.23h21.44v63h78.11zm-184.51 0h21.4v143.23h-21.4zm359.68 74.3h21.64v59.63c-9.74 2.81-27.69 11.68-50.84 11.68-46.74 0-78.76-30.94-78.76-73.56 0-38.95 29.64-74.43 78.32-74.43 20.12 0 39.38 4.54 46.3 6.27v24.88h-1.08c-9.73-12.11-22.93-22.93-46.08-22.93-33.54 0-53.66 29-53.66 64.26 0 37.43 22.93 67.07 56.47 67.07 11.47 0 21.64-3.24 27.69-7.35zm38.93-66c0-1.74-1.28-2.55-3.25-2.55h-3v8.48h1.85v-3.29h0.9l2.05 3.29h1.93l-2.24-3.6a2.25 2.25 0 0 0 1.76 -2.33zm-1.82 0.08c0 0.81-0.5 1.24-1.47 1.24h-1.09v-2.48h1.09c0.93 0 1.47 0.31 1.47 1.2zm-1.47-6.93a8.55 8.55 0 0 0 -8.6 8.59 8.6 8.6 0 1 0 8.6 -8.59zm0 15.72a7.17 7.17 0 1 1 7 -7.16 6.86 6.86 0 0 1 -7 7.2z"></path>
    <path d="M641.52,166.85V108.52H635.1c0,13.81-7.71,35.33-19.08,53.56-12.7,20.37-26.87,32-38.88,32v6.42c26.17,0,44.75-7,58-17.82V281h6.42V176.73c9.7-10.3,15.78-23,19.59-36.32V304.7h6.43V77.63h-6.43C661.11,112,657.83,144.83,641.52,166.85Zm-6.42,7.41c-9,8.88-21,15.22-37,18.11,8-6,16-15.09,23.36-26.89A155.54,155.54,0,0,0,635.1,137.7Z"></path>
    <path d="m757.55 146.71v-0.6c0-15.16 13.82-27.12 35.11-27.12s35.11 12 35.11 27v0.6c0 15.09-13.82 27.19-34.89 27.19-21.51-0.03-35.33-12.13-35.33-27.07zm63-0.22v-0.6c0-11.88-10.23-21.59-27.86-21.59s-27.87 9.11-27.87 21.74v0.59c0 12.85 11.51 21.67 28.09 21.67 17.01 0 27.61-8.97 27.61-21.81z"></path>
    <path d="M843.32,119.67h9.19l38.55,45.42V119.67h6.65v53.41h-8.07L850,125.94v47.14h-6.65Z"></path>
    <path d="M916.83,119.67h45V125h-38v18h32v5.38h-32V167.7h39.81v5.38H916.83Z"></path>
    <path d="M761.43,209.31h25.4c11.88,0,21.89,4.4,21.89,15.68v.3c0,9.27-7.84,13.9-15.32,15.24L813,262.72h-8.37l-19.12-21.66H768.38v21.66h-7Zm25.85,26.52c8.89,0,14.49-3.66,14.49-10.46v-.3c0-7.62-6-10.46-14.49-10.46h-18.9v21.22Z"></path>
    <path d="M828,209.31h45v5.37h-38v18h32v5.38h-32v19.27h39.82v5.38H828Z"></path>
    <path d="m886.25 209.31h7.1l15.76 45.12 18.38-45.12h4.93l18 45.27 16.36-45.27h6.5l-19.58 53.41h-6.57l-17.26-43.93-18.07 43.93h-6.5z"></path>
    <path d="m1003.2 209.31h9.27l25.52 53.41h-7.17l-7.25-15.31h-32.2l-7.39 15.31h-6.43zm-9.34 32.87h27.2l-13.45-28.39z"></path>
    <path d="M1052.82,209.31h25.4c11.88,0,21.89,4.4,21.89,15.68v.3c0,9.27-7.85,13.9-15.32,15.24l19.58,22.19H1096l-19.13-21.66h-17.1v21.66h-7Zm25.85,26.52c8.89,0,14.49-3.66,14.49-10.46v-.3c0-7.62-6.05-10.46-14.49-10.46h-18.9v21.22Z"></path>
    <path d="M1119.38,209.31h24.28c22.94,0,34.07,11.35,34.07,26.22v.67c0,14.79-10.69,26.52-34.29,26.52h-24.06Zm23.83,48c18.38,0,27.35-8.22,27.35-21.21v-.6c0-12.33-8.07-20.92-27.42-20.92h-16.81v42.73Z"></path>
    <path d="m1190.7 246.43h6.8c1.12 6.58 6.13 11.66 20.4 11.66 11.43 0 17.85-3.89 17.85-10.39 0-6.27-4.71-8.29-19.35-10s-22.93-5.23-22.93-14.79c0-8.22 8.59-14.27 22.63-14.27s22.79 4.93 24.21 14.72h-6.35c-1.65-6.95-7.47-9.41-17.86-9.41-11.28 0-16.13 3.43-16.13 8.81 0 4.78 3.51 7.55 18.45 9.27 15.69 1.79 24 4.93 24 15.46 0 9.26-9.11 15.91-24.57 15.91-17.83-0.01-25.83-7.55-27.15-16.97z"></path>
  </symbol></defs>
								<use xlink:href="#svgsprite-logos-onerewards">
									<title id="title-logos-onerewards">Selecting opens the IHG One Rewards website in this browser window.</title>
									<desc id="desc-logos-onerewards">Selecting opens the IHG One Rewards website in this browser window.</desc>
								</use>
							</svg>