<svg xmlns:xlink="http://www.w3.org/1999/xlink" xmlns="http://www.w3.org/2000/svg" role="img" class="footer-list__item-img" width="100"  height="60" ><defs><symbol viewBox="0 0 91 18" id="svgsprite-logos-re">
    <path d="M89.5925 0.361084H72.6971V0.551569C73.0606 0.819978 74.8523 1.73776 74.8523 4.32661V13.5131H74.8003L64.7686 0.361084H61.168V0.60353C61.5575 0.698772 63.8252 2.27459 63.8252 4.81149V13.3226C63.8252 15.9115 62.0335 16.8293 61.67 17.0977V17.2882H66.2141V17.0977C65.8506 16.8293 64.0589 15.9115 64.0589 13.3226V3.65126H64.0849L74.8436 17.6518H75.086V4.32661C75.1119 3.03652 76.1419 0.60353 78.7559 0.60353H81.3179V14.7773C81.3179 16.3964 79.5262 17.0544 79.1627 17.0544V17.2968H85.8793V17.0544C85.5158 17.0544 83.7241 16.405 83.7241 14.7773V0.60353H85.8534C88.5366 0.60353 89.7656 3.8937 89.9907 4.42186H90.259L89.5925 0.361084Z" fill="black"></path>
    <path d="M60.6567 13.2275C60.4404 13.7557 59.2026 17.0458 56.5194 17.0458H52.2609V8.70785H53.9747C56.6579 8.70785 56.5108 9.93733 56.9522 11.2014H57.2205V5.98047H56.9522C56.5194 7.23593 56.6579 8.47408 53.9747 8.47408H52.2609V0.612305H55.0653C57.7485 0.612305 58.9776 3.90248 59.2026 4.43063H59.4709L58.7958 0.369873H47.6995V0.612305C48.063 0.612305 49.8547 1.50411 49.8547 3.12322V14.5349C49.8547 16.154 48.5477 17.0458 47.6995 17.0458V17.2883H60.2413L60.9164 13.2275H60.6567Z" fill="black"></path>
    <path d="M45.6481 9.06285H41.078V9.30528C42.0215 9.30528 43.2332 9.71223 43.2332 11.0976V16.561C42.2206 16.8987 41.104 17.2883 39.6758 17.2883C35.2009 17.2883 33.8507 12.5522 33.8507 8.58664C33.8507 4.62111 35.4433 0.361194 39.6758 0.361194C41.9003 0.361194 44.0728 2.46518 44.8259 4.85488H45.0682L44.6354 1.07984C43.2852 0.551679 41.5454 0.110107 39.6758 0.110107C34.647 0.110107 31.2627 3.80723 31.2627 8.56933C31.2627 13.5739 34.3787 17.5134 39.6758 17.5134C41.5887 17.5134 43.666 16.5696 44.5575 16.5696C45.2586 16.5696 45.449 17.0978 45.449 17.5134H45.6395V9.06285H45.6481Z" fill="black"></path>
    <path d="M30.2503 13.227C30.0339 13.7552 28.7961 17.0453 26.1129 17.0453H21.8544V8.70737H23.5682C26.2514 8.70737 26.1043 9.93685 26.5457 11.201H26.814V5.97999H26.5457C26.1129 7.23545 26.2514 8.47359 23.5682 8.47359H21.8544V0.611817H24.6588C27.342 0.611817 28.5711 3.90199 28.7961 4.43015H29.0644L28.3893 0.369385H17.293V0.611817C17.6565 0.611817 19.4482 1.50362 19.4482 3.12273V14.5344C19.4482 16.1535 18.8683 17.0021 17.7777 17.0453C17.1286 17.0453 16.0639 17.0973 13.8135 14.6556L8.9578 9.46064C11.0351 9.12297 13.4327 7.88483 13.4327 5.1055C13.4327 1.74606 10.7495 0.369385 7.72871 0.369385H0.259033V0.611817C0.622563 0.611817 2.41426 1.50362 2.41426 3.12273V14.5344C2.41426 16.1535 0.622563 17.0453 0.259033 17.0453V17.2878H6.97569V17.0453C6.61216 17.0453 4.82048 16.1535 4.82048 14.5344V9.55589H4.99358C6.63811 9.77234 7.26996 10.9326 11.589 15.6514C13.2595 17.4609 14.9474 17.2445 17.7777 17.2964H29.8434L30.5186 13.2357H30.2503V13.227ZM4.82048 9.30479V0.603164H7.72004C9.555 0.603164 10.9572 2.68117 10.9572 5.02758C10.9572 7.37399 9.555 9.30479 7.72004 9.30479H4.82048Z" fill="black"></path>
  </symbol></defs>
                                        <use xlink:href="#svgsprite-logos-re">
                                            <title id="title-logos-re">Selecting will reload the Regent hotels website in this browser window.</title>
                                            <desc id="desc-logos-re">Selecting will reload the Regent hotels website in this browser window.</desc>
                                        </use>
                                    </svg>