<svg xmlns:xlink="http://www.w3.org/1999/xlink" xmlns="http://www.w3.org/2000/svg" role="img" class="footer-list__item-img" width="80"  height="60" ><defs><symbol viewBox="0 0 71 18" id="svgsprite-logos-vx">
    <path d="M51.3677 12.4319C50.625 13.6872 48.1664 15.0022 45.9896 14.6948C43.5311 14.3105 41.2091 12.5343 41.2091 8.3244C41.2091 6.66775 41.4652 5.38684 41.8664 4.4048C43.0103 1.93691 45.0762 1.39894 46.0152 1.39894C47.4067 1.39894 48.2518 1.82591 48.4567 2.09063C48.064 2.28703 47.7311 2.63715 47.5774 3.10682C47.1933 4.08032 47.6457 5.22459 48.6701 5.60887C49.6859 5.99314 50.8469 5.43808 51.2396 4.46459C51.5555 3.80705 51.3079 2.9702 50.8896 2.4493C50.4286 1.92839 49.1652 0.638916 46.1774 0.638916C40.4835 0.638916 37.3506 4.71223 37.3506 8.8197V8.82825V8.83677C37.3591 13.4224 40.7994 17.2054 45.0506 17.2054C49.4128 17.2054 51.3506 14.4215 51.803 12.6795L51.3677 12.4319Z" fill="#231F20"></path>
    <path d="M11.1178 0.843448V1.38143V1.3985C14.1825 1.68884 13.0556 4.32751 12.2191 6.54775C11.5788 8.25562 10.5971 10.621 10.102 11.808V11.8166C9.291 9.81834 7.08858 4.40435 6.87516 3.86637C6.55077 3.05513 5.9959 1.37288 7.89101 1.37288V0.8349H0.56665V1.37288C1.16421 1.37288 1.99225 1.2448 2.75201 3.06369C2.75201 3.06369 3.00811 3.44796 8.65077 16.8804H9.04345L10.5373 13.1914L13.1922 6.66728C14.2337 4.2421 15.019 2.92706 15.6593 2.20975C16.4617 1.32166 17.0507 1.37288 17.6398 1.37288V0.8349H11.1178V0.843448Z" fill="#231F20"></path>
    <path d="M34.2605 8.96485C34.252 4.45604 31.3752 0.638916 26.313 0.638916C21.2508 0.638916 18.3655 4.46458 18.3655 8.96485C18.3655 8.97339 18.3655 8.9734 18.3655 8.98195C18.3655 13.5164 21.2423 17.0944 26.313 17.0944C31.3837 17.0944 34.2605 13.5164 34.2605 8.98195C34.2605 8.9734 34.2605 8.96485 34.2605 8.96485ZM26.3045 16.1807C23.6411 16.1807 22.3691 14.7973 22.3008 8.96485C22.3776 3.16658 23.6496 1.55264 26.3045 1.55264C28.9423 1.55264 30.1886 3.16658 30.2654 8.96485C30.1972 14.7973 28.9508 16.1807 26.3045 16.1807Z" fill="#231F20"></path>
    <path d="M70.5667 8.96481C70.5582 4.53286 67.7753 0.766984 62.8582 0.638893V0.630371H62.6106H62.3631V0.638893C57.4545 0.758444 54.6631 4.52432 54.6545 8.96481C54.6545 8.97335 54.6545 8.97337 54.6545 8.98191C54.6545 13.5163 57.5314 17.0943 62.6021 17.0943C67.6728 17.0943 70.5497 13.5163 70.5497 8.98191C70.5667 8.97337 70.5667 8.96481 70.5667 8.96481ZM62.6192 16.1806C59.9558 16.1806 58.6838 14.7972 58.6155 8.96481C58.6923 3.16656 59.9643 1.55262 62.6192 1.55262C65.257 1.55262 66.5033 3.16656 66.5802 8.96481C66.5119 14.7972 65.257 16.1806 62.6192 16.1806Z" fill="#231F20"></path>
  </symbol></defs>
                                        <use xlink:href="#svgsprite-logos-vx">
                                            <title id="title-logos-vx">Selecting will reload the voco hotels website in this browser window.</title>
                                            <desc id="desc-logos-vx">Selecting will reload the voco hotels website in this browser window.</desc>
                                        </use>
                                    </svg>