<svg xmlns:xlink="http://www.w3.org/1999/xlink" xmlns="http://www.w3.org/2000/svg" role="img" class="footer-list__item-img" width="80"  height="60" ><defs><symbol viewBox="0 0 71 35" id="svgsprite-logos-ex">
    <path d="M70.8115 34.5052H36.323V0.00531006H70.8115V34.5052ZM35.3 0.00531006H0.811523V34.5052H35.3V0.00531006Z" fill="#002D72"></path>
    <path d="M51.9655 7.76174L51.6155 9.40461C51.5437 9.38665 51.4091 9.36872 51.2924 9.36872C50.0809 9.36872 49.2104 10.3562 49.2104 11.4604C49.2104 12.1427 49.6322 12.5646 50.2693 12.5646C50.6463 12.5646 50.9693 12.412 51.1488 12.2055C51.2027 12.43 51.4181 12.5467 51.6783 12.5467H51.795L52.8181 7.76174H51.9655ZM51.2296 11.236C51.1758 11.4694 51.104 11.6579 50.9873 11.7926C50.8706 11.9183 50.736 11.9991 50.5296 11.9991C50.2424 11.9991 50.0629 11.8016 50.0629 11.4425C50.0629 10.7063 50.5924 9.90734 51.2475 9.90734C51.3463 9.90734 51.4539 9.92528 51.4988 9.95221L51.2296 11.236ZM48.9411 8.12086C48.6539 8.12086 48.3668 8.39018 48.3668 8.68643C48.3668 8.91087 48.5283 9.06346 48.7437 9.06346C49.0399 9.06346 49.327 8.79414 49.327 8.49789C49.327 8.27346 49.1565 8.12086 48.9411 8.12086ZM46.1322 11.7028C46.1053 11.8464 45.9168 12.5646 46.6706 12.5646H46.7873L47.6758 8.32732H46.8322L46.1322 11.7028ZM47.7655 11.7028C47.7296 11.8464 47.5501 12.5646 48.304 12.5646H48.4206L49.0847 9.42258H48.2411L47.7655 11.7028ZM44.7232 9.36872C44.2745 9.36872 43.8796 9.51236 43.5835 9.76372C43.1168 10.1497 42.8386 10.7782 42.8386 11.4425C42.8386 12.1876 43.3501 12.5646 44.0501 12.5646C44.4988 12.5646 44.8847 12.421 45.1898 12.1696C45.6565 11.7926 45.9347 11.1552 45.9347 10.4819C45.9437 9.74576 45.4322 9.36872 44.7232 9.36872ZM44.6963 11.7118C44.5527 11.8913 44.3822 12.0081 44.1668 12.0081C43.8258 12.0081 43.7001 11.7746 43.7001 11.4425C43.7001 11.0834 43.8347 10.5537 44.095 10.2305C44.2386 10.051 44.4181 9.93429 44.6334 9.93429C44.9655 9.93429 45.1001 10.1677 45.1001 10.4999C45.0911 10.85 44.9565 11.3796 44.6963 11.7118ZM54.6309 9.36872C53.4732 9.36872 52.5488 10.3023 52.5488 11.4694C52.5488 12.1517 52.9347 12.5736 53.5719 12.5736C53.9578 12.5736 54.2809 12.421 54.4604 12.2145C54.5142 12.4389 54.7386 12.5557 54.9899 12.5557H55.1065L55.7168 9.6829C55.4027 9.4854 55.0258 9.36872 54.6309 9.36872ZM54.5322 11.236C54.4783 11.4694 54.4155 11.6579 54.2988 11.7926C54.1822 11.9183 54.0386 11.9991 53.8322 11.9991C53.545 11.9991 53.4014 11.8105 53.4014 11.4425C53.4014 10.7961 53.8681 9.90734 54.6129 9.90734C54.6847 9.90734 54.7565 9.92529 54.8104 9.9612L54.5322 11.236ZM67.2039 9.35075C66.8001 9.35075 66.4591 9.53032 66.2347 9.77271L66.154 9.40461H65.5078C65.5078 9.66495 65.4719 10.024 65.3552 10.5716L64.9514 12.4838H65.786L66.0822 11.0923C66.1629 10.7063 66.3065 9.97018 66.8988 9.97018C67.195 9.97018 67.3476 10.1587 67.2488 10.5986L67.0245 11.6759C66.9886 11.8195 66.8001 12.5377 67.5629 12.5377H67.6706L68.0924 10.5537C68.2899 9.71884 67.8411 9.35075 67.2039 9.35075ZM58.104 10.823C58.0232 11.2091 57.8886 11.9452 57.2873 11.9452C56.7578 11.9452 56.9283 11.3617 56.9552 11.2091L57.3322 9.43157H56.4975L56.1206 11.1911C56.0847 11.3796 56.0398 11.5682 56.0398 11.7208C56.0398 11.9542 56.1206 12.1337 56.2463 12.2774C55.7527 12.403 55.5283 12.6544 55.5283 13.0135C55.5283 13.5521 56.0578 13.8664 56.7578 13.8664C57.3591 13.8664 57.8347 13.6598 58.1398 13.3187C58.3911 13.0404 58.5437 12.6544 58.6514 12.1158L59.2258 9.43157H58.3911L58.104 10.823ZM57.727 12.5108C57.6642 12.7621 57.5475 12.9776 57.386 13.1392C57.2245 13.2918 57.0091 13.3726 56.7757 13.3726C56.4886 13.3726 56.2463 13.2289 56.2463 12.9866C56.2463 12.6723 56.5604 12.5915 57.018 12.5377C57.3411 12.5018 57.6283 12.421 57.7988 12.2774L57.727 12.5108ZM63.7937 9.35075C63.3899 9.35075 63.0488 9.53032 62.8245 9.77271L62.7437 9.40461H62.1065C62.1065 9.66495 62.0616 10.024 61.9539 10.5716L61.5501 12.4838H62.3937L62.6898 11.0923C62.7706 10.7063 62.9142 9.97018 63.5065 9.97018C63.7937 9.97018 63.9463 10.1587 63.8565 10.5986L63.6322 11.6759C63.5963 11.8195 63.4078 12.5377 64.1706 12.5377H64.2873L64.7091 10.5537C64.8886 9.71884 64.4399 9.35075 63.7937 9.35075ZM61.0027 7.62712L60.1501 11.7118C60.1142 11.8554 59.9347 12.5736 60.6886 12.5736H60.8052L61.8373 7.62712H61.0027ZM42.3091 7.60016L41.9322 9.41359C41.295 9.53928 40.8193 9.64703 40.3616 9.77271L40.4335 9.40461L40.8104 7.59117H39.9757L39.4463 10.1138C39.3296 10.1677 39.204 10.2305 39.0514 10.3023C38.827 10.419 38.7463 10.5986 38.7193 10.6794C38.7014 10.7332 38.7014 10.841 38.7283 10.9218C38.9347 10.841 39.1322 10.7692 39.3296 10.6973L39.1232 11.6759C39.0873 11.8195 38.9078 12.5377 39.6616 12.5377H39.7783L40.2091 10.4549C40.6758 10.3293 41.1604 10.2216 41.7796 10.0959L41.7706 10.1318L41.4476 11.6669C41.4117 11.8105 41.2232 12.5287 41.986 12.5287H42.1117L43.1437 7.58224H42.3091V7.60016ZM47.1373 20.3749L46.4552 18.7859L48.5822 16.2453H47.6399L46.1681 18.0946L45.3873 16.2453H44.3104L45.3783 18.7321L43.1617 21.3175H44.1129L45.6745 19.4323L46.1232 20.4916C46.2578 20.8058 46.3655 20.9943 46.5091 21.138C46.6975 21.3175 46.9488 21.4073 47.254 21.4073C47.3617 21.4073 47.4693 21.3893 47.577 21.3624L47.1732 20.4288C47.1553 20.4198 47.1463 20.4019 47.1373 20.3749ZM51.0322 16.1556C51.0322 16.1556 50.4309 16.1196 49.0668 16.4159L48.7257 18.0498L48.4116 19.54L47.8193 22.332C47.7834 22.5025 47.5501 23.3913 48.4835 23.3913H48.6181L49.0578 21.3085C49.2822 21.3714 49.5963 21.4163 49.8386 21.4163C51.7322 21.4163 52.9527 19.7465 52.9527 17.9241C52.9527 16.7211 52.1719 16.1556 51.0322 16.1556ZM49.7758 20.725C49.5694 20.725 49.327 20.6891 49.2014 20.6442L49.4347 19.549L49.9642 17.0263C50.1886 16.9366 50.5475 16.8648 50.8257 16.8648C51.5616 16.8648 51.9117 17.2328 51.9117 17.969C51.9027 19.3694 51.0501 20.725 49.7758 20.725ZM56.2642 17.0443L56.4527 16.2004C56.3809 16.1825 56.2014 16.1556 56.0937 16.1556C55.4475 16.1556 54.9809 16.5326 54.6937 17.0353V16.2543H53.9309C53.9309 16.2543 53.9399 16.4788 53.8681 16.9994L53.2578 19.8542L53.1591 20.2941C53.1232 20.4647 52.8898 21.3534 53.8232 21.3534H53.9578L54.1822 20.3031L54.4335 19.1271C54.586 18.3909 54.7475 17.7176 55.1245 17.3406C55.3219 17.1431 55.5732 17.0263 55.9322 17.0263C56.0578 17.0084 56.2104 17.0264 56.2642 17.0443ZM57.9065 19.3605C59.4322 19.3605 60.4283 18.4986 60.4283 17.4662C60.4283 16.5685 59.6745 16.1466 58.8488 16.1466C57.1168 16.1466 55.8065 17.9151 55.8065 19.5669C55.8065 20.734 56.6322 21.4073 57.7719 21.4073C58.4091 21.4073 59.118 21.2098 59.5757 20.9225L59.7283 20.1505C59.3065 20.4198 58.6065 20.6801 58.0322 20.6801C57.2783 20.6801 56.8476 20.2492 56.8476 19.5221C56.8476 19.4323 56.8565 19.2886 56.8655 19.2168C57.1527 19.3156 57.5924 19.3605 57.9065 19.3605ZM58.8129 16.8648C59.2347 16.8648 59.4591 17.1161 59.4591 17.4842C59.4591 18.2114 58.8668 18.6782 57.8437 18.6782C57.5745 18.6782 57.1616 18.6243 57.0001 18.5705C57.2334 17.7805 57.9245 16.8648 58.8129 16.8648ZM62.7078 18.3729C62.1604 18.1216 61.8193 17.9151 61.8193 17.574C61.8193 17.17 62.2591 16.8379 62.9501 16.8379C63.3629 16.8379 63.8655 16.9635 64.1975 17.1341L64.3411 16.4339C64.027 16.2813 63.4527 16.1556 63.004 16.1556C61.7565 16.1556 60.8501 16.793 60.8501 17.7266C60.8501 18.4627 61.4155 18.8128 62.0258 19.0911C62.7168 19.4053 63.0219 19.5849 63.0219 19.9619C63.0219 20.3929 62.6091 20.725 61.8642 20.725C61.3527 20.725 60.7783 20.5903 60.3565 20.2851L60.195 21.0213C60.6437 21.2996 61.2629 21.4253 61.8104 21.4253C63.0847 21.4253 64.0091 20.8328 64.0091 19.8004C63.9911 19.0822 63.4976 18.75 62.7078 18.3729ZM66.8181 16.8379C67.2398 16.8379 67.7424 16.9635 68.0655 17.1341L68.2091 16.4339C67.895 16.2813 67.3206 16.1556 66.8719 16.1556C65.6245 16.1556 64.7181 16.793 64.7181 17.7266C64.7181 18.4627 65.2834 18.8128 65.8937 19.0911C66.5847 19.4053 66.8898 19.5849 66.8898 19.9619C66.8898 20.3929 66.4681 20.725 65.7322 20.725C65.2206 20.725 64.6463 20.5903 64.2245 20.2851L64.0629 21.0213C64.5116 21.2996 65.1309 21.4253 65.6783 21.4253C66.9527 21.4253 67.877 20.8328 67.877 19.8004C67.877 19.0912 67.3834 18.75 66.5937 18.3819C66.0463 18.1306 65.7052 17.9241 65.7052 17.5829C65.6873 17.17 66.127 16.8379 66.8181 16.8379ZM40.227 14.4588H43.377H44.2206C44.2117 14.5396 44.1937 14.6115 44.1668 14.6833C43.9963 15.1232 43.736 15.2219 43.2963 15.2219H42.0219H41.1604L40.7117 17.3316H42.2193H43.0539C43.045 17.4124 43.027 17.4842 43.0001 17.556C42.8386 17.9869 42.5783 18.0857 42.1476 18.0857H41.977H40.5501L40.0476 20.5634H42.2193H42.327H43.1706C43.1616 20.6442 43.1437 20.725 43.1168 20.7878C42.9552 21.2277 42.686 21.3265 42.2463 21.3265H40.9719H39.7783H39.7424C38.7552 21.3265 38.9975 20.3839 39.0424 20.2044L40.227 14.4588ZM35.3001 11.1732C30.8758 11.3258 26.7655 11.9452 22.7001 13.0314C20.9411 19.2976 19.7206 25.9678 19.1732 31.9556C19.0117 32.0185 18.4642 32.0993 18.1681 32.0993C16.777 32.0993 15.9783 31.5427 15.9783 30.223C15.9783 27.0181 17.2347 20.321 18.8232 14.2164C16.8937 14.8808 14.9463 15.6528 12.9809 16.5326C12.0745 20.3929 11.4283 24.4057 11.1053 28.3378C10.9258 28.4276 10.4322 28.4904 10.127 28.4904C9.01421 28.4904 8.24244 27.7453 8.24244 26.4795C8.24244 24.3429 8.65524 21.3804 9.29242 18.2832C7.62319 19.1271 5.93601 20.0428 4.21293 21.0392C4.04242 20.7071 3.98858 20.2582 4.02448 20.0068C4.07833 19.6298 4.31165 18.8398 5.19114 18.2024C6.91421 16.9635 7.90141 16.4788 9.94756 15.3835C10.854 11.6579 11.9937 8.067 13.0347 5.82266C13.6988 4.39527 14.5424 3.84764 15.9873 3.84764C16.3732 3.84764 16.8937 3.93743 17.1719 4.0272C15.8527 6.89994 14.704 10.1228 13.7527 13.5162C15.6193 12.6724 17.5937 11.9003 19.6399 11.227C20.5822 7.97724 21.5694 5.12242 22.4578 3.39878C22.9873 2.35741 23.8129 1.81879 25.0335 1.81879C25.5988 1.81879 26.2271 1.90856 26.586 2.04322C25.4822 4.52096 24.486 7.23209 23.5975 10.0689C27.2411 9.13528 31.127 8.5069 35.3181 8.3094V11.1732H35.3001Z" fill="#FFFFFF"></path>
  </symbol></defs>
                                        <use xlink:href="#svgsprite-logos-ex">
                                            <title id="title-logos-ex">Selecting will reload the Holiday Inn Express Hotels website in this browser window.</title>
                                            <desc id="desc-logos-ex">Selecting will reload the Holiday Inn Express Hotels website in this browser window.</desc>
                                        </use>
                                    </svg>