<?xml version="1.0" encoding="UTF-8"?> <svg xmlns="http://www.w3.org/2000/svg" width="11.901" height="11.901" viewBox="0 0 11.901 11.901"><path id="Icon_simple-instagram" data-name="Icon simple-instagram" d="M5.95,0C4.334,0,4.132.007,3.5.036A4.388,4.388,0,0,0,2.053.312,2.914,2.914,0,0,0,1,1,2.9,2.9,0,0,0,.312,2.053,4.375,4.375,0,0,0,.036,3.5C.006,4.132,0,4.334,0,5.95S.007,7.769.036,8.4A4.39,4.39,0,0,0,.312,9.848,2.918,2.918,0,0,0,1,10.9a2.91,2.91,0,0,0,1.054.686,4.393,4.393,0,0,0,1.444.277c.635.03.837.036,2.453.036s1.818-.007,2.453-.036a4.4,4.4,0,0,0,1.444-.277,3.041,3.041,0,0,0,1.741-1.741A4.39,4.39,0,0,0,11.865,8.4c.03-.635.036-.837.036-2.453s-.007-1.818-.036-2.453a4.4,4.4,0,0,0-.277-1.444A2.92,2.92,0,0,0,10.9,1,2.9,2.9,0,0,0,9.848.312,4.378,4.378,0,0,0,8.4.036C7.769.006,7.567,0,5.95,0Zm0,1.071c1.588,0,1.778.008,2.4.035a3.278,3.278,0,0,1,1.1.206,1.958,1.958,0,0,1,1.13,1.129,3.285,3.285,0,0,1,.2,1.1c.028.628.035.816.035,2.4s-.007,1.778-.037,2.4a3.349,3.349,0,0,1-.209,1.1,1.889,1.889,0,0,1-.446.685,1.856,1.856,0,0,1-.684.444,3.31,3.31,0,0,1-1.108.2c-.632.028-.818.035-2.409.035s-1.778-.007-2.409-.037a3.374,3.374,0,0,1-1.109-.209,1.843,1.843,0,0,1-.684-.446,1.807,1.807,0,0,1-.446-.684,3.377,3.377,0,0,1-.208-1.108c-.022-.625-.03-.818-.03-2.4s.008-1.778.03-2.41a3.373,3.373,0,0,1,.208-1.108,1.764,1.764,0,0,1,.446-.685,1.76,1.76,0,0,1,.684-.445,3.293,3.293,0,0,1,1.1-.209c.632-.022.818-.03,2.409-.03l.022.015Zm0,1.824A3.056,3.056,0,1,0,9.006,5.95,3.055,3.055,0,0,0,5.95,2.895Zm0,5.039A1.983,1.983,0,1,1,7.934,5.95,1.983,1.983,0,0,1,5.95,7.934Zm3.891-5.16a.714.714,0,1,1-.714-.714A.715.715,0,0,1,9.841,2.774Z" fill="#fff"></path></svg> 