<svg xmlns:xlink="http://www.w3.org/1999/xlink" xmlns="http://www.w3.org/2000/svg" role="img" class="footer-banner__img footer-banner__img--horizontalem" width="911.74"  height="148" ><defs><symbol viewBox="117.17 117.16 911.74 148" id="svgsprite-logos-6c-horizontalem">
    <polygon points="323.31 119.55 301.68 119.55 301.68 182.56 223.57 182.56 223.57 119.55 202.13 119.55 202.13 262.78 223.57 262.78 223.57 197.34 301.68 197.34 301.68 262.78 323.31 262.78"></polygon>
    <rect x="117.17" y="119.55" width="21.407" height="143.24"></rect>
    <path d="m476.86 193.85v55.517c-6.057 4.112-16.225 7.355-27.696 7.355-33.534 0-56.471-29.644-56.471-67.074 0-35.27 20.121-64.261 53.662-64.261 23.15 0 36.35 10.818 46.084 22.934h1.083v-24.883c-6.925-1.73-26.181-6.275-46.303-6.275-48.682 0-78.326 35.485-78.326 74.432 0 42.622 32.023 73.564 78.76 73.564 23.15 0 41.108-8.87 50.845-11.683v-59.628h-21.638z"></path>
    <path d="m503.89 129.64c0-4.763 3.796-8.596 8.598-8.596 4.879 0 8.596 3.794 8.596 8.557 0 4.841-3.794 8.559-8.596 8.559-4.763 0-8.598-3.679-8.598-8.52zm15.646-0.039c0-4.22-2.943-7.163-7.048-7.163s-7.048 2.982-7.048 7.203c0 4.261 3.098 7.126 7.048 7.126 3.988-1e-3 7.048-2.944 7.048-7.166zm-9.991-4.337h2.982c1.974 0 3.252 0.813 3.252 2.556v0.039c0 1.278-0.737 1.974-1.743 2.285l2.246 3.6h-1.935l-2.052-3.291h-0.891v3.291h-1.859v-8.48zm2.943 3.911c0.968 0 1.472-0.426 1.472-1.239v-0.037c0-0.891-0.543-1.202-1.472-1.202h-1.085v2.478h1.085z"></path>
    <path d="m575.73 119.68h6.946v24.124h40.929v-24.124h6.946v53.402h-6.946v-23.676h-40.929v23.676h-6.946v-53.402z"></path>
    <path d="m645.33 146.72v-0.597c0-15.162 13.817-27.112 35.103-27.112s35.103 11.95 35.103 26.962v0.597c0 15.087-13.818 27.186-34.879 27.186-21.509 1e-3 -35.327-12.099-35.327-27.036zm62.962-0.224v-0.597c0-11.876-10.232-21.585-27.858-21.585-17.776 0-27.858 9.112-27.858 21.734v0.597c0 12.846 11.502 21.659 28.083 21.659 17.027 0 27.633-8.962 27.633-21.808z"></path>
    <path d="m743.32 125.06h-21.958v-5.377h50.862v5.377h-21.958v48.024h-6.946v-48.024z"></path>
    <path d="m785.37 119.68h44.962v5.377h-38.016v18h32.041v5.378h-32.041v19.269h39.808v5.377h-46.754v-53.401z"></path>
    <path d="m845.86 119.68h6.946v48.024h34.431v5.377h-41.377v-53.401z"></path>
    <path d="m895.68 156.8h6.796c1.12 6.573 6.125 11.651 20.39 11.651 11.427 0 17.85-3.884 17.85-10.382 0-6.273-4.705-8.29-19.344-10.008-14.714-1.718-22.929-5.228-22.929-14.788 0-8.216 8.589-14.266 22.63-14.266 13.892 0 22.78 4.929 24.199 14.714h-6.348c-1.643-6.946-7.469-9.411-17.85-9.411-11.278 0-16.133 3.436-16.133 8.813 0 4.78 3.51 7.543 18.448 9.261 15.685 1.792 24.049 4.929 24.049 15.46 0 9.261-9.112 15.908-24.572 15.908-17.925 3e-3 -25.842-7.541-27.186-16.952z"></path>
    <path d="m575.73 209.25h25.393c11.876 0 21.884 4.407 21.884 15.685v0.299c0 9.261-7.842 13.892-15.311 15.236l19.568 22.182h-8.365l-19.12-21.659h-17.104v21.659h-6.946v-53.402zm25.842 26.514c8.888 0 14.489-3.66 14.489-10.456v-0.299c0-7.618-6.05-10.456-14.489-10.456h-18.896v21.211h18.896z"></path>
    <path d="m642.5 209.25h44.962v5.377h-38.016v18h32.041v5.378h-32.041v19.269h39.808v5.377h-46.754v-53.401z"></path>
    <path d="m701.05 246.37h6.796c1.12 6.573 6.125 11.651 20.39 11.651 11.427 0 17.85-3.884 17.85-10.382 0-6.273-4.705-8.29-19.344-10.008-14.714-1.718-22.929-5.228-22.929-14.788 0-8.216 8.589-14.266 22.63-14.266 13.892 0 22.78 4.929 24.199 14.714h-6.348c-1.643-6.946-7.469-9.411-17.85-9.411-11.278 0-16.133 3.436-16.133 8.813 0 4.78 3.51 7.543 18.448 9.261 15.685 1.792 24.049 4.929 24.049 15.46 0 9.261-9.112 15.908-24.572 15.908-17.925 2e-3 -25.841-7.541-27.186-16.952z"></path>
    <path d="m766.25 236.29v-0.597c0-15.162 13.817-27.112 35.103-27.112s35.103 11.95 35.103 26.962v0.597c0 15.087-13.818 27.186-34.879 27.186-21.51 1e-3 -35.327-12.098-35.327-27.036zm62.961-0.224v-0.597c0-11.876-10.232-21.585-27.858-21.585-17.775 0-27.858 9.112-27.858 21.734v0.597c0 12.846 11.502 21.659 28.083 21.659 17.028 1e-3 27.633-8.962 27.633-21.808z"></path>
    <path d="m853.78 209.25h25.394c11.875 0 21.883 4.407 21.883 15.685v0.299c0 9.261-7.842 13.892-15.311 15.236l19.568 22.182h-8.365l-19.12-21.659h-17.104v21.659h-6.946v-53.402zm25.842 26.514c8.888 0 14.489-3.66 14.489-10.456v-0.299c0-7.618-6.05-10.456-14.489-10.456h-18.896v21.211h18.896z"></path>
    <path d="m935.78 214.63h-21.958v-5.377h50.862v5.377h-21.958v48.024h-6.946v-48.024z"></path>
    <path d="m974.39 246.37h6.796c1.12 6.573 6.125 11.651 20.39 11.651 11.427 0 17.85-3.884 17.85-10.382 0-6.273-4.705-8.29-19.344-10.008-14.714-1.718-22.929-5.228-22.929-14.788 0-8.216 8.589-14.266 22.63-14.266 13.892 0 22.78 4.929 24.199 14.714h-6.348c-1.643-6.946-7.469-9.411-17.85-9.411-11.278 0-16.133 3.436-16.133 8.813 0 4.78 3.51 7.543 18.448 9.261 15.685 1.792 24.049 4.929 24.049 15.46 0 9.261-9.112 15.908-24.572 15.908-17.925 2e-3 -25.842-7.541-27.186-16.952z"></path>
    <path d="m1013.9 165.75c-3.915 4.411-9.657 7.849-17.421 7.849-10.961 0-18.204-5.308-18.204-14.279 0-8.522 6.59-13.157 13.376-15.699-3.523-3.139-5.872-6.877-5.872-11.886 0-8.224 6.72-12.858 14.289-12.858 8.091 0 13.506 5.233 13.506 12.41 0 5.308-4.176 10.466-12.332 13.68l12.984 13.157 8.417-12.634h5.742l-10.701 16.148 11.223 11.438h-7.895l-7.112-7.326zm-17.29 2.691c6.264 0 10.961-2.467 14.158-5.906l-15.398-15.774c-6.329 2.318-10.961 5.831-10.961 12.185 0 5.832 4.306 9.495 12.201 9.495zm1.109-26.538c7.503-3.215 10.309-6.504 10.309-10.765 0-4.111-2.936-7.326-8.091-7.326-4.763 0-8.547 2.691-8.547 7.999 0 4.036 2.74 7.176 6.329 10.092z"></path>
  </symbol></defs>
								<use xlink:href="#svgsprite-logos-6c-horizontalem">
									<title id="logos-title-6c">Selecting will reload the IHG website in this browser window.</title>
									<desc id="logos-desc-6c">Selecting will reload the IHG website in this browser window.</desc>
								</use>
							</svg>