<?xml version="1.0" encoding="UTF-8"?> <svg xmlns="http://www.w3.org/2000/svg" width="10.474" height="13.965" viewBox="0 0 10.474 13.965"><path id="Icon_awesome-bluetooth" data-name="Icon awesome-bluetooth" d="M9.358,4.667l-1.17,1.17L8.18,3.491,9.358,4.667m-1.178,6L9.355,9.487l-1.17-1.17L8.18,10.662Zm4.544-3.587c0,5.608-1.961,6.89-5.049,6.89S2.25,12.683,2.25,7.075,4.525,0,7.612,0,12.724,1.47,12.724,7.075Zm-4.323,0,2.166-2.417L7.154,1V5.821L5.141,3.808,4.4,4.541,6.933,7.078,4.4,9.615l.734.734L7.151,8.336l.063,4.637,3.475-3.478L8.4,7.075Z" transform="translate(-2.25)" fill="#002e52"></path></svg> 