<?xml version="1.0" encoding="UTF-8"?> <svg xmlns="http://www.w3.org/2000/svg" width="16.681" height="23.205" viewBox="0 0 16.681 23.205"><g id="Group_401" data-name="Group 401" transform="translate(-233.93 -105.685)"><path id="Path_733" data-name="Path 733" d="M437.165,235.047a.346.346,0,0,0,.367-.367v-1.356a.367.367,0,0,0-.733,0v1.356A.368.368,0,0,0,437.165,235.047Z" transform="translate(-189.452 -118.804)" fill="#002e52" stroke="#002e52" stroke-width="0.3"></path><path id="Path_734" data-name="Path 734" d="M427.225,286.049a1.063,1.063,0,1,0-1.063-1.063A1.063,1.063,0,0,0,427.225,286.049Zm0-1.392a.33.33,0,1,1-.33.33A.328.328,0,0,1,427.225,284.657Z" transform="translate(-179.512 -166.435)" fill="#002e52" stroke="#002e52" stroke-width="0.3"></path><path id="Path_735" data-name="Path 735" d="M246.027,105.835h-7.476a4.489,4.489,0,0,0-4.471,4.471v2.272a.346.346,0,0,0,.367.367h.623a1.861,1.861,0,0,0,1.869,1.576h5.607a1.894,1.894,0,0,0,1.869-1.576h.33v13.01h-1.979a2.78,2.78,0,0,0,1.063-2.2v-3.005a.346.346,0,0,0-.367-.367h-7.4a.346.346,0,0,0-.367.367v3.005a2.78,2.78,0,0,0,1.063,2.2h-2.272a.346.346,0,0,0-.367.367v.88a1.549,1.549,0,0,0,1.539,1.539h13.266a1.549,1.549,0,0,0,1.539-1.539V110.269a4.426,4.426,0,0,0-4.434-4.434Zm-9.6,17.884v-2.639h6.67v2.639a2.088,2.088,0,0,1-2.089,2.089h-2.529a2.1,2.1,0,0,1-2.052-2.089Zm6.12-9.968h-5.607a1.111,1.111,0,0,1-1.1-.843h7.842A1.176,1.176,0,0,1,242.545,113.751Zm7.183,13.413a.814.814,0,0,1-.806.806H235.656a.813.813,0,0,1-.806-.806v-.513h10.261a.346.346,0,0,0,.367-.367V112.909h4.251Zm0-14.989H234.85V110.27a3.754,3.754,0,0,1,3.738-3.738h7.439a3.746,3.746,0,0,1,3.7,3.738Z" transform="translate(0 0)" fill="#002e52" stroke="#002e52" stroke-width="0.3"></path></g></svg> 