<?xml version="1.0" encoding="UTF-8"?> <svg xmlns="http://www.w3.org/2000/svg" width="19.709" height="22.525" viewBox="0 0 19.709 22.525"><path id="Icon_awesome-building" data-name="Icon awesome-building" d="M19.181,21.117H18.3V1.056A1.056,1.056,0,0,0,17.246,0H2.464A1.056,1.056,0,0,0,1.408,1.056V21.117H.528A.528.528,0,0,0,0,21.645v.88H19.709v-.88A.528.528,0,0,0,19.181,21.117ZM5.631,3.344a.528.528,0,0,1,.528-.528h1.76a.528.528,0,0,1,.528.528V5.1a.528.528,0,0,1-.528.528H6.159A.528.528,0,0,1,5.631,5.1Zm0,4.223a.528.528,0,0,1,.528-.528h1.76a.528.528,0,0,1,.528.528v1.76a.528.528,0,0,1-.528.528H6.159a.528.528,0,0,1-.528-.528Zm2.288,6.511H6.159a.528.528,0,0,1-.528-.528V11.79a.528.528,0,0,1,.528-.528h1.76a.528.528,0,0,1,.528.528v1.76A.528.528,0,0,1,7.919,14.078Zm3.344,7.039H8.447v-3.7a.528.528,0,0,1,.528-.528h1.76a.528.528,0,0,1,.528.528Zm2.816-7.567a.528.528,0,0,1-.528.528H11.79a.528.528,0,0,1-.528-.528V11.79a.528.528,0,0,1,.528-.528h1.76a.528.528,0,0,1,.528.528Zm0-4.223a.528.528,0,0,1-.528.528H11.79a.528.528,0,0,1-.528-.528V7.567a.528.528,0,0,1,.528-.528h1.76a.528.528,0,0,1,.528.528Zm0-4.223a.528.528,0,0,1-.528.528H11.79a.528.528,0,0,1-.528-.528V3.344a.528.528,0,0,1,.528-.528h1.76a.528.528,0,0,1,.528.528Z" fill="#0b3556"></path></svg> 