<?xml version="1.0" encoding="UTF-8"?> <svg xmlns="http://www.w3.org/2000/svg" width="18.41" height="13.141" viewBox="0 0 18.41 13.141"><g id="Icon_ionic-ios-wifi" data-name="Icon ionic-ios-wifi" transform="translate(-2.246 -6.75)"><path id="Path_722" data-name="Path 722" d="M11.447,6.75a13.575,13.575,0,0,0-9.1,3.626.327.327,0,0,0-.012.468l1.1,1.146A.337.337,0,0,0,3.912,12a11.032,11.032,0,0,1,7.54-2.944A11.032,11.032,0,0,1,18.991,12a.337.337,0,0,0,.476-.012l1.1-1.146a.327.327,0,0,0-.012-.468A13.612,13.612,0,0,0,11.447,6.75Z" fill="#002e52"></path><path id="Path_723" data-name="Path 723" d="M7.888,17.573l1.174,1.162a.337.337,0,0,0,.46.012,6.388,6.388,0,0,1,8.451,0,.337.337,0,0,0,.46-.012l1.174-1.162a.328.328,0,0,0-.012-.48,8.757,8.757,0,0,0-11.7,0A.335.335,0,0,0,7.888,17.573Z" transform="translate(-2.305 -3.369)" fill="#002e52"></path><path id="Path_724" data-name="Path 724" d="M16.2,22.8a3.346,3.346,0,0,0-2.439,1.047.329.329,0,0,0,.008.46l2.193,2.164a.337.337,0,0,0,.476,0L18.63,24.3a.329.329,0,0,0,.008-.46A3.362,3.362,0,0,0,16.2,22.8Z" transform="translate(-4.752 -6.674)" fill="#002e52"></path></g></svg> 