<?xml version="1.0" encoding="UTF-8"?> <svg xmlns="http://www.w3.org/2000/svg" width="13" height="20.8" viewBox="0 0 13 20.8"><path id="Icon_map-restaurant" data-name="Icon map-restaurant" d="M12.4,1.124v4.8h-.867V1.153a.433.433,0,0,0-.867,0V5.92H9.8V1.138a.434.434,0,0,0-.867-.014v4.8H8.067V1.158A.434.434,0,0,0,7.2,1.134V7.405a1.635,1.635,0,0,0,1.733,1.5V20.22a1.3,1.3,0,1,0,2.6,0V8.906a1.735,1.735,0,0,0,1.733-1.4V1.138a.435.435,0,0,0-.867-.014Zm3.9,1.329V13.286h.867V20.22c0,1.733,3.033,1.733,3.033,0V2.453C20.2.287,16.3.287,16.3,2.453Z" transform="translate(-7.2 -0.72)" fill="#002e52"></path></svg> 