<?xml version="1.0" encoding="UTF-8"?> <svg xmlns="http://www.w3.org/2000/svg" width="18.46" height="18.46" viewBox="0 0 18.46 18.46"><path id="Icon_map-gym" data-name="Icon map-gym" d="M7.494,18.026a.394.394,0,0,1-.02.554l-.85.795a.391.391,0,0,1-.552-.02L1.122,14.02a.394.394,0,0,1,.02-.554l.851-.794a.391.391,0,0,1,.552.02ZM13.81,7.988a.394.394,0,0,1-.02.554l-5.35,5a.391.391,0,0,1-.552-.02L6.611,12.142a.394.394,0,0,1,.02-.554l5.348-5a.39.39,0,0,1,.552.02L13.81,7.988Zm-4.5,8.337a.394.394,0,0,1-.02.554l-.851.794a.391.391,0,0,1-.552-.02L2.943,12.319a.394.394,0,0,1,.02-.554l.85-.794a.391.391,0,0,1,.552.02ZM17.557,8.18a.394.394,0,0,1-.02.554l-.851.794a.391.391,0,0,1-.553-.02L11.185,4.175a.394.394,0,0,1,.02-.554l.853-.8a.39.39,0,0,1,.552.02L17.557,8.18Zm1.817-1.7a.4.4,0,0,1-.02.555L18.5,7.83a.39.39,0,0,1-.552-.02L13.006,2.474a.4.4,0,0,1,.02-.555l.85-.8a.389.389,0,0,1,.551.02Z" transform="translate(-1.018 -1.019)" fill="#002e52"></path></svg> 