<?xml version="1.0" encoding="UTF-8"?> <svg xmlns="http://www.w3.org/2000/svg" width="22.481" height="18.46" viewBox="0 0 22.481 18.46"><g id="Group_402" data-name="Group 402" transform="translate(-120.143 -92.148)"><path id="Path_736" data-name="Path 736" d="M141.224,92.4H121.543a1.15,1.15,0,0,0-1.15,1.15v14.32a1.15,1.15,0,0,0,1.15,1.15h1.53v1.072a.268.268,0,0,0,.268.268h2.681a.268.268,0,0,0,.268-.268v-1.072h10.125v1.072a.268.268,0,0,0,.268.268h2.681a.268.268,0,0,0,.268-.268v-1.072h1.592a1.15,1.15,0,0,0,1.15-1.15V93.548a1.15,1.15,0,0,0-1.15-1.15Zm.614,15.47a.616.616,0,0,1-.614.614H121.543a.616.616,0,0,1-.614-.614V93.548a.616.616,0,0,1,.614-.614h19.681a.616.616,0,0,1,.614.614Zm-2.742,1.954h-2.145v-.8H139.1Zm-13.341,0H123.61v-.8h2.145Z" fill="#002e52" stroke="#002e52" stroke-width="0.5"></path><path id="Path_737" data-name="Path 737" d="M193.712,141.12H180.185a.933.933,0,0,0-.933.933v.756H178.18a.268.268,0,0,0-.268.268v2.681a.268.268,0,0,0,.268.268h1.072v2.145H178.18a.268.268,0,0,0-.268.268v2.681a.268.268,0,0,0,.268.268h1.072v.622a.933.933,0,0,0,.933.933h13.527a.935.935,0,0,0,.935-.933v-9.956a.935.935,0,0,0-.935-.933Zm.4,10.889a.4.4,0,0,1-.4.4H180.185a.4.4,0,0,1-.4-.4v-9.956a.4.4,0,0,1,.4-.4h13.527a.4.4,0,0,1,.4.4Zm-15.663-3.3h.8v2.145h-.8Zm0-5.361h.8v2.145h-.8Z" transform="translate(-54.766 -46.39)" fill="#002e52" stroke="#002e52" stroke-width="0.5"></path><path id="Path_738" data-name="Path 738" d="M334.032,182.5a3.93,3.93,0,1,0,2.777,1.15,3.93,3.93,0,0,0-2.777-1.15Zm0,7.323a3.394,3.394,0,1,1,2.2-5.973l-.461.461a.267.267,0,0,0,.378.378l.461-.472a3.391,3.391,0,0,1-2.579,5.595Z" transform="translate(-199.67 -85.788)" fill="#002e52" stroke="#002e52" stroke-width="0.5"></path><path id="Path_739" data-name="Path 739" d="M369.93,220.3a2.123,2.123,0,1,0,1.5.624,2.12,2.12,0,0,0-1.5-.624Zm-1.584,2.12a1.587,1.587,0,1,1,.465,1.119,1.584,1.584,0,0,1-.465-1.119Z" transform="translate(-235.568 -121.779)" fill="#002e52" stroke="#002e52" stroke-width="0.5"></path></g></svg> 