<?xml version="1.0" encoding="UTF-8"?> <svg xmlns="http://www.w3.org/2000/svg" width="22.14" height="17.573" viewBox="0 0 22.14 17.573"><g id="Group_400" data-name="Group 400" transform="translate(-69.516 -55.625)"><path id="Path_729" data-name="Path 729" d="M84.267,173.579v-.891A2.459,2.459,0,0,0,81.8,170.24H73.768a2.458,2.458,0,0,0-2.464,2.447v.891a1.668,1.668,0,0,0-1.413,1.64v6.98a.573.573,0,0,0,.576.572h2.191a.573.573,0,0,0,.576-.572v-.744h9.1v.744a.573.573,0,0,0,.576.572H85.1a.573.573,0,0,0,.576-.572v-6.98a1.664,1.664,0,0,0-1.408-1.64Zm-11.55,8.62a.057.057,0,0,1-.059.059H70.472a.057.057,0,0,1-.059-.059v-6.98a1.152,1.152,0,0,1,2.3,0Zm9.62-1.257h-9.1v-3.49h9.1Zm0-5.723v1.715h-9.1v-1.715a1.668,1.668,0,0,0-1.413-1.64v-.891a1.938,1.938,0,0,1,1.943-1.93H81.8a1.938,1.938,0,0,1,1.943,1.93v.891a1.668,1.668,0,0,0-1.408,1.64Zm2.821,6.98a.057.057,0,0,1-.059.059H82.909a.057.057,0,0,1-.059-.059v-6.98a1.152,1.152,0,0,1,2.3,0v6.98Z" transform="translate(0 -109.951)" fill="#002e52" stroke="#002e52" stroke-width="0.75"></path><path id="Path_730" data-name="Path 730" d="M517.408,68.984h-1.669V66c1.169-.093,1.93-.875,1.93-3.91,0-2.948-.765-6.089-2.191-6.089s-2.191,3.141-2.191,6.093c0,3.032.761,3.818,1.93,3.91v2.985h-1.669a.261.261,0,0,0-.193.088.255.255,0,0,0-.063.2l.4,3.318a.259.259,0,0,0,.257.227H517a.259.259,0,0,0,.256-.227l.4-3.318a.255.255,0,0,0-.063-.2.246.246,0,0,0-.194-.093Zm-3.6-6.892a13.512,13.512,0,0,1,.551-4.045c.315-.959.736-1.531,1.119-1.531s.8.572,1.118,1.531a13.38,13.38,0,0,1,.551,4.045c0,3.406-1.005,3.406-1.669,3.406s-1.669,0-1.669-3.406Zm2.969,10.213h-2.594l-.34-2.8h3.275Z" transform="translate(-426.75 0)" fill="#002e52" stroke="#002e52" stroke-width="0.75"></path></g></svg> 