<?xml version="1.0" encoding="UTF-8"?> <svg xmlns="http://www.w3.org/2000/svg" width="15.028" height="15.028" viewBox="0 0 15.028 15.028"><path id="Path_732" data-name="Path 732" d="M118.418,35H106.61A1.61,1.61,0,0,0,105,36.61V48.418a1.61,1.61,0,0,0,1.61,1.61h11.808a1.61,1.61,0,0,0,1.61-1.61V36.61a1.61,1.61,0,0,0-1.61-1.61Zm-6.977,13.955h-3.22V44.883a1.306,1.306,0,0,1,.379-.916,2.352,2.352,0,0,0,.694-1.675V40.367h1.073v1.925a2.352,2.352,0,0,0,.694,1.675,1.306,1.306,0,0,1,.379.916Zm-2.147-9.661V38.22h1.073v1.073Zm7.514,9.661h-2.147V47.016l2.147.715Zm0-2.355-2.147-.715V44.661h2.147Zm2.147,1.818a.537.537,0,0,1-.537.537h-.537V44.124a.537.537,0,0,0-.537-.537h-.537v-.537a.537.537,0,1,0-1.073,0v.537h-1.61a.537.537,0,0,0-.537.537v4.831h-1.073V44.883a2.352,2.352,0,0,0-.694-1.675,1.306,1.306,0,0,1-.379-.916V37.684a.537.537,0,0,0-.537-.537h-2.147a.537.537,0,0,0-.537.537v4.608a1.306,1.306,0,0,1-.379.916,2.352,2.352,0,0,0-.694,1.675v4.071h-.537a.537.537,0,0,1-.537-.537V36.61a.537.537,0,0,1,.537-.537h11.808a.537.537,0,0,1,.537.537Z" transform="translate(-105 -35)" fill="#002e52"></path></svg> 