<?xml version="1.0" encoding="UTF-8"?> <svg xmlns="http://www.w3.org/2000/svg" id="Group_398" data-name="Group 398" width="20.628" height="20.628" viewBox="0 0 20.628 20.628"><path id="Path_711" data-name="Path 711" d="M117.556,208.405c-1.305,0-1.357-.686-2.842-.686s-1.535.686-2.842.686-1.339-.667-2.783-.686h0a.3.3,0,0,0,0,.6c1.255.016,1.322.686,2.791.686,1.484,0,1.535-.686,2.842-.686s1.357.686,2.842.686a.3.3,0,0,0,0-.6Z" transform="translate(-104.401 -199.35)" fill="#002e52"></path><path id="Path_712" data-name="Path 712" d="M181.107,255.219c-1.484,0-1.535.686-2.842.686a.3.3,0,1,0,0,.6c1.484,0,1.535-.686,2.842-.686s1.357.686,2.842.686,1.527-.67,2.791-.686a.3.3,0,0,0,0-.6h0c-1.437.018-1.483.686-2.783.686s-1.357-.686-2.842-.686Z" transform="translate(-170.793 -244.936)" fill="#002e52"></path><path id="Path_713" data-name="Path 713" d="M16.559,4.344a.3.3,0,1,0-.235.557,7.861,7.861,0,0,1,2.724,1.8,3.291,3.291,0,0,1,.976,2.238V9.6c0,1.342-.985,2.618-2.775,3.594a14.776,14.776,0,0,1-6.935,1.562A14.776,14.776,0,0,1,3.379,13.19C1.59,12.215.6,10.938.6,9.6V8.939A3.837,3.837,0,0,1,2.429,5.947,11.587,11.587,0,0,1,7.037,4.088c.052.088.105.167.157.24a11.425,11.425,0,0,0-4.284,1.6A3.744,3.744,0,0,0,.948,8.939,3.755,3.755,0,0,0,2.823,11.89a.3.3,0,0,0,.344-.5,4.915,4.915,0,0,1-.942-.83A3.588,3.588,0,0,1,3.665,8.1,8.507,8.507,0,0,1,6.806,6.546a2.465,2.465,0,0,0-.077.629.773.773,0,1,0,1.547,0,.848.848,0,0,1,.241-.61,3.662,3.662,0,0,0,.263-.4q.3-.034.614-.055a2.255,2.255,0,0,0-.243,1.063.773.773,0,1,0,1.547,0,.848.848,0,0,1,.241-.61,3.4,3.4,0,0,0,.292-.453q.282.019.561.049a2.271,2.271,0,0,0-.219,1.014.773.773,0,1,0,1.547,0,.848.848,0,0,1,.241-.61l.085-.117A8.776,8.776,0,0,1,16.965,8.1,3.587,3.587,0,0,1,18.4,10.564c-1.685,1.968-5.467,2.656-8.089,2.656a14.541,14.541,0,0,1-6.048-1.2.3.3,0,0,0-.258.547,15.152,15.152,0,0,0,6.306,1.258c5.114,0,9.366-2.116,9.366-4.885a3.63,3.63,0,0,0-1.756-2.868A10.82,10.82,0,0,0,13.82,4.4a2.1,2.1,0,0,0-.1-.29c.429.086.847.189,1.25.307a.3.3,0,0,0,.17-.58,15.784,15.784,0,0,0-1.85-.42.745.745,0,0,1-.17-.513A.848.848,0,0,1,13.36,2.3,2.339,2.339,0,0,0,13.9.773a.774.774,0,0,0-1.547,0,.848.848,0,0,1-.241.611,2.339,2.339,0,0,0-.539,1.523,2.68,2.68,0,0,0,.019.315c-.283-.019-.569-.032-.854-.038a.822.822,0,0,1-.039-.277.849.849,0,0,1,.241-.611A2.339,2.339,0,0,0,11.477.773a.773.773,0,0,0-1.547,0,.849.849,0,0,1-.241.611,2.339,2.339,0,0,0-.539,1.523,2.7,2.7,0,0,0,.017.307c-.272.017-.542.04-.81.068a.718.718,0,0,1-.082-.375A.848.848,0,0,1,8.517,2.3,2.339,2.339,0,0,0,9.056.773a.773.773,0,0,0-1.547,0,.848.848,0,0,1-.241.611,2.339,2.339,0,0,0-.539,1.523,2.473,2.473,0,0,0,.073.611C2.718,4.335,0,6.488,0,8.939v5.929c0,1.574,1.1,3.038,3.09,4.124a15.386,15.386,0,0,0,7.224,1.635,15.386,15.386,0,0,0,7.224-1.635c1.993-1.086,3.09-2.551,3.09-4.124V8.939C20.628,7.111,19.145,5.436,16.559,4.344ZM3.279,7.634A4.518,4.518,0,0,0,1.746,9.822a2.166,2.166,0,0,1-.193-.884c0-1.812,2.432-3.459,5.947-4.051a1.1,1.1,0,0,1,.009.153.848.848,0,0,1-.241.61c-.042.057-.087.119-.132.186A9.444,9.444,0,0,0,3.279,7.634ZM9.035,4.7c.269-.02.541-.032.813-.039a.718.718,0,0,1,.083.376.71.71,0,0,1-.124.445c-.267.009-.533.026-.8.05A2.644,2.644,0,0,0,9.035,4.7Zm2.42-.009c.29.019.578.045.861.078a.838.838,0,0,1,.035.268.781.781,0,0,1-.2.553c-.237-.031-.477-.056-.719-.074a2.561,2.561,0,0,0,.044-.479,2.645,2.645,0,0,0-.022-.346Zm7.62,4.243a2.167,2.167,0,0,1-.193.884,4.517,4.517,0,0,0-1.531-2.187,9.271,9.271,0,0,0-3.6-1.735,2.334,2.334,0,0,0,.151-.859v0C17.012,5.732,19.075,7.273,19.075,8.939ZM12.6,1.741a1.426,1.426,0,0,0,.357-.967.169.169,0,1,1,.338,0,1.746,1.746,0,0,1-.422,1.167,1.426,1.426,0,0,0-.357.967,1.426,1.426,0,0,0,.357.967,1.746,1.746,0,0,1,.422,1.167,1.745,1.745,0,0,1-.423,1.167,1.426,1.426,0,0,0-.357.967.169.169,0,1,1-.338,0A1.745,1.745,0,0,1,12.6,6.008a1.487,1.487,0,0,0,0-1.934,1.744,1.744,0,0,1-.422-1.167A1.746,1.746,0,0,1,12.6,1.741Zm-.7,2.383q-.307-.027-.618-.043a2.333,2.333,0,0,0-.149-.278q.311.014.619.039a2.283,2.283,0,0,0,.147.283ZM10.178,1.74a1.426,1.426,0,0,0,.357-.967.169.169,0,1,1,.338,0A1.746,1.746,0,0,1,10.45,1.94a1.426,1.426,0,0,0-.357.967c0,.992.78,1,.78,2.134a1.73,1.73,0,0,1-.422,1.167,1.426,1.426,0,0,0-.357.967.169.169,0,1,1-.338,0,1.746,1.746,0,0,1,.422-1.167,1.426,1.426,0,0,0,.357-.967c0-.987-.78-1-.78-2.134a1.746,1.746,0,0,1,.423-1.167ZM9.451,4.075q-.289.014-.575.036a2.267,2.267,0,0,0-.132-.259q.287-.025.576-.041A2.234,2.234,0,0,0,9.451,4.075ZM7.756,1.741A1.426,1.426,0,0,0,8.113.773a.169.169,0,1,1,.338,0A1.746,1.746,0,0,1,8.029,1.94a1.426,1.426,0,0,0-.357.967,1.426,1.426,0,0,0,.357.967,1.751,1.751,0,0,1,.422,1.167,1.716,1.716,0,0,1-.423,1.167,1.426,1.426,0,0,0-.357.967.169.169,0,1,1-.338,0,1.745,1.745,0,0,1,.423-1.167,1.426,1.426,0,0,0,.357-.967,1.409,1.409,0,0,0-.357-.967,1.715,1.715,0,0,1-.422-1.167,1.746,1.746,0,0,1,.422-1.167ZM20.024,14.868c0,1.342-.985,2.618-2.775,3.594a14.777,14.777,0,0,1-6.935,1.562,14.776,14.776,0,0,1-6.935-1.562C1.59,17.486.6,16.21.6,14.868V12.85A6.682,6.682,0,0,0,3.09,15.008a15.385,15.385,0,0,0,7.224,1.635A15.545,15.545,0,0,0,17.4,15.081a.3.3,0,0,0-.281-.535,14.935,14.935,0,0,1-6.808,1.494,14.776,14.776,0,0,1-6.935-1.562,5.215,5.215,0,0,1-2.626-2.7A6.94,6.94,0,0,0,3.09,13.721a15.385,15.385,0,0,0,7.224,1.635,15.385,15.385,0,0,0,7.224-1.635,6.941,6.941,0,0,0,2.336-1.94,4.425,4.425,0,0,1-1.6,2.041.3.3,0,1,0,.366.481,5.77,5.77,0,0,0,1.387-1.455Z" fill="#002e52"></path></svg> 