<?xml version="1.0" encoding="UTF-8"?> <svg xmlns="http://www.w3.org/2000/svg" width="16.727" height="16.187" viewBox="0 0 16.727 16.187"><path id="Path_726" data-name="Path 726" d="M188.565,112.837a1.7,1.7,0,0,0-1.457-.836h-4.694a1.655,1.655,0,0,0-1.43.836,1.636,1.636,0,0,0-.216.7l-4.37,1.079v6.556h2.7v7.014h11.331v-7.014h2.7v-6.556l-4.37-1.079a1.512,1.512,0,0,0-.189-.7Zm-6.151.782h4.694c.027,0,.054.027.027.054l-2.374,3.993-2.4-3.993a.058.058,0,0,1,.054-.054Zm3.723,9.173-.027-.108.054.108Zm-8.121-3.237v-3.7l3.291-.809,2.077,3.453,2.563,4.29h-5.234v-3.237Zm2.7,7.014v-2.158h8.094v2.158Zm10.791-7.014h-2.7v3.237h-1.025l-2.077-3.534,2.536-4.209,3.291.809v3.7Z" transform="translate(-176.397 -112.001)" fill="#002e52"></path></svg> 